<svg xmlns="http://www.w3.org/2000/svg" viewBox="0 0 708.66 708.66"><defs><style>.cls-1{fill:#fff;}.cls-2{fill:#0c4b63;}</style></defs><g id="Layer_2" data-name="Layer 2"><g id="Layer_1-2" data-name="Layer 1"><g id="Ebene_2" data-name="Ebene 2"><g id="Layer_1-3" data-name="Layer 1"><circle class="cls-1" cx="354.33" cy="354.33" r="354.33"/><path class="cls-2" d="M250.26,336.29c20-29.28,31.91-21.76,34.35-61.48a67.79,67.79,0,0,1,.59-8.78,112.15,112.15,0,0,0-39,43.91,393.27,393.27,0,0,0-35.91-50.35c-.78,4.59-1.46,9.76-1.95,14.05V281C206.25,317.26,223.72,315.12,250.26,336.29Z"/><path class="cls-2" d="M295.54,238.42h0a67.74,67.74,0,0,1,5.27-7.42c-45.08-3.81-54.06,28.3-54.06,28.3a358,358,0,0,0-8-67.33,159.82,159.82,0,0,0-11.52,18.34c-18.34,35.52,5.37,47.14,18.54,78.07C261.48,261,282,257.64,295.54,238.42Z"/><path class="cls-2" d="M254.26,232.27c25.57-23.52,47-9.76,65.38-16.79a41.24,41.24,0,0,0,15.81-17.95c-26.34-4.1-42.25-10.93-66.75,13.17a87.08,87.08,0,0,0,12.69-58.55,143.37,143.37,0,0,0-15.13,10C242,185.92,259.92,191.28,254.26,232.27Z"/><path class="cls-2" d="M452.65,352.78c-14.25-17.27-31.71-26.64-41.57-45.37a67.43,67.43,0,0,1-118.08,0c-9.76,18.73-27.32,28.2-41.57,45.37-15-12.29-31.52-16.29-42.25-29.27,14.15,92.89,119.44,252,142.86,252S480.17,416.4,494.41,324.29C483.58,336.68,467.48,340.68,452.65,352.78Z"/><path class="cls-2" d="M495.88,274.42v-.78c0-4.78-1.08-9.76-2-14.05a392.76,392.76,0,0,0-36.39,50.35,112.15,112.15,0,0,0-39-43.91,67.79,67.79,0,0,1,.59,8.78c2.44,39.72,14.35,32.6,34.35,61.48C480,315,497.44,317.26,496,281A36.17,36.17,0,0,0,495.88,274.42Z"/><path class="cls-2" d="M477,210.31A159.76,159.76,0,0,0,465.33,192a358.43,358.43,0,0,0-8.09,67.52s-8.89-32.3-54.36-28.49a66.92,66.92,0,0,1,5.57,7.51h0c13.17,19.52,33.66,22.64,49.47,50.16C471.19,257.45,495.29,245.83,477,210.31Z"/><path class="cls-2" d="M437.33,162.11a144.5,144.5,0,0,0-14.94-10.35,87.19,87.19,0,0,0,12.69,58.55c-24.59-17.86-38.35-11.71-64.69-.49a67.33,67.33,0,0,1,10.53,4.1h0c19.52,9.76,41.47-6.73,68.31,18.15C444.16,191.28,462.21,185.92,437.33,162.11Z"/><path class="cls-2" d="M334.57,154.69c24.49-6.54,52.31-7,59.92,13.27a70.72,70.72,0,0,0-42.06,34.45c16.11-4.39,34.35-14.25,61.19-14.25-1.95-9.76-.69-25-9.76-37.37a48.12,48.12,0,0,0-31.13-17.37C345.89,130.59,336.72,147.37,334.57,154.69Z"/><path class="cls-2" d="M307.35,172.45c10.85-9.38,20.7-27.25,15.42-37.67a134,134,0,0,0-21,6.54c-14.93,8.1-3.52,23.32-9.76,42.16a100.88,100.88,0,0,1,26.54,1.17h0l4.39,1.17c6.07,1.82,9.27,2.92,18.74,1.76s29.51-20.85,33.95-23.42C353.5,151,315.06,171.18,307.35,172.45Z"/></g></g></g></g></svg>