<?xml version="1.0" encoding="UTF-8" standalone="no"?>
<svg
   xmlns:dc="http://purl.org/dc/elements/1.1/"
   xmlns:cc="http://creativecommons.org/ns#"
   xmlns:rdf="http://www.w3.org/1999/02/22-rdf-syntax-ns#"
   xmlns:svg="http://www.w3.org/2000/svg"
   xmlns="http://www.w3.org/2000/svg"
   xmlns:sodipodi="http://sodipodi.sourceforge.net/DTD/sodipodi-0.dtd"
   xmlns:inkscape="http://www.inkscape.org/namespaces/inkscape"
   inkscape:export-ydpi="499.93219"
   inkscape:export-xdpi="499.93219"
   inkscape:export-filename="/home/raymo/raymocloud/Work/EdgePrim/Logos and Artwork/Logo.png"
   inkscape:version="1.0 (4035a4fb49, 2020-05-01)"
   sodipodi:docname="Logo.svg"
   id="svg96"
   version="1.1"
   overflow="hidden"
   height="224.50121"
   width="1019.2454">
  <metadata
     id="metadata100">
    <rdf:RDF>
      <cc:Work
         rdf:about="">
        <dc:format>image/svg+xml</dc:format>
        <dc:type
           rdf:resource="http://purl.org/dc/dcmitype/StillImage" />
      </cc:Work>
    </rdf:RDF>
  </metadata>
  <sodipodi:namedview
     inkscape:current-layer="svg96"
     inkscape:window-maximized="0"
     inkscape:window-y="32"
     inkscape:window-x="0"
     inkscape:cy="63.308702"
     inkscape:cx="511.62813"
     inkscape:zoom="2.8284271"
     showgrid="false"
     id="namedview98"
     inkscape:window-height="1566"
     inkscape:window-width="3774"
     inkscape:pageshadow="2"
     inkscape:pageopacity="0"
     guidetolerance="10"
     gridtolerance="10"
     objecttolerance="10"
     borderopacity="1"
     bordercolor="#666666"
     pagecolor="#ffffff" />
  <defs
     id="defs14" />
  <g
     transform="translate(-1.754666,-0.49879002)"
     id="g209">
    <path
       id="path16"
       fill-rule="evenodd"
       fill="#00b0f0"
       d="m 744,98 h 33 v 64 h -33 z" />
    <path
       id="path18"
       fill-rule="evenodd"
       fill="#0070c0"
       d="m 777,66 -33,32 h 33 l 33,-32 z" />
    <path
       id="path20"
       fill-rule="evenodd"
       fill="#0070c0"
       d="M 900.61,66 868,98 h 32.61 87.78 32.61 L 988.39,66 Z" />
    <path
       id="path22"
       fill-rule="evenodd"
       fill="#00b0f0"
       d="m 929,98 h 31 v 64 h -31 z" />
    <path
       id="path24"
       fill-rule="evenodd"
       fill="#00b0f0"
       d="m 868,98 h 32 v 64 h -32 z" />
    <path
       id="path26"
       fill-rule="evenodd"
       fill="#00b0f0"
       d="m 989,98 h 32 v 64 h -32 z" />
    <path
       id="path28"
       fill-rule="evenodd"
       fill="#00b0f0"
       d="m 810,98 h 32 v 64 h -32 z" />
    <path
       id="path30"
       fill-rule="evenodd"
       fill="#0070c0"
       d="M 842.498,34 810,66 h 32.498 L 875,34 Z" />
    <path
       id="path32"
       fill-rule="evenodd"
       fill="#00b0f0"
       d="m 168,34 h 33 v 94 h -33 z" />
    <path
       id="path34"
       fill-rule="evenodd"
       fill="#0070c0"
       d="m 201,64 h 62 v 33 h -62 z" />
    <path
       id="path36"
       fill-rule="evenodd"
       fill="#0070c0"
       d="m 168,128 32.788,33 H 263 v -33 h -62.212 z" />
    <path
       id="path38"
       fill-rule="evenodd"
       fill="#0070c0"
       d="M 200.788,1 168,34 H 200.788 263 V 1 Z" />
    <path
       id="path40"
       fill-rule="evenodd"
       fill="#00b0f0"
       d="m 349,1 h 33 v 128 h -33 z" />
    <path
       id="path42"
       fill-rule="evenodd"
       fill="#00b0f0"
       d="m 288,98 h 33 v 63 h -33 z" />
    <path
       id="path44"
       fill-rule="evenodd"
       fill="#0070c0"
       d="M 320.589,65 288,98 H 320.589 349 V 65 Z" />
    <path
       id="path46"
       fill-rule="evenodd"
       fill="#0070c0"
       d="m 321,129 v 32 h 28.411 L 382,129 h -32.589 z" />
    <path
       id="path48"
       fill-rule="evenodd"
       fill="#00b0f0"
       d="m 470,65 h 32 v 128 h -32 z" />
    <path
       id="path50"
       fill-rule="evenodd"
       fill="#0070c0"
       d="m 440,129 h 62 v 32 h -62 z" />
    <path
       id="path52"
       fill-rule="evenodd"
       fill="#0070c0"
       d="m 407,193 v 32 h 62.212 L 502,193 h -32.788 z" />
    <path
       id="path54"
       fill-rule="evenodd"
       fill="#00b0f0"
       d="m 407,98 h 33 v 63 h -33 z" />
    <path
       id="path56"
       fill-rule="evenodd"
       fill="#0070c0"
       d="M 440.203,65 407,98 H 440.203 470 V 65 Z" />
    <path
       id="path58"
       fill-rule="evenodd"
       fill="#00b0f0"
       d="m 621.85372,34 -32.00002,-3e-6 -10e-6,94.000103 h 32.00002 z" />
    <path
       id="path60"
       fill-rule="evenodd"
       fill="#0070c0"
       d="M 527.94124,65.057547 V 97.0575 l 62.00006,3e-6 V 65.05755 Z" />
    <path
       id="path62"
       fill-rule="evenodd"
       fill="#0070c0"
       d="m 528,128 v 32 h 61.558 L 622,128 h -32.442 z" />
    <path
       id="path64"
       fill-rule="evenodd"
       fill="#0070c0"
       d="M 528,1 V 34 H 589.558 622 L 589.558,1 Z" />
    <path
       id="path66"
       fill-rule="evenodd"
       fill="#00b0f0"
       d="m 648,34 h 32 v 128 h -32 z" />
    <path
       id="path68"
       fill-rule="evenodd"
       fill="#00b0f0"
       d="m 710,1 h 33 v 65 h -33 z" />
    <path
       id="path70"
       fill-rule="evenodd"
       fill="#0070c0"
       d="m 680,66 v 32 h 29.797 L 743,66 h -33.203 z" />
    <path
       id="path72"
       fill-rule="evenodd"
       fill="#0070c0"
       d="M 680.676,1 648,34 H 680.676 710 V 1 Z" />
  </g>
  <g
     transform="translate(-1.754666,-0.49879002)"
     id="g178">
    <path
       d="m 69.3795,13.690312 c 0,-7.285131 5.9011,-13.19152198 13.1797,-13.19152198 7.2785,0 13.1796,5.90639098 13.1796,13.19152198 0,7.28505 -5.9011,13.191461 -13.1796,13.191461 -7.2786,0 -13.1797,-5.906411 -13.1797,-13.191461 z"
       fill="#ffc000"
       fill-rule="evenodd"
       id="path76"
       style="stroke-width:1.00045" />
    <path
       d="m 84.785775,72.816686 9.5e-5,-41.445674 h -4.45319 l -9.5e-5,41.445674 z M 91.413049,41.948276 82.57129,26.91614 73.822494,41.950013 c -0.619561,1.063321 -0.260723,2.427637 0.801553,3.04791 1.062194,0.620225 2.425346,0.261048 3.045169,-0.802014 l 6.813158,-11.702081 h -3.84646 l 6.930409,11.700344 c 0.623212,1.063051 1.983066,1.422394 3.045426,0.802014 1.06211,-0.620118 1.420861,-1.984589 0.8013,-3.04791 z"
       fill="#4472c4"
       id="path78"
       style="fill:#00b0f0;fill-opacity:1;stroke-width:2.61978"
       sodipodi:nodetypes="ccccccccscccccc" />
    <path
       d="m 116.036,129.35542 c 0,-7.28555 5.901,-13.19187 13.18,-13.19187 7.279,0 13.18,5.90632 13.18,13.19187 0,7.28455 -5.901,13.19086 -13.18,13.19086 -7.279,0 -13.18,-5.90631 -13.18,-13.19086 z"
       fill="#00b050"
       fill-rule="evenodd"
       id="path84"
       style="stroke-width:1.00045" />
    <path
       d="m 1.754666,146.53687 c 0,-7.28556 5.900734,-13.19187 13.179634,-13.19187 7.2789,0 13.1796,5.90631 13.1796,13.19187 0,7.28455 -5.9007,13.19086 -13.1796,13.19086 -7.2789,0 -13.179634,-5.90631 -13.179634,-13.19086 z"
       fill="#ff0000"
       fill-rule="evenodd"
       id="path86"
       style="stroke-width:1.00045" />
    <path
       sodipodi:nodetypes="ccccccccscccccc"
       style="fill:#00b0f0;fill-opacity:1;stroke-width:2.61978"
       id="path167"
       fill="#4472c4"
       d="m 73.558144,91.322546 -47.30267,41.434414 2.934241,3.34979 47.30267,-41.434407 z M 29.845237,120.8024 24.395612,137.34611 41.4371,134.03329 c 1.208089,-0.23459 1.997922,-1.40349 1.764561,-2.61125 -0.233336,-1.20767 -1.401712,-1.99641 -2.609776,-1.76219 l -13.291827,2.58558 2.534463,2.8934 4.234774,-12.92268 c 0.389012,-1.16924 -0.236704,-2.42893 -1.403366,-2.81929 -1.166294,-0.39034 -2.429063,0.23885 -2.820692,1.40554 z"
       inkscape:transform-center-x="27.370467"
       inkscape:transform-center-y="-32.955568" />
    <path
       inkscape:transform-center-y="30.597375"
       inkscape:transform-center-x="29.638396"
       d="m 89.852895,96.516037 24.730245,22.713363 3.01228,-3.27978 -24.730233,-22.713375 z m 12.457205,20.439483 17.05621,3.63291 -5.15864,-16.58957 c -0.36409,-1.17557 -1.61162,-1.83416 -2.78699,-1.47137 -1.17529,0.3628 -1.83286,1.60969 -1.46918,2.78529 l 4.00997,12.9336 2.60188,-2.83294 -13.30532,-2.81025 c -1.2045,-0.26007 -2.389,0.49838 -2.65071,1.70047 -0.26172,1.2017 0.5005,2.38891 1.70278,2.65186 z"
       fill="#4472c4"
       id="path169"
       style="fill:#00b0f0;fill-opacity:1;stroke-width:2.61978"
       sodipodi:nodetypes="ccccccccscccccc" />
    <path
       d="m 69.3795,85.67584 c 0,-7.28505 5.901,-13.191461 13.1796,-13.191461 7.2786,0 13.1797,5.906411 13.1797,13.191461 0,7.285151 -5.9011,13.191162 -13.1797,13.191162 -7.2786,0 -13.1796,-5.906011 -13.1796,-13.191162 z"
       fill="#00b0f0"
       fill-rule="evenodd"
       id="path74"
       style="fill:#0070c0;fill-opacity:1;stroke-width:1.00045" />
  </g>
</svg>
