<?xml version="1.0" standalone="no"?>
<!DOCTYPE svg PUBLIC "-//W3C//DTD SVG 20010904//EN"
 "http://www.w3.org/TR/2001/REC-SVG-20010904/DTD/svg10.dtd">
<svg version="1.0" xmlns="http://www.w3.org/2000/svg"
 width="1000.000000pt" height="1000.000000pt" viewBox="0 0 1000.000000 1000.000000"
 preserveAspectRatio="xMidYMid meet">
<metadata>
Created by potrace 1.14, written by Peter Selinger 2001-2017
</metadata>
<g transform="translate(0.000000,1000.000000) scale(0.100000,-0.100000)"
fill="#000000" stroke="none">
<path d="M4982 9933 c-4 -10 -8 -193 -7 -408 1 -391 -1 -415 -33 -415 -25 0
-36 -68 -36 -239 -1 -158 -3 -180 -21 -211 -20 -34 -21 -50 -20 -497 0 -434
-1 -462 -18 -467 -9 -2 -20 -4 -22 -3 -3 1 -12 -8 -20 -21 -9 -12 -20 -20 -25
-17 -9 6 -103 -95 -95 -103 2 -3 0 -12 -7 -19 -13 -16 -12 -96 1 -101 5 -2 7
-11 4 -21 -3 -11 2 -21 11 -24 9 -4 16 -13 16 -21 0 -8 13 -22 28 -32 l29 -16
0 -829 c0 -768 -1 -829 -17 -829 -9 0 -20 -3 -24 -7 -4 -5 -15 -8 -24 -9 -10
-1 -33 -7 -52 -15 -19 -7 -38 -12 -42 -11 -5 1 -8 -3 -8 -8 0 -5 -3 -9 -7 -8
-13 3 -63 -24 -63 -34 0 -4 -6 -8 -13 -8 -17 0 -108 -95 -135 -141 -12 -20
-22 -48 -22 -63 0 -14 -4 -26 -9 -26 -6 0 -8 -9 -6 -20 4 -23 -23 -53 -66 -70
-16 -7 -29 -16 -29 -21 0 -4 -20 -22 -45 -39 -42 -29 -75 -69 -115 -139 -8
-14 -19 -29 -25 -33 -5 -4 -6 -8 -1 -8 5 0 3 -7 -4 -15 -6 -8 -9 -18 -6 -24 3
-5 1 -11 -4 -13 -15 -5 -16 -194 -2 -211 6 -7 9 -26 6 -41 -2 -15 -1 -33 4
-40 16 -19 23 -76 23 -183 0 -57 4 -103 9 -103 4 0 6 -19 3 -42 -10 -100 -12
-169 -3 -163 5 3 7 -6 6 -21 -2 -14 2 -40 9 -58 28 -76 48 -116 58 -116 6 0 8
-3 4 -6 -3 -3 4 -17 16 -31 38 -43 152 -157 157 -156 6 0 52 -29 60 -37 6 -7
37 -20 46 -19 4 0 10 -3 13 -8 10 -13 125 -67 139 -65 6 2 12 -1 13 -5 4 -37
1 -181 -6 -232 -4 -36 -7 -319 -7 -630 0 -312 -3 -570 -7 -576 -6 -8 -8 -438
-2 -466 3 -20 161 -30 436 -30 244 1 315 3 315 13 0 4 12 8 28 10 27 3 27 4
28 78 1 41 -2 80 -5 85 -3 6 -6 186 -6 400 -1 215 -5 396 -9 403 -4 7 -7 188
-7 402 0 214 -3 392 -7 394 -11 7 -8 151 3 152 22 2 71 17 83 27 6 5 12 7 12
3 0 -4 19 3 43 15 23 12 42 20 42 18 0 -3 55 34 113 76 43 31 122 110 122 121
0 8 5 14 10 14 6 0 10 5 10 10 0 6 9 23 20 38 11 15 22 38 25 51 2 13 9 29 15
36 5 6 11 25 12 41 1 16 5 34 9 39 6 9 6 150 -1 150 -8 0 -6 292 2 302 5 7 7
17 3 23 -3 5 -2 10 3 10 6 0 13 17 17 38 5 20 10 44 12 52 3 8 6 22 7 30 1 8
6 31 11 50 12 53 13 94 2 121 -6 13 -11 29 -11 34 -3 19 -40 85 -48 85 -4 0
-8 6 -8 13 0 16 -113 121 -171 159 -20 13 -25 24 -24 50 1 18 -2 39 -8 45 -5
7 -7 19 -4 28 4 8 2 17 -3 20 -6 4 -10 13 -10 21 0 15 -39 76 -52 82 -5 2 -8
9 -8 16 0 15 -42 56 -57 56 -6 0 -14 7 -17 16 -3 9 -13 14 -20 11 -8 -3 -17 0
-19 7 -5 14 -74 49 -94 49 -7 0 -13 3 -13 7 0 3 -8 6 -17 7 -10 1 -31 7 -48
14 -16 7 -39 13 -50 14 -11 1 -25 3 -30 3 -12 2 -14 1366 -2 1378 4 4 7 65 7
134 l0 128 36 27 c52 40 78 104 70 173 -4 30 -11 64 -17 76 -16 31 -81 96 -96
96 -7 0 -13 5 -13 11 0 5 -3 8 -8 5 -4 -2 -15 2 -26 9 -17 13 -18 39 -18 477
0 300 -4 467 -10 476 -6 6 -7 12 -2 12 5 0 0 7 -11 16 -18 14 -19 27 -19 209
0 107 -3 195 -8 195 -4 0 -8 7 -8 15 0 8 -12 24 -27 35 l-28 20 1 393 c1 247
-2 397 -8 405 -15 18 -46 15 -56 -5z m64 -1068 l0 -144 -28 1 -28 1 0 153 c0
158 6 180 40 147 12 -11 15 -43 16 -158z m22 -243 c4 -6 7 -212 7 -459 l0
-448 -63 -1 -62 -1 0 452 0 452 22 10 c29 13 88 10 96 -5z m2 -1004 c79 -18
160 -67 160 -98 0 -9 3 -20 7 -24 12 -12 10 -66 -3 -77 -10 -8 -19 -5 -36 11
-12 11 -33 23 -45 26 -13 4 -23 10 -23 15 0 5 -3 8 -7 7 -5 0 -15 2 -24 6 -15
6 -212 3 -246 -5 -7 -1 -13 -7 -13 -12 0 -6 -3 -7 -6 -4 -4 3 -18 -3 -32 -13
-30 -24 -34 -22 -34 25 0 28 8 45 34 72 33 35 93 68 116 64 6 -1 12 3 12 9 0
11 91 9 140 -2z m-121 -703 c0 -278 -3 -505 -7 -505 -4 0 -7 -165 -7 -367 l0
-368 -40 0 -40 0 2 290 c7 1206 9 1422 17 1433 4 7 14 11 22 8 7 -3 16 -1 19
4 4 6 12 10 20 10 11 0 14 -83 14 -505z m146 481 c35 -6 35 -3 35 -735 0 -395
-3 -721 -7 -725 -4 -4 -8 -66 -8 -139 0 -112 -3 -131 -15 -128 -8 2 -30 4 -47
4 l-33 -1 0 63 c0 34 3 65 7 69 4 4 9 282 10 619 3 499 7 890 12 976 1 8 7 11
19 6 9 -4 22 -8 27 -9z m-37 -1819 c39 0 72 -5 72 -10 0 -5 15 -8 33 -6 17 1
43 -3 57 -8 14 -6 29 -9 33 -6 4 3 14 0 22 -7 7 -6 19 -10 27 -9 11 3 85 -33
160 -77 31 -19 75 -67 83 -94 4 -13 14 -30 21 -38 8 -7 14 -17 14 -22 0 -20
-19 -17 -71 8 -46 24 -128 54 -151 56 -3 1 -10 4 -14 9 -4 4 -22 7 -40 7 -18
0 -35 4 -38 9 -3 5 -15 7 -26 4 -11 -3 -26 -1 -33 5 -6 5 -34 9 -62 8 -27 -1
-61 2 -74 7 -31 10 -167 12 -204 2 -15 -4 -54 -9 -85 -10 -31 -1 -57 -4 -57
-5 0 -1 -16 -4 -35 -6 -19 -2 -53 -8 -75 -14 -22 -6 -49 -13 -60 -14 -22 -3
-64 -19 -98 -38 -19 -10 -20 -9 -9 4 7 9 11 20 10 25 -3 10 14 32 57 75 49 48
61 58 73 58 7 0 12 4 12 10 0 6 3 10 8 9 15 -2 52 14 52 23 0 5 4 7 9 3 5 -3
13 0 16 6 4 5 13 8 20 5 8 -3 15 0 17 6 2 5 20 10 41 10 20 0 39 3 42 8 2 4
27 6 55 5 28 -1 53 1 56 6 2 5 19 6 37 3 18 -3 65 -6 105 -7z m82 -260 c17 -6
92 -18 128 -20 12 0 22 -4 22 -8 0 -7 74 -24 76 -17 0 1 8 -3 17 -11 10 -7 17
-10 17 -7 0 6 72 -27 120 -55 8 -5 29 -15 45 -24 58 -28 78 -44 172 -132 39
-37 69 -71 67 -75 -3 -4 2 -11 10 -14 9 -3 16 -12 16 -20 0 -8 3 -14 8 -14 4
0 7 -32 7 -70 0 -39 -3 -70 -7 -70 -5 0 -8 -13 -8 -30 0 -16 -5 -30 -11 -30
-5 0 -8 4 -5 9 3 5 -5 24 -19 42 -13 19 -30 43 -36 54 -31 56 -219 168 -326
196 -29 7 -53 15 -53 19 0 3 -15 7 -32 8 -84 6 -106 9 -117 16 -7 5 -49 8 -94
8 -45 0 -86 3 -92 6 -15 10 -128 10 -141 0 -6 -4 -44 -7 -85 -6 -41 1 -92 -3
-114 -7 -22 -5 -48 -8 -57 -6 -10 1 -18 -2 -18 -7 0 -5 -16 -9 -35 -7 -19 1
-35 -1 -35 -4 0 -6 -80 -33 -105 -36 -5 0 -21 -7 -35 -15 -14 -8 -28 -13 -32
-12 -5 1 -8 -2 -8 -7 0 -5 -13 -12 -28 -16 -16 -3 -51 -24 -78 -45 -66 -53
-65 -52 -98 -99 -17 -23 -32 -41 -35 -41 -3 0 -6 38 -6 85 0 47 2 85 5 85 3 0
12 15 20 33 17 38 16 38 76 104 26 29 50 50 55 48 4 -3 9 -2 11 3 13 31 181
122 225 122 7 0 13 5 13 11 0 6 9 9 20 6 11 -3 20 -1 20 4 0 5 11 9 25 9 14 0
25 5 25 10 0 6 13 8 29 5 17 -3 33 -1 36 5 3 5 25 10 48 10 23 0 47 4 54 8 13
8 320 7 343 -1z m-255 -362 c17 0 20 -7 20 -45 l0 -45 -78 -1 c-42 0 -80 -4
-84 -7 -3 -4 -21 -7 -39 -7 -18 0 -36 -5 -39 -10 -4 -6 -10 -8 -15 -5 -5 3
-18 1 -29 -4 -18 -10 -26 0 -35 41 0 3 -4 10 -8 14 -11 11 -10 36 1 29 5 -3
12 -1 16 5 3 5 22 10 41 10 19 0 34 4 34 8 0 5 25 8 55 8 30 -1 55 2 55 6 0 8
73 15 80 8 3 -3 14 -5 25 -5z m235 5 c8 5 18 6 22 4 13 -8 51 -16 93 -18 22
-1 47 -6 56 -10 9 -4 22 -6 29 -4 19 4 23 -23 9 -58 -7 -16 -11 -32 -11 -37 2
-9 -65 -3 -91 8 -9 4 -28 5 -42 3 -14 -3 -29 0 -34 6 -6 7 -40 11 -85 10 l-76
-1 2 48 1 48 41 3 c22 2 48 0 57 -4 8 -3 21 -3 29 2z m357 -72 c15 -6 30 -12
33 -13 22 -7 80 -40 80 -47 0 -4 5 -8 12 -8 7 0 27 -14 44 -31 l32 -31 -24
-25 c-13 -13 -24 -28 -24 -33 0 -4 -33 8 -72 28 -40 19 -76 35 -80 34 -5 -1
-8 2 -8 7 0 5 -16 12 -35 15 -40 8 -40 7 -20 46 9 17 16 33 16 37 2 13 11 33
14 33 2 0 16 -5 32 -12z m-981 -53 c12 -35 12 -36 -25 -52 -20 -9 -39 -16 -42
-15 -4 1 -19 -10 -33 -23 -15 -14 -30 -25 -34 -25 -4 0 -15 -7 -25 -16 -17
-14 -22 -13 -53 8 -19 13 -34 25 -34 28 0 10 68 70 79 70 5 0 15 8 20 18 6 9
11 13 11 9 0 -4 16 4 35 19 19 14 35 23 35 20 0 -4 8 -3 18 3 21 12 32 3 48
-44z m622 -67 c28 -1 52 -6 52 -10 0 -5 13 -8 28 -8 16 0 32 -3 36 -7 3 -4 14
-8 24 -10 67 -11 114 -23 127 -33 6 -4 28 -13 50 -20 22 -7 58 -25 80 -39 51
-32 77 -49 92 -57 23 -11 100 -94 94 -100 -3 -3 2 -10 12 -15 9 -6 17 -17 17
-24 0 -8 4 -15 9 -15 9 0 36 -87 32 -104 -1 -4 3 -13 8 -20 12 -15 12 -186 0
-186 -6 0 -9 -6 -8 -12 6 -29 -62 -145 -113 -194 -66 -62 -124 -105 -132 -97
-3 4 -6 0 -6 -7 0 -7 -3 -10 -7 -7 -3 4 12 23 35 43 23 19 42 42 42 50 0 8 4
14 9 14 5 0 12 12 16 27 3 15 11 31 16 34 6 3 14 30 19 60 4 30 10 64 13 77 3
12 2 22 -4 22 -5 0 -9 18 -9 40 0 22 -5 40 -11 40 -5 0 -7 5 -4 10 3 6 1 10
-4 10 -6 0 -11 5 -11 12 0 14 -100 118 -114 118 -5 0 -14 6 -20 14 -11 14
-186 80 -186 70 0 -3 -6 -2 -12 3 -15 9 -28 12 -83 19 -22 3 -47 8 -55 11 -8
4 -44 7 -80 7 -36 1 -69 4 -75 8 -14 8 -115 9 -115 0 0 -4 -30 -8 -67 -9 -38
0 -86 -6 -108 -13 -22 -6 -47 -12 -55 -12 -8 0 -21 -5 -27 -11 -7 -5 -13 -7
-13 -4 0 5 -117 -51 -155 -75 -50 -32 -131 -128 -147 -176 -19 -52 -24 -142
-9 -142 4 0 8 -10 7 -22 -1 -13 6 -35 16 -49 9 -14 15 -29 11 -32 -3 -4 2 -9
11 -13 9 -3 16 -12 16 -20 0 -8 5 -14 11 -14 5 0 7 -5 3 -11 -5 -8 -10 -6 -16
5 -5 9 -13 16 -19 16 -17 0 -51 38 -44 49 3 6 0 11 -8 11 -7 0 -20 12 -28 27
-8 15 -22 35 -31 45 -10 10 -18 26 -18 36 0 10 -3 22 -7 26 -19 19 -33 194
-16 208 6 5 10 18 8 29 -2 10 0 19 5 19 4 0 11 18 15 40 4 22 10 40 15 40 4 0
14 15 21 33 25 60 193 210 213 190 3 -4 6 -1 6 5 0 7 7 12 15 12 8 0 15 5 15
11 0 5 4 8 9 4 5 -3 13 0 16 6 4 5 13 8 21 5 8 -3 17 1 20 8 3 8 14 12 25 9
10 -3 19 -1 19 4 0 5 6 10 13 10 6 1 35 6 62 13 28 6 69 12 92 14 23 1 46 5
49 9 7 6 55 5 292 -5z m637 -129 c4 -10 3 -23 0 -29 -3 -5 -2 -10 3 -10 5 0
12 -9 15 -20 3 -11 4 -20 3 -20 -2 0 -21 17 -43 39 -38 35 -40 40 -25 53 21
18 39 13 47 -13z m-1531 -12 c8 -13 7 -20 -4 -27 -8 -5 -15 -15 -15 -21 0 -7
-6 -14 -12 -16 -15 -5 -18 43 -3 52 5 3 6 13 3 22 -8 21 17 13 31 -10z m-44
-97 c0 -5 -2 -10 -4 -10 -3 0 -8 5 -11 10 -3 6 -1 10 4 10 6 0 11 -4 11 -10z
m935 -130 c39 -5 81 -11 95 -14 14 -3 34 -7 45 -9 11 -2 34 -10 50 -17 17 -6
35 -13 40 -14 31 -8 72 -30 105 -56 21 -17 42 -30 48 -30 6 0 23 -21 39 -47
24 -39 29 -59 28 -103 -1 -59 -23 -140 -37 -140 -4 0 -7 -3 -6 -7 1 -5 -10
-26 -24 -49 -23 -36 -59 -61 -149 -102 -4 -1 -7 63 -7 143 0 115 -4 148 -16
160 -8 8 -19 15 -25 15 -6 0 -11 5 -11 10 0 6 -10 10 -23 10 -13 0 -27 3 -31
7 -9 9 -38 13 -111 16 -33 1 -63 5 -66 10 -7 10 -190 11 -198 0 -3 -4 -26 -8
-51 -7 -25 0 -51 -4 -57 -9 -7 -5 -13 -7 -13 -4 0 4 -20 -2 -44 -13 -24 -10
-46 -16 -49 -14 -12 12 -23 -59 -21 -141 1 -49 -3 -95 -8 -102 -5 -6 -8 -17
-7 -25 1 -7 1 -23 0 -35 l-1 -22 -37 22 c-21 12 -39 25 -41 29 -2 4 -8 8 -14
8 -16 0 -84 72 -92 98 -4 12 -11 22 -16 22 -5 0 -7 9 -5 20 2 11 0 22 -6 25
-23 15 -3 165 23 165 4 0 8 7 8 15 0 8 12 22 26 32 15 10 37 29 50 42 13 13
24 21 24 17 0 -4 12 2 26 13 15 12 33 21 40 21 8 0 14 4 14 9 0 5 17 12 38 16
20 4 42 10 47 15 15 11 84 22 142 21 29 0 54 3 57 7 6 9 127 5 221 -8z m-15
-302 c0 -4 13 -7 30 -6 16 1 51 -9 78 -22 l49 -24 -1 -216 c-1 -118 2 -223 7
-233 4 -10 8 -184 8 -387 0 -203 3 -371 7 -374 4 -2 7 -176 7 -385 0 -210 3
-381 8 -381 4 0 7 -63 6 -140 -1 -123 -3 -140 -17 -141 -23 -1 -341 -1 -368 0
-21 1 -21 2 -17 234 2 127 5 403 7 613 1 209 6 386 11 393 4 8 7 184 7 392 0
208 3 381 7 383 4 3 6 71 6 153 l-1 148 83 1 c46 0 83 -3 83 -8z m-267 -280
c-2 -150 -5 -444 -7 -653 -1 -209 -7 -396 -11 -415 -4 -19 -7 -205 -6 -412 1
-207 -2 -379 -7 -382 -4 -3 -8 -41 -7 -85 l1 -81 -33 -1 c-18 -1 -42 -1 -53
-1 -11 0 -24 0 -30 1 -12 1 -14 137 -2 144 4 3 7 220 6 484 -1 263 2 483 5
488 3 6 6 228 6 494 1 298 5 486 10 488 6 2 9 44 9 93 -2 87 -1 90 22 96 12 3
26 4 31 1 4 -2 17 -1 28 4 11 4 25 8 31 8 7 1 9 -85 7 -271z m-438 52 c3 -5 1
-10 -4 -10 -6 0 -11 5 -11 10 0 6 2 10 4 10 3 0 8 -4 11 -10z"/>
<path d="M4594 8521 c-4 -5 -69 -15 -159 -26 -81 -9 -100 -12 -115 -18 -18 -6
-66 -17 -95 -20 -11 -2 -24 -5 -30 -9 -12 -7 -96 -23 -107 -20 -5 1 -8 -3 -8
-9 0 -6 -6 -9 -12 -6 -7 2 -31 -2 -53 -10 -22 -8 -44 -16 -50 -17 -5 -1 -14
-4 -20 -7 -8 -5 -55 -19 -75 -23 -3 -1 -11 -5 -17 -9 -7 -5 -18 -5 -23 -2 -6
3 -13 -1 -16 -9 -3 -9 -10 -14 -14 -11 -5 3 -24 -1 -42 -9 -56 -24 -93 -38
-96 -37 -1 1 -16 -6 -32 -14 -16 -8 -31 -14 -32 -13 -2 2 -16 -7 -33 -18 -16
-12 -36 -19 -42 -17 -7 3 -13 0 -13 -6 0 -6 -3 -10 -7 -9 -10 3 -121 -53 -193
-98 -30 -18 -66 -39 -80 -46 -14 -7 -40 -23 -57 -36 -18 -14 -33 -20 -33 -16
0 5 -5 1 -11 -8 -5 -10 -14 -18 -20 -18 -9 0 -88 -51 -120 -78 -46 -39 -78
-62 -83 -62 -3 0 -14 -7 -23 -15 -10 -9 -43 -36 -73 -61 -30 -25 -83 -72 -116
-104 -34 -33 -65 -60 -70 -60 -14 0 -222 -225 -302 -325 -26 -33 -53 -64 -59
-68 -7 -4 -13 -14 -13 -22 0 -7 -12 -23 -26 -34 -15 -12 -23 -21 -18 -21 4 0
-5 -13 -21 -30 -16 -16 -25 -30 -19 -30 5 0 0 -7 -11 -16 -11 -8 -20 -18 -20
-22 -1 -7 -35 -63 -45 -72 -3 -3 -11 -16 -18 -30 -7 -14 -23 -43 -37 -65 -14
-22 -28 -47 -32 -55 -4 -8 -9 -17 -12 -20 -10 -8 -35 -64 -33 -72 1 -5 -2 -8
-7 -8 -5 0 -11 -8 -15 -17 -3 -10 -10 -25 -15 -33 -11 -18 -28 -62 -29 -74 0
-5 -4 -12 -9 -15 -5 -3 -17 -25 -27 -48 -11 -24 -23 -43 -28 -43 -5 0 -6 -5
-2 -11 6 -10 -24 -81 -38 -87 -4 -2 -4 -10 -1 -18 3 -8 0 -14 -5 -14 -6 0 -9
-9 -7 -20 2 -11 0 -20 -6 -20 -5 0 -9 -9 -9 -20 0 -11 -4 -20 -10 -20 -5 0 -9
-3 -8 -7 2 -10 -13 -64 -21 -78 -3 -5 -6 -14 -6 -20 -1 -5 -4 -17 -7 -25 -16
-39 -49 -160 -55 -197 -3 -24 -9 -43 -14 -43 -5 0 -8 -17 -7 -37 1 -20 -3 -38
-9 -40 -5 -2 -8 -15 -5 -28 2 -14 0 -25 -5 -25 -6 0 -9 -16 -8 -36 1 -19 -2
-37 -7 -40 -4 -3 -8 -25 -8 -49 0 -24 -4 -46 -9 -49 -5 -3 -7 -29 -6 -58 2
-29 -1 -57 -5 -63 -4 -5 -6 -37 -6 -70 1 -33 -2 -68 -7 -78 -10 -22 -11 -422
-1 -439 4 -6 9 -48 11 -92 5 -122 18 -236 30 -266 3 -8 7 -28 7 -45 1 -16 5
-36 9 -43 5 -7 7 -22 6 -35 -2 -12 2 -32 9 -43 6 -12 9 -24 5 -27 -3 -4 -1
-12 5 -19 6 -7 10 -15 10 -18 0 -15 15 -86 21 -95 3 -5 6 -17 7 -25 0 -8 3
-22 7 -30 6 -16 30 -100 31 -112 1 -3 4 -10 8 -14 5 -4 8 -16 8 -26 0 -10 5
-18 11 -18 5 0 7 -5 4 -10 -4 -6 -2 -16 3 -23 5 -7 13 -27 17 -46 4 -19 18
-54 31 -79 13 -24 23 -47 22 -50 -1 -4 9 -27 21 -52 13 -25 23 -46 22 -48 -3
-5 53 -117 62 -123 5 -3 8 -8 7 -10 -4 -8 25 -64 46 -94 13 -16 23 -33 23 -38
1 -8 23 -49 51 -92 11 -16 25 -41 32 -55 16 -30 26 -44 58 -80 14 -15 24 -32
22 -39 -2 -6 1 -11 7 -11 7 0 16 -11 21 -25 5 -14 17 -28 25 -31 8 -4 15 -12
15 -18 0 -7 11 -23 25 -36 13 -12 23 -26 20 -30 -2 -3 9 -17 26 -30 16 -14 29
-30 29 -35 0 -6 20 -31 45 -55 24 -24 43 -45 41 -47 -4 -5 283 -293 292 -293
3 0 26 -19 52 -42 87 -78 110 -98 117 -98 3 0 30 -21 59 -46 30 -25 54 -42 54
-38 0 4 11 -3 25 -16 14 -13 25 -19 25 -15 0 5 7 -1 16 -13 8 -12 20 -20 25
-17 5 4 9 3 9 -2 0 -4 23 -21 51 -38 28 -16 57 -35 64 -42 7 -7 24 -15 39 -19
14 -3 26 -10 26 -14 0 -5 28 -22 63 -39 34 -17 69 -35 77 -40 34 -20 209 -102
265 -124 33 -13 69 -28 80 -32 11 -5 23 -9 27 -9 3 -1 10 -4 14 -9 4 -4 18 -7
31 -7 12 0 23 -4 23 -8 0 -4 10 -8 22 -9 12 -1 33 -6 47 -12 30 -10 60 -20 64
-20 1 0 27 -9 59 -20 31 -11 59 -17 62 -14 3 4 6 1 6 -6 0 -7 8 -11 18 -10 9
1 35 -3 57 -9 22 -6 54 -14 70 -17 155 -33 175 -35 176 -16 0 9 1 31 2 49 1
22 -3 32 -13 34 -22 2 -33 4 -50 11 -19 7 -66 17 -105 21 -16 2 -32 5 -35 6
-3 2 -9 4 -15 5 -24 4 -71 17 -85 23 -8 3 -19 7 -25 8 -5 1 -12 3 -15 4 -3 1
-14 4 -25 5 -17 2 -120 35 -165 52 -8 4 -17 7 -20 7 -3 1 -9 4 -15 7 -5 4 -25
10 -42 14 -18 3 -33 11 -33 16 0 6 -6 9 -12 8 -20 -2 -58 12 -58 22 0 5 -7 6
-15 3 -8 -4 -15 -1 -15 5 0 6 -7 11 -15 11 -9 0 -57 21 -108 47 -50 26 -94 47
-97 48 -3 1 -29 13 -57 28 -29 15 -55 27 -58 27 -3 0 -12 5 -21 12 -33 29 -40
33 -54 36 -7 2 -19 11 -27 20 -7 9 -13 13 -13 8 0 -4 -15 3 -34 17 -18 15 -36
23 -40 20 -3 -3 -8 2 -12 11 -3 9 -10 16 -15 16 -12 0 -90 55 -124 88 -8 6
-18 12 -22 12 -5 0 -22 13 -38 30 -16 16 -31 28 -33 25 -3 -2 -17 9 -32 25
-16 17 -31 30 -36 30 -13 0 -184 159 -184 171 0 7 410 419 416 419 2 0 15 -10
30 -23 14 -12 28 -22 32 -22 3 0 26 -21 51 -47 25 -27 51 -48 58 -48 6 0 18
-8 25 -17 14 -20 93 -83 103 -83 3 0 11 -5 18 -10 42 -36 107 -80 107 -73 0 4
6 1 13 -8 11 -14 32 -26 50 -27 5 0 17 -10 26 -21 10 -12 25 -21 33 -21 8 0
24 -9 36 -20 12 -11 24 -20 27 -20 3 0 33 -14 68 -32 34 -18 64 -33 67 -33 16
-5 48 -18 71 -31 14 -7 29 -11 33 -7 3 3 6 1 6 -5 0 -7 11 -12 24 -12 13 0 26
-4 28 -9 2 -6 26 -16 53 -23 28 -7 53 -16 56 -21 3 -4 10 -7 15 -6 5 1 17 -1
27 -4 57 -22 56 -22 97 -32 52 -14 106 -26 122 -29 10 -1 21 -5 24 -9 13 -13
42 -7 49 11 25 57 8 85 -55 96 -14 3 -25 5 -25 7 0 1 -9 3 -20 5 -11 1 -49 12
-84 23 -35 11 -68 18 -73 15 -4 -3 -8 0 -8 5 0 6 -8 11 -18 11 -10 0 -22 3
-26 7 -3 4 -12 8 -19 9 -7 1 -29 9 -49 18 -21 9 -38 13 -38 9 0 -5 -4 -3 -8 2
-7 10 -59 38 -74 39 -3 1 -10 4 -14 8 -4 5 -13 8 -21 8 -7 0 -31 11 -53 25
-22 14 -40 23 -40 20 0 -3 -18 6 -40 20 -22 14 -40 23 -40 20 0 -3 -20 8 -44
25 -25 16 -47 30 -51 30 -7 0 -68 42 -76 53 -3 5 -10 8 -14 7 -7 -2 -72 42
-100 68 -7 6 -18 12 -22 12 -5 0 -22 13 -38 30 -16 16 -30 28 -32 26 -7 -7
-183 157 -182 171 0 4 14 19 31 33 31 24 31 24 26 3 -8 -31 11 -37 140 -38 86
-1 115 2 119 11 10 26 63 43 133 43 38 0 77 4 87 9 10 5 24 7 30 5 21 -8 35
44 23 88 -6 21 -16 39 -22 39 -6 0 -9 3 -5 6 3 3 21 -6 40 -20 19 -14 39 -26
45 -26 6 0 12 -3 14 -7 4 -10 52 -43 106 -73 23 -13 42 -27 42 -32 0 -4 3 -7
8 -6 14 4 52 -13 52 -23 0 -6 5 -7 11 -3 6 3 14 3 18 -2 7 -10 60 -38 76 -39
6 -1 25 -9 42 -18 18 -10 34 -17 35 -16 2 0 17 -5 33 -12 17 -7 36 -11 43 -10
6 1 12 -2 12 -7 0 -5 6 -9 13 -10 15 -1 37 -7 57 -15 17 -7 39 -10 56 -8 6 0
10 20 10 44 -1 40 -3 43 -46 64 -25 12 -47 19 -49 17 -2 -2 -10 1 -17 6 -6 6
-16 10 -20 8 -5 -1 -19 3 -31 10 -13 7 -23 10 -23 7 0 -3 -25 8 -55 25 -30 17
-55 28 -55 25 0 -3 -15 2 -32 12 -18 9 -36 16 -40 15 -5 -1 -8 2 -8 7 0 5 -21
20 -47 33 -27 13 -54 29 -61 35 -7 7 -24 16 -37 19 -13 3 -26 12 -29 20 -3 8
-11 14 -17 14 -6 0 -33 18 -59 40 -26 22 -51 40 -55 40 -4 0 -34 27 -67 60
-33 33 -64 57 -69 54 -5 -3 -9 1 -9 9 0 8 79 93 175 188 162 160 191 198 165
214 -5 3 -7 11 -4 18 2 7 -1 20 -8 30 -12 15 -34 -3 -208 -177 l-196 -194 -40
38 c-40 37 -40 37 -25 69 8 17 18 31 23 31 14 0 9 37 -7 50 -8 7 -15 23 -15
36 0 13 -4 24 -10 24 -5 0 -7 7 -4 15 4 8 1 15 -5 15 -6 0 -11 6 -11 13 0 7
-9 20 -20 30 -16 13 -20 29 -20 78 0 33 -4 68 -9 78 -11 20 -4 35 21 44 19 7
19 29 0 64 -7 12 -12 33 -12 48 0 15 -5 25 -12 24 -42 -5 -48 1 -45 41 2 22 0
40 -5 40 -4 0 -8 23 -8 50 0 36 -4 52 -15 56 -8 4 -15 15 -15 25 0 10 -5 19
-10 19 -6 0 -13 8 -17 18 -6 17 -13 26 -51 68 -20 22 -22 45 -8 77 5 9 5 25 0
35 -4 9 -8 20 -8 24 -1 3 -4 10 -8 14 -11 11 -10 44 2 45 6 1 25 2 43 3 19 1
31 7 30 14 -2 7 6 12 16 12 23 0 30 16 27 67 -2 36 17 73 28 55 4 -7 81 -9 81
-2 0 2 32 4 72 5 66 3 73 1 80 -18 11 -35 3 -58 -33 -94 -44 -43 -45 -80 -1
-96 10 -4 15 -11 12 -17 -4 -7 -12 -7 -25 0 -27 14 -30 13 -30 -14 0 -16 7
-26 21 -29 16 -4 19 -9 11 -24 -11 -22 -5 -43 13 -43 20 0 30 21 14 31 -11 7
-9 10 8 15 12 3 19 12 17 19 -5 12 20 45 35 45 3 0 6 -12 5 -27 -1 -16 2 -32
6 -38 9 -13 24 -67 21 -79 -1 -4 5 -19 14 -32 8 -13 15 -32 15 -44 0 -11 5
-20 11 -20 6 0 9 -6 6 -12 -2 -7 7 -32 20 -55 14 -24 22 -43 18 -43 -3 0 1 -7
9 -16 9 -8 16 -22 16 -29 0 -8 6 -18 13 -22 6 -4 20 -24 29 -44 9 -20 31 -53
48 -73 18 -20 29 -36 25 -36 -5 0 2 -9 15 -20 30 -26 40 -25 41 3 0 12 1 44 2
70 2 34 -3 54 -15 67 -21 23 -56 78 -64 103 -4 9 -11 17 -17 17 -6 0 -7 3 -4
6 4 4 -3 20 -14 35 -11 16 -17 29 -13 29 3 0 0 7 -7 17 -8 9 -13 17 -11 17 2
1 -2 15 -9 31 -7 17 -13 32 -14 35 0 3 -6 21 -13 41 -7 20 -15 45 -17 55 -2
10 -7 29 -11 42 -7 25 1 28 21 9 13 -13 130 -15 142 -3 3 3 5 30 4 60 0 30 3
57 8 61 6 3 8 14 6 25 -5 28 45 154 68 171 5 3 8 8 7 10 -3 7 35 69 42 69 4 0
18 15 30 34 13 19 52 56 87 82 34 26 65 54 68 63 11 35 78 161 85 161 5 0 8 6
8 13 0 13 82 97 94 97 4 0 18 10 32 23 l25 23 -173 173 -172 173 36 34 c20 19
40 34 45 34 5 0 15 9 23 20 8 11 18 20 23 20 9 0 69 41 78 54 4 5 12 5 18 2 6
-4 11 -3 11 3 0 5 39 29 88 52 104 50 90 44 130 54 19 4 36 13 38 19 8 21 11
87 4 91 -6 4 -28 -2 -90 -20 -13 -4 -49 -19 -87 -36 -24 -10 -47 -19 -53 -19
-5 0 -10 -4 -10 -8 0 -5 -17 -16 -37 -25 -21 -9 -53 -26 -70 -37 -18 -11 -33
-16 -33 -13 0 4 -7 -3 -16 -15 -8 -12 -19 -20 -23 -17 -5 2 -17 -7 -27 -20
-10 -14 -23 -25 -28 -25 -13 0 -85 -68 -78 -74 3 -3 2 -6 -2 -6 -15 0 -436
424 -436 439 0 8 3 11 7 8 3 -4 32 17 62 46 76 70 109 97 121 97 5 0 13 6 17
13 11 17 88 68 136 89 15 7 27 16 27 20 0 6 47 31 80 43 3 1 48 23 101 48 53
26 103 47 111 47 8 0 18 3 22 7 3 4 12 8 19 9 7 1 31 9 54 17 22 9 44 13 47
10 3 -4 6 -2 6 4 0 11 40 23 129 37 43 6 49 13 54 58 5 43 -5 64 -24 52 -8 -5
-25 -9 -39 -10 -14 0 -32 -3 -40 -7 -26 -10 -124 -32 -137 -31 -7 1 -13 -2
-13 -6 0 -7 -20 -15 -65 -26 -5 -1 -23 -8 -40 -15 -16 -7 -32 -13 -35 -13 -3
-1 -11 -5 -17 -9 -7 -5 -13 -6 -13 -2 0 3 -13 -1 -30 -10 -16 -8 -33 -15 -36
-14 -4 0 -10 -3 -13 -8 -3 -4 -44 -28 -91 -51 -96 -49 -143 -74 -150 -82 -3
-4 -37 -27 -77 -53 -39 -26 -94 -68 -122 -93 -28 -25 -51 -43 -51 -39 0 4 -17
-11 -38 -33 l-39 -40 -189 189 -189 190 41 37 c57 52 129 114 156 134 13 9 37
29 54 43 18 14 37 25 43 25 6 0 11 4 11 8 0 5 30 28 68 52 37 23 78 50 92 59
14 9 44 25 67 36 24 11 43 23 43 26 0 3 19 14 43 25 23 10 45 22 48 27 3 5 10
9 15 9 5 1 25 8 44 16 19 8 40 15 46 16 6 1 23 10 37 19 15 10 27 15 27 12 0
-3 13 1 29 10 17 8 38 17 48 18 10 2 31 9 46 15 16 7 34 12 42 12 8 0 17 5 20
10 4 6 10 8 15 5 5 -3 11 -1 15 5 3 5 19 10 36 10 16 0 29 4 29 9 0 5 8 8 18
6 9 -1 22 1 27 5 6 4 17 7 25 8 8 0 35 6 60 14 25 8 55 14 68 13 12 -1 22 2
22 6 0 4 19 7 41 7 23 0 44 4 48 9 3 6 14 9 25 7 10 -1 28 7 40 19 12 12 39
33 59 47 47 32 49 52 5 44 -18 -3 -62 -9 -98 -14 -36 -5 -83 -12 -105 -15 -22
-3 -52 -6 -67 -7 -16 -1 -28 -6 -28 -10 0 -4 -13 -8 -29 -8 -17 0 -32 -4 -35
-9 -4 -5 -14 -8 -24 -6 -9 1 -23 -2 -29 -7 -7 -6 -19 -8 -27 -5 -8 3 -20 -1
-26 -8 -7 -8 -16 -12 -22 -9 -5 3 -15 1 -22 -5 -8 -7 -18 -11 -22 -10 -17 3
-74 -14 -74 -22 0 -4 -9 -6 -20 -4 -11 2 -20 0 -20 -4 0 -5 -12 -12 -27 -15
-28 -7 -38 -11 -138 -56 -27 -13 -59 -24 -69 -25 -11 -1 -22 -7 -24 -13 -2 -7
-12 -12 -23 -12 -10 0 -19 -4 -19 -10 0 -5 -7 -10 -15 -10 -8 0 -44 -18 -79
-39 -35 -22 -66 -38 -68 -35 -3 2 -13 -5 -23 -16 -10 -11 -22 -20 -27 -20 -5
0 -28 -13 -51 -29 -23 -16 -46 -30 -52 -31 -5 -1 -20 -13 -32 -26 -12 -13 -26
-24 -31 -24 -5 0 -15 -7 -22 -15 -7 -9 -15 -14 -17 -11 -3 2 -17 -9 -32 -25
-16 -16 -33 -29 -39 -29 -6 0 -18 -10 -26 -21 -8 -12 -27 -30 -43 -40 -15 -10
-48 -39 -73 -63 l-46 -45 -213 213 -213 213 67 66 c37 37 71 67 75 67 4 0 25
17 48 38 53 48 85 74 152 122 30 21 75 54 100 73 44 33 104 68 115 67 4 -1 15
9 25 22 11 13 19 19 20 14 0 -4 15 3 34 18 19 14 39 26 45 26 6 0 11 5 11 12
0 6 3 9 6 5 8 -8 84 33 84 45 0 6 7 8 15 4 8 -3 15 -2 15 2 0 9 70 42 88 42 7
0 12 4 12 10 0 5 3 9 8 9 13 -3 72 23 72 32 0 4 7 6 15 3 8 -4 15 -2 15 4 0 5
16 13 35 16 19 4 35 12 35 18 0 6 9 8 20 5 11 -3 20 -2 20 3 0 4 16 11 35 14
19 4 35 11 35 15 0 5 17 12 37 16 21 4 42 10 48 13 5 4 15 8 20 9 6 1 28 7 50
13 22 6 45 12 50 13 6 1 15 5 20 8 14 9 87 23 103 20 6 -1 12 3 12 9 0 7 8 9
19 5 11 -3 22 -1 26 5 3 5 21 10 39 10 18 0 36 3 40 7 7 7 23 10 104 17 23 2
48 8 55 13 6 5 26 8 42 6 17 -1 37 1 45 4 8 4 40 7 70 8 31 0 60 4 65 7 9 5
12 45 6 83 -1 10 -118 15 -127 6z m-1779 -1311 l210 -210 -65 -65 c-35 -36
-61 -65 -56 -65 4 0 -6 -12 -23 -27 -17 -15 -31 -32 -31 -38 0 -6 -14 -23 -30
-37 -17 -15 -31 -31 -32 -35 -1 -13 -31 -57 -52 -75 -10 -10 -16 -18 -13 -18
5 0 -22 -46 -50 -86 -19 -25 -35 -52 -56 -94 -12 -25 -25 -46 -29 -48 -7 -4
-65 -121 -70 -142 -2 -8 -5 -17 -8 -20 -11 -11 -50 -101 -50 -115 0 -8 -4 -15
-10 -15 -5 0 -9 -3 -8 -7 0 -5 -2 -16 -5 -25 -25 -65 -28 -77 -30 -100 -1 -10
-5 -18 -9 -18 -4 0 -8 -9 -8 -19 0 -11 -5 -23 -10 -26 -6 -4 -8 -10 -5 -15 3
-5 1 -17 -4 -27 -5 -10 -13 -31 -17 -48 -9 -35 -9 -35 -18 -56 -4 -9 -6 -20
-5 -25 3 -16 -13 -94 -20 -94 -4 0 -7 -17 -6 -37 0 -21 -3 -42 -6 -48 -8 -12
-17 -78 -23 -155 -2 -30 -5 -55 -6 -55 -3 0 -5 -57 -9 -185 l-1 -25 -305 0
c-264 0 -305 2 -306 15 -3 47 -1 137 4 150 6 14 13 92 20 210 1 25 6 50 10 57
4 6 6 25 5 40 -1 16 2 35 7 43 4 7 9 25 11 39 1 14 5 40 8 56 4 17 9 47 12 68
4 20 10 37 15 37 5 0 7 13 4 29 -3 17 -1 32 4 35 9 6 27 83 23 99 -1 4 3 7 9
7 6 0 9 6 6 14 -3 8 1 20 8 26 8 7 12 16 9 22 -3 5 0 15 6 23 7 8 9 15 5 15
-4 0 -2 6 4 14 6 8 11 18 10 22 -2 8 1 19 18 62 4 9 7 22 8 28 0 6 7 21 16 35
9 13 15 32 13 42 -1 9 2 17 6 17 5 0 12 10 15 23 4 12 15 40 25 62 10 22 18
44 18 49 0 5 4 12 9 15 5 3 37 62 71 131 34 69 81 154 103 190 65 102 78 124
86 140 4 8 17 24 30 36 12 11 20 24 16 27 -3 4 -1 7 5 7 6 0 14 9 17 20 4 12
16 30 28 41 12 11 22 23 22 27 0 4 10 19 22 32 67 75 103 118 103 123 0 9 124
135 135 136 6 0 105 -93 220 -209z m647 -664 c-3 -6 -20 -26 -37 -44 -16 -18
-42 -47 -57 -63 -16 -17 -28 -33 -28 -36 0 -6 -39 -56 -70 -90 -12 -13 -18
-23 -15 -23 3 0 -6 -16 -21 -35 -14 -19 -24 -35 -20 -35 3 0 -3 -9 -14 -20
-12 -12 -18 -25 -15 -30 4 -6 1 -10 -4 -10 -6 0 -11 -6 -11 -14 0 -8 -7 -17
-16 -20 -9 -4 -14 -9 -11 -12 3 -4 -5 -24 -19 -45 -13 -21 -21 -39 -18 -39 4
0 -1 -9 -11 -20 -10 -11 -15 -20 -10 -20 4 0 3 -6 -3 -12 -6 -7 -11 -17 -12
-23 -1 -5 -10 -28 -20 -50 -21 -47 -32 -76 -35 -90 -1 -5 -3 -12 -4 -15 -2 -3
-4 -12 -6 -20 -2 -8 -9 -28 -16 -45 -7 -16 -14 -34 -14 -40 -1 -5 -5 -17 -9
-26 -4 -9 -6 -20 -5 -25 1 -5 0 -16 -4 -24 -7 -19 -20 -70 -24 -95 -1 -11 -7
-47 -13 -80 -6 -33 -11 -86 -12 -117 0 -32 -5 -58 -10 -58 -5 0 -8 -22 -6 -50
3 -29 0 -54 -6 -58 -6 -5 -126 -8 -266 -8 l-255 1 2 90 c1 105 8 185 23 275 6
36 11 75 11 88 -1 12 4 22 9 22 5 0 10 10 9 23 0 20 9 63 26 127 4 14 9 37 12
53 3 15 10 27 15 27 5 0 6 5 3 10 -4 6 -2 16 3 23 6 7 13 29 17 50 4 20 11 37
17 37 5 0 6 5 3 10 -4 6 0 21 8 33 14 23 32 76 29 90 -1 4 2 7 7 7 8 0 21 26
26 50 5 24 18 50 26 50 5 0 8 3 8 8 -3 13 23 72 32 72 4 0 6 7 3 15 -4 8 -2
15 4 15 6 0 15 12 21 28 6 15 27 52 46 82 20 30 40 65 45 78 5 12 14 22 20 22
6 0 9 4 5 9 -3 5 4 16 15 24 11 7 17 17 14 20 -4 3 6 17 21 31 16 15 24 26 19
26 -5 1 0 8 11 18 11 9 26 29 34 43 7 15 24 32 37 39 13 7 21 17 17 23 -3 5
16 31 43 57 27 26 57 60 68 75 l19 27 188 -188 c103 -103 185 -192 181 -198z
m297 -280 c183 -182 209 -212 198 -225 -7 -9 -26 -32 -43 -51 -16 -20 -38 -49
-49 -64 -11 -16 -24 -34 -30 -40 -17 -20 -35 -50 -41 -68 -4 -10 -10 -18 -15
-18 -5 0 -9 -3 -8 -7 3 -21 -16 -56 -35 -64 -11 -5 -28 -13 -36 -18 -20 -13
-53 -25 -63 -22 -4 0 -10 -6 -13 -14 -4 -8 -15 -15 -25 -15 -10 0 -19 -4 -19
-9 0 -5 20 -8 44 -6 31 2 46 -1 50 -11 6 -16 -7 -25 -43 -30 -51 -7 -86 -17
-101 -29 -8 -7 -30 -12 -47 -12 -37 0 -73 -27 -73 -56 0 -10 -11 -33 -25 -49
-14 -16 -23 -34 -19 -39 3 -5 1 -9 -5 -9 -5 0 -8 -8 -7 -17 2 -9 -5 -24 -14
-33 -12 -12 -16 -29 -14 -53 3 -26 -2 -43 -19 -64 -13 -15 -22 -35 -22 -43 3
-39 -19 -45 -157 -45 l-133 0 -3 59 c-2 32 1 63 6 69 5 7 8 35 7 62 -1 28 2
55 6 60 4 6 7 19 5 30 -1 10 3 30 10 43 7 14 10 31 7 38 -3 8 0 20 6 27 6 8 9
23 6 35 -2 12 0 22 6 22 5 0 9 14 9 30 0 17 5 30 11 30 5 0 8 4 5 9 -5 7 4 37
30 106 4 11 8 25 9 30 0 6 7 21 15 35 8 14 15 30 16 35 4 26 17 55 25 55 5 0
8 3 7 8 -3 12 63 144 90 180 13 17 20 32 16 32 -5 1 1 9 14 20 13 10 22 20 21
22 -3 4 50 89 71 113 10 11 39 44 65 73 26 28 44 52 39 52 -5 0 4 11 20 25 16
14 31 24 32 23 2 -2 98 -97 213 -212z m472 -470 c152 -151 148 -140 44 -123
-11 2 -28 -1 -38 -5 -17 -9 -24 -5 -94 52 -7 6 -19 10 -28 10 -9 0 -14 4 -11
9 4 5 -7 15 -24 23 -16 7 -30 17 -30 21 0 5 -4 6 -9 2 -5 -3 -12 -1 -16 5 -3
5 -19 10 -35 10 -16 0 -32 -5 -35 -10 -4 -6 -11 -8 -16 -5 -5 4 -9 1 -9 -4 0
-6 -5 -11 -12 -11 -6 0 -20 -7 -30 -17 -27 -24 -22 0 6 30 13 14 22 28 20 30
-3 2 2 10 11 17 8 7 15 17 15 22 0 5 12 20 26 33 15 14 23 25 18 25 -4 0 7 16
26 35 l34 35 24 -23 c13 -12 87 -84 163 -161z m-707 -493 c4 -4 21 -8 38 -9
17 -1 34 -8 38 -15 11 -17 6 -68 -9 -99 -12 -24 -16 -26 -94 -25 -69 1 -82 3
-85 18 -2 9 -7 17 -11 17 -18 0 -3 53 24 85 22 25 38 35 61 35 17 0 34 -3 38
-7z m-1263 -267 c0 -12 1 -58 1 -103 0 -46 4 -83 8 -83 5 0 7 -27 6 -61 -1
-33 1 -62 6 -65 4 -3 8 -23 8 -44 0 -21 4 -41 9 -44 5 -3 7 -20 6 -38 -2 -18
2 -39 7 -45 6 -7 8 -22 5 -33 -3 -11 -1 -20 4 -20 5 0 9 -11 9 -24 0 -14 5
-28 10 -31 6 -4 10 -14 9 -23 -1 -10 3 -28 8 -42 6 -15 7 -26 1 -28 -5 -2 -3
-11 4 -19 26 -31 18 -43 -28 -43 -33 0 -44 4 -44 15 0 10 -7 15 -17 13 -12 -2
-19 4 -21 20 -3 17 -10 22 -31 22 -16 0 -34 -7 -41 -15 -7 -8 -25 -15 -41 -15
-22 0 -29 -5 -29 -18 0 -11 -9 -27 -20 -37 -16 -15 -22 -15 -35 -5 -15 13 -21
41 -7 39 4 -1 10 0 15 1 4 1 13 3 20 4 6 0 12 10 12 21 0 15 -9 21 -38 26 -21
3 -40 2 -43 -2 -3 -5 -17 -6 -33 -3 -20 4 -30 1 -34 -10 -4 -9 -16 -16 -27
-16 -14 0 -20 -7 -20 -23 0 -15 -9 -29 -24 -37 l-25 -13 20 -38 c11 -22 16
-39 12 -39 -15 0 -31 -48 -20 -59 6 -6 12 -27 13 -48 5 -70 9 -88 23 -99 8 -6
14 -25 13 -42 0 -17 6 -36 14 -43 8 -6 14 -22 14 -34 0 -25 18 -33 61 -27 24
4 26 7 23 45 -1 23 -6 52 -9 64 -18 56 46 26 91 -43 18 -27 74 -35 74 -10 0 7
7 19 15 26 12 10 15 10 15 -3 0 -8 7 -17 15 -21 8 -3 14 -9 13 -13 -5 -15 43
-58 65 -59 48 -3 49 -4 45 -29 -4 -18 -1 -25 11 -26 55 -4 74 -19 86 -69 10
-40 55 -100 75 -100 5 0 10 -3 10 -7 0 -11 52 -10 68 1 14 8 41 -18 42 -41 0
-17 70 -87 100 -99 14 -6 35 -10 48 -8 12 2 22 -1 22 -8 0 -6 3 -9 6 -6 6 7
74 -53 74 -65 0 -4 27 -36 60 -69 32 -34 57 -65 54 -70 -3 -4 0 -8 7 -8 6 0
-85 -96 -202 -214 -193 -193 -239 -230 -239 -192 0 6 -29 40 -64 75 -36 36
-64 67 -63 70 1 4 -13 22 -31 41 -48 53 -122 148 -122 160 0 5 -9 15 -20 22
-11 7 -20 16 -20 21 0 7 -32 56 -55 83 -5 7 -23 36 -40 64 -16 29 -38 61 -47
71 -10 11 -16 19 -13 19 5 0 -51 109 -90 175 -13 21 -21 43 -19 47 3 4 0 8 -5
8 -6 0 -11 6 -11 14 0 8 -13 39 -30 71 -16 31 -29 59 -28 63 1 4 -6 22 -15 39
-10 18 -17 34 -17 35 -1 18 -14 48 -22 48 -5 0 -6 5 -3 10 3 6 3 16 -2 23 -4
6 -8 14 -9 17 -1 3 -5 20 -9 38 -4 18 -12 35 -16 38 -5 3 -7 9 -4 14 3 4 -2
21 -10 36 -8 16 -15 36 -15 45 0 9 -3 19 -7 23 -5 4 -8 11 -8 14 -2 30 -17 82
-24 82 -4 0 -8 15 -8 33 -1 17 -6 50 -13 72 -6 22 -12 52 -13 68 0 15 -5 27
-10 27 -5 0 -7 7 -3 15 3 8 1 28 -5 43 -6 15 -11 46 -10 69 0 23 -4 45 -8 48
-5 3 -8 25 -6 50 1 25 -1 48 -6 50 -4 3 -8 41 -8 86 0 44 -4 85 -7 91 -10 16
-11 122 -1 129 5 3 143 6 308 6 296 0 299 0 300 -21z m630 -5 c1 -14 0 -36 -1
-48 -1 -13 2 -28 7 -35 11 -19 12 -101 0 -115 -5 -7 -23 -13 -39 -13 -16 0
-27 -4 -23 -9 8 -14 -16 -60 -35 -66 -16 -5 -34 -38 -31 -56 0 -4 -11 -10 -24
-13 -14 -4 -24 -10 -23 -14 1 -4 -4 -20 -11 -37 -21 -50 -35 -193 -21 -210 6
-7 3 -24 -8 -47 -16 -34 -41 -52 -69 -49 -7 1 -13 -5 -13 -14 0 -21 -102 -21
-120 0 -7 9 -10 18 -7 21 3 3 -2 25 -12 47 -9 23 -16 49 -16 57 1 8 -2 20 -6
25 -8 11 -24 96 -21 109 2 4 -2 13 -7 20 -6 7 -10 21 -10 31 0 11 -5 45 -11
75 -6 30 -12 80 -13 110 -2 30 -5 60 -9 65 -6 11 -8 176 -2 186 1 3 120 6 264
6 l260 0 1 -26z m319 19 c0 -4 -9 -18 -19 -32 -11 -13 -18 -33 -17 -44 2 -10
-4 -24 -12 -30 -16 -12 -21 -26 -29 -86 -5 -34 -3 -38 16 -38 29 0 26 -23 -8
-58 l-29 -29 -27 29 c-15 15 -35 28 -45 28 -22 0 -34 29 -35 82 0 20 -3 40 -7
44 -5 4 -8 37 -8 74 l0 67 110 0 c61 0 110 -3 110 -7z m-122 -1694 c38 -31 40
-35 26 -54 -15 -21 -15 -21 -54 16 -41 38 -49 57 -27 65 6 3 13 6 14 6 0 1 19
-14 41 -33z"/>
<path d="M2020 3750 c-10 -7 -12 -12 -4 -17 6 -5 18 -21 27 -38 9 -17 17 -24
18 -15 3 28 -3 45 -17 53 -8 5 -12 12 -9 18 8 11 4 11 -15 -1z"/>
<path d="M2190 3585 c0 -18 47 -101 73 -128 28 -30 30 -31 37 -12 4 11 3 22
-1 23 -5 2 -9 9 -9 16 0 7 -9 21 -20 31 -11 10 -20 24 -20 31 0 7 -10 20 -22
28 -23 16 -38 20 -38 11z"/>
<path d="M5298 8482 c-4 -50 1 -55 57 -59 62 -5 106 -10 155 -19 25 -4 49 -7
54 -6 4 2 14 -2 20 -7 7 -6 22 -9 34 -6 12 2 24 0 27 -6 4 -5 21 -9 40 -9 19
0 36 -4 40 -10 3 -5 12 -7 20 -3 9 3 21 0 29 -6 8 -7 18 -11 22 -10 9 2 58 -8
84 -18 23 -9 31 -11 80 -23 25 -6 54 -14 65 -19 37 -17 60 -24 69 -22 4 1 14
-4 22 -10 8 -6 14 -8 14 -5 0 4 10 0 22 -8 12 -9 33 -16 45 -16 13 0 23 -4 23
-10 0 -5 3 -9 8 -8 4 0 15 -2 25 -5 27 -11 47 -17 50 -15 1 1 20 -10 42 -23
22 -14 59 -31 83 -39 23 -7 42 -16 42 -19 0 -7 63 -33 67 -29 1 2 12 -6 25
-17 13 -12 37 -27 53 -35 17 -8 45 -25 63 -38 17 -14 32 -21 32 -16 0 4 11 -3
25 -16 14 -13 25 -20 25 -16 0 4 6 2 13 -4 6 -5 37 -27 67 -47 30 -20 58 -41
62 -47 4 -6 11 -11 15 -11 13 -1 67 -39 81 -57 7 -10 17 -16 22 -13 4 3 19 -7
32 -22 13 -16 35 -34 49 -42 15 -7 33 -24 40 -37 7 -13 18 -24 25 -24 7 0 43
-30 80 -66 l67 -66 -185 -185 c-111 -111 -190 -183 -197 -179 -6 4 -8 13 -4
19 4 7 9 22 11 34 2 19 -3 22 -34 25 -30 2 -41 9 -54 33 -9 17 -15 42 -14 57
4 28 -31 73 -48 62 -4 -3 -11 3 -15 13 -4 10 -15 24 -24 31 -10 7 -19 22 -21
34 -2 17 -10 22 -40 22 -27 1 -42 8 -58 29 -12 15 -18 27 -14 27 5 0 -1 7 -12
15 -12 8 -32 12 -45 10 -13 -3 -40 4 -61 15 -21 11 -38 17 -38 14 0 -4 -7 -1
-16 7 -9 7 -18 9 -22 3 -4 -5 -16 -9 -27 -8 -11 0 -31 -6 -45 -15 -42 -25
-117 -21 -184 12 -33 16 -64 30 -70 31 -6 1 -27 11 -46 21 -19 11 -39 18 -44
17 -4 -2 -14 3 -22 9 -8 7 -17 9 -21 5 -3 -3 -14 1 -23 9 -9 8 -26 16 -38 18
-12 2 -25 6 -28 10 -4 4 -16 7 -26 7 -10 0 -18 4 -18 9 0 5 -9 7 -20 4 -12 -3
-20 0 -20 8 0 7 -3 10 -6 7 -3 -3 -29 1 -57 9 -29 8 -61 16 -72 17 -11 2 -27
6 -35 9 -23 8 -73 20 -95 22 -11 1 -22 3 -25 5 -3 2 -21 4 -41 5 -19 1 -40 4
-45 7 -11 7 -47 11 -87 9 -23 -1 -28 -5 -25 -22 2 -12 12 -27 23 -33 11 -6 29
-21 40 -33 15 -17 32 -23 63 -23 23 0 42 -4 42 -9 0 -5 14 -7 30 -6 17 1 30
-1 30 -6 0 -5 17 -8 37 -7 20 1 38 -3 40 -9 2 -6 13 -9 23 -6 11 3 20 1 20 -5
0 -6 9 -9 20 -7 11 2 22 0 25 -6 4 -5 19 -9 34 -9 15 0 31 -3 35 -7 4 -5 11
-8 14 -9 38 -6 72 -18 72 -25 0 -5 7 -6 15 -3 8 3 22 -1 30 -10 9 -9 24 -16
34 -16 10 0 21 -3 25 -7 4 -5 11 -8 14 -9 34 -4 175 -76 164 -83 -14 -8 -12
-51 3 -52 5 -1 15 -2 20 -4 6 -1 15 -3 21 -3 7 -1 14 -11 17 -23 3 -12 10 -19
15 -16 12 8 40 -27 48 -60 4 -16 10 -33 15 -38 4 -6 7 -26 7 -45 -1 -26 6 -40
29 -59 29 -26 35 -53 19 -92 -4 -9 -1 -23 6 -30 20 -20 30 -49 31 -86 0 -41
-6 -48 -50 -48 -32 0 -37 4 -60 50 -14 27 -37 59 -51 70 -14 11 -40 32 -58 48
-34 29 -74 36 -74 13 0 -8 -6 -16 -12 -19 -23 -7 12 -37 43 -37 16 0 29 -4 29
-8 0 -5 9 -18 21 -31 l21 -22 -23 -20 c-18 -16 -21 -24 -13 -37 6 -9 21 -18
33 -20 19 -3 26 -14 22 -36 -1 -5 11 -22 26 -38 18 -19 22 -27 10 -23 -9 4
-17 11 -17 15 0 4 -8 10 -17 14 -26 8 -57 29 -66 44 -5 7 -12 10 -18 7 -5 -4
-9 -2 -9 3 0 4 -20 19 -45 31 -37 19 -44 26 -34 37 6 7 16 11 23 7 22 -15 42
-12 54 8 11 17 9 23 -12 44 -25 25 -79 34 -90 16 -4 -5 -14 -8 -24 -6 -9 1
-24 -4 -33 -12 -18 -15 -69 -9 -69 9 0 5 -3 7 -8 4 -4 -2 -30 6 -57 19 -27 13
-52 22 -56 20 -4 -3 -12 2 -19 10 -6 7 -17 12 -25 9 -7 -3 -16 -1 -19 5 -4 6
-13 8 -21 4 -8 -3 -15 -1 -15 5 0 5 -15 13 -32 17 -39 9 -47 12 -50 15 -2 1
-12 4 -23 6 -11 2 -38 8 -60 14 -22 6 -51 12 -65 13 -14 1 -30 5 -36 9 -17 11
-20 3 -16 -46 4 -41 7 -45 35 -52 18 -4 35 -7 40 -6 4 1 7 -2 7 -7 0 -5 8 -8
18 -6 9 1 26 -2 37 -8 11 -6 27 -12 35 -13 42 -6 120 -32 135 -44 7 -6 17 -10
21 -8 5 1 20 -4 34 -12 14 -8 30 -15 36 -16 16 -3 205 -95 234 -115 14 -9 52
-34 85 -55 33 -21 64 -44 68 -51 4 -7 14 -13 22 -13 13 0 50 -39 57 -61 2 -6
10 -11 18 -13 32 -6 48 -18 43 -32 -3 -8 8 -20 31 -31 20 -9 36 -19 36 -23 0
-10 -416 -420 -426 -420 -5 0 -27 18 -49 40 -21 22 -41 38 -43 35 -2 -2 -14 7
-27 21 -12 13 -26 24 -30 24 -5 0 -24 12 -44 27 -20 16 -39 27 -43 25 -5 -1
-8 2 -8 8 0 6 -3 9 -7 8 -5 -1 -54 21 -110 49 -56 28 -104 48 -107 45 -3 -2
-21 3 -40 12 -52 25 -56 22 -56 -43 0 -53 2 -59 19 -54 10 3 22 0 25 -6 4 -5
13 -8 21 -4 8 3 15 0 15 -6 0 -6 7 -11 16 -11 19 0 106 -40 115 -53 3 -5 10
-9 15 -9 19 -1 54 -18 54 -27 0 -5 15 -15 34 -21 19 -6 37 -17 40 -25 3 -8 12
-15 19 -15 8 0 22 -11 33 -24 10 -14 21 -23 24 -21 4 2 20 -9 35 -25 20 -21
24 -30 13 -30 -8 0 -23 9 -33 20 -18 19 -46 28 -44 13 4 -24 -4 -33 -26 -33
-14 0 -25 -6 -26 -12 0 -7 -2 -20 -4 -29 -2 -13 4 -16 31 -14 19 1 37 -2 41
-8 3 -5 -23 -38 -58 -73 -70 -71 -122 -95 -148 -69 -9 9 -11 15 -4 15 6 0 13
9 16 19 3 13 -1 21 -15 24 -14 4 -22 0 -25 -14 -3 -10 -13 -19 -23 -19 -29 0
-68 -60 -62 -97 2 -13 8 -20 16 -17 9 3 13 -3 12 -18 0 -13 5 -23 12 -23 7 0
16 -4 20 -10 7 -10 36 -30 62 -42 18 -8 130 -124 130 -134 0 -4 6 -14 13 -21
15 -16 41 -70 39 -80 -1 -5 2 -8 7 -8 5 0 13 -15 16 -32 4 -18 12 -38 17 -45
5 -7 7 -21 4 -31 -5 -14 3 -26 29 -46 104 -79 213 -219 206 -263 -1 -7 2 -13
7 -13 6 0 12 -17 16 -37 9 -61 12 -213 4 -213 -5 0 -8 -14 -8 -30 0 -17 -4
-38 -8 -48 -5 -9 -15 -30 -23 -47 -10 -21 -14 -61 -14 -127 1 -54 -2 -98 -7
-98 -4 0 -8 -13 -8 -30 0 -16 4 -30 8 -30 5 0 8 -28 7 -62 -2 -72 1 -83 20
-68 8 7 19 9 24 5 15 -9 60 24 77 56 8 16 20 29 27 29 23 0 107 90 107 115 0
13 5 27 10 30 6 4 8 9 6 13 -2 4 6 20 18 35 19 24 31 29 82 31 76 4 74 4 74
19 0 23 17 40 31 31 24 -14 89 -13 97 2 4 8 22 16 40 18 17 2 44 12 59 22 15
10 44 18 62 19 31 0 35 3 36 28 1 15 -3 31 -9 35 -6 4 -16 16 -22 27 -12 21
-80 64 -104 65 -20 0 -45 30 -47 55 -1 34 -15 85 -24 91 -5 3 -7 9 -4 14 3 4
-15 29 -40 55 -25 25 -43 50 -40 54 2 4 112 8 245 8 211 0 240 -2 241 -16 2
-27 -3 -65 -9 -75 -3 -6 -5 -35 -5 -65 0 -31 -3 -60 -7 -66 -4 -5 -6 -25 -5
-43 1 -18 -2 -35 -7 -38 -4 -3 -8 -21 -8 -40 0 -19 -4 -34 -9 -34 -6 0 -8 -10
-6 -22 3 -12 -1 -28 -7 -35 -6 -7 -8 -16 -5 -20 4 -3 1 -15 -5 -27 -7 -11 -11
-25 -10 -30 2 -4 -3 -14 -9 -22 -6 -8 -9 -14 -6 -14 4 0 -2 -19 -12 -42 -10
-24 -16 -49 -14 -55 3 -7 0 -13 -5 -13 -5 0 -13 -16 -16 -35 -4 -19 -11 -35
-16 -35 -5 0 -12 -16 -16 -35 -3 -19 -10 -35 -15 -35 -5 0 -6 -7 -3 -15 4 -8
1 -15 -4 -15 -6 0 -14 -10 -18 -22 -4 -13 -18 -38 -32 -55 -13 -18 -21 -33
-18 -33 4 0 -7 -20 -24 -44 -16 -25 -30 -48 -30 -51 0 -6 -16 -28 -60 -82 -6
-7 -10 -15 -10 -17 0 -6 -15 -26 -75 -96 -22 -26 -51 -59 -63 -74 -30 -36 -43
-24 -46 43 -1 37 -8 56 -24 71 -26 25 -26 24 -7 44 13 13 13 16 0 30 -20 20
-52 12 -76 -19 -22 -27 -49 -34 -49 -11 0 7 6 19 14 25 14 12 27 55 31 105 1
15 8 32 15 36 9 6 14 34 15 89 1 77 0 82 -32 116 -18 19 -35 30 -38 25 -4 -6
-10 -8 -15 -5 -10 6 -50 -14 -62 -30 -4 -5 -8 -25 -8 -42 0 -27 -4 -34 -27
-39 -16 -3 -39 -10 -53 -17 -14 -6 -36 -11 -50 -12 -22 -1 -25 -5 -23 -33 1
-18 -3 -32 -8 -32 -5 0 -9 -13 -9 -29 0 -17 -5 -33 -10 -36 -6 -4 -8 -11 -4
-16 3 -5 1 -15 -4 -22 -6 -7 -10 -15 -9 -18 1 -3 -9 -29 -23 -58 l-24 -53 24
-18 c16 -12 31 -15 44 -11 22 9 96 -7 96 -19 0 -5 19 -8 43 -8 71 1 85 -1 90
-16 4 -10 1 -13 -9 -9 -7 3 -14 1 -14 -5 0 -6 -34 -9 -87 -8 -88 2 -147 19
-185 53 -16 14 -24 8 -100 -68 -46 -46 -88 -86 -93 -88 -21 -8 -60 -36 -72
-51 -7 -8 -13 -11 -13 -7 0 4 -20 -4 -43 -18 -24 -14 -47 -22 -50 -18 -4 3 -7
2 -7 -4 0 -6 -11 -14 -25 -17 -22 -6 -24 -12 -27 -69 -2 -34 0 -109 4 -167 4
-58 8 -197 10 -310 2 -113 6 -209 9 -215 3 -5 5 -37 5 -70 -1 -60 -1 -60 56
-117 31 -32 53 -60 47 -63 -5 -4 -13 -4 -18 -1 -5 4 -11 2 -13 -4 -1 -5 -15
-11 -30 -12 -30 -2 -46 -29 -43 -68 2 -27 36 -40 58 -22 7 5 22 8 35 6 12 -2
22 0 22 5 0 10 66 25 95 22 38 -5 70 -26 70 -46 0 -20 25 -24 65 -12 8 2 34 8
57 12 23 4 50 16 59 26 9 11 27 19 38 19 12 0 39 16 61 35 22 20 45 39 50 43
24 17 142 118 157 135 9 10 19 18 22 18 3 -1 18 10 33 23 93 81 111 96 121 96
6 0 12 3 14 8 5 11 95 72 106 72 6 0 19 11 30 25 11 13 21 22 24 20 2 -3 17 9
33 25 16 17 33 30 38 30 6 0 22 12 36 28 15 15 49 45 75 66 l48 39 205 -205
205 -205 -52 -52 c-28 -28 -55 -51 -59 -51 -4 0 -22 -16 -41 -35 -18 -19 -35
-33 -37 -31 -4 4 -19 -8 -89 -71 -14 -13 -31 -23 -39 -23 -8 0 -15 -5 -15 -10
0 -6 -11 -15 -25 -20 -14 -5 -25 -15 -25 -21 0 -6 -6 -9 -13 -6 -7 3 -19 -4
-26 -14 -6 -11 -16 -17 -21 -14 -6 3 -10 2 -10 -4 0 -10 -38 -34 -72 -47 -10
-3 -18 -10 -18 -15 0 -5 -5 -9 -11 -9 -6 0 -22 -9 -36 -20 -14 -11 -29 -17
-34 -14 -5 3 -9 1 -9 -3 0 -9 -5 -12 -96 -58 -32 -16 -60 -33 -62 -37 -2 -5
-8 -8 -14 -8 -5 0 -56 -23 -112 -51 -57 -28 -109 -52 -117 -53 -8 -2 -27 -8
-42 -14 -16 -7 -33 -12 -38 -12 -5 0 -9 -4 -9 -10 0 -5 -10 -10 -23 -10 -12 0
-33 -7 -45 -16 -13 -9 -26 -13 -29 -10 -3 3 -12 1 -19 -5 -7 -5 -25 -12 -40
-15 -16 -3 -33 -9 -39 -13 -10 -7 -91 -34 -110 -36 -5 -1 -30 -8 -55 -15 -25
-7 -52 -15 -60 -18 -8 -2 -32 -6 -52 -9 -21 -3 -38 -9 -38 -13 0 -4 -11 -5
-25 -2 -14 2 -25 0 -25 -6 0 -6 -12 -10 -27 -10 -61 1 -73 -10 -73 -64 0 -50
0 -50 28 -44 15 4 39 8 55 9 15 1 27 6 27 10 0 5 12 7 28 6 15 -2 32 0 38 3 6
4 26 10 45 13 51 10 78 18 109 34 8 4 25 7 38 6 12 -1 22 2 22 7 0 4 9 8 19 8
11 0 23 5 26 10 4 6 11 8 16 4 5 -3 16 0 24 6 8 6 19 9 24 6 5 -4 12 -2 15 3
5 8 63 25 79 22 4 0 7 3 7 8 0 5 12 12 28 17 15 4 29 8 32 9 3 1 16 6 30 12
41 18 65 26 73 25 4 -1 7 2 7 8 0 5 7 10 15 10 8 0 70 28 138 62 67 34 125 61
130 60 4 -1 7 2 7 7 0 5 10 11 23 15 13 3 40 16 59 30 20 13 39 22 42 18 3 -3
6 0 6 6 0 7 6 12 14 12 8 0 17 7 20 16 3 8 10 12 16 9 6 -3 13 0 16 9 3 8 12
12 20 9 7 -3 17 2 20 11 3 9 12 16 20 16 7 0 17 7 22 16 5 9 11 15 13 14 8 -4
79 42 79 51 0 5 6 9 13 9 8 0 22 9 32 20 10 11 20 18 23 16 4 -5 19 8 83 66
17 16 34 28 38 28 5 0 23 16 42 35 19 19 37 35 41 35 5 0 44 35 87 79 44 43
82 77 85 74 2 -3 13 8 23 23 10 16 56 68 103 116 47 48 97 102 112 120 15 18
43 52 63 74 19 23 35 45 35 49 0 4 8 15 18 24 20 19 40 49 48 74 4 9 9 17 13
17 11 0 114 158 127 193 3 9 10 17 14 17 5 0 18 21 31 48 12 26 26 49 29 52 4
3 31 55 61 115 29 61 58 113 62 116 5 3 8 8 7 10 -2 7 11 41 53 139 22 52 40
103 39 113 0 9 3 17 9 17 5 0 8 3 7 8 -2 11 14 65 22 77 5 6 11 27 15 48 4 20
10 37 14 37 6 0 9 10 14 65 1 14 5 25 8 25 4 0 9 15 13 33 3 17 8 43 12 57 3
14 8 42 11 63 3 20 8 37 12 37 4 0 6 12 5 28 -1 15 2 32 6 37 4 6 8 24 7 40 0
17 3 37 6 45 7 17 15 88 21 170 1 30 6 63 10 72 4 9 5 21 2 27 -4 5 -2 12 4
16 6 4 8 11 4 16 -10 17 -12 59 -2 65 4 3 5 10 2 16 -4 5 -6 97 -5 203 0 107
-3 196 -8 199 -4 3 -7 35 -6 71 1 36 -2 65 -6 65 -5 0 -9 19 -8 43 1 23 -3 53
-8 67 -6 14 -8 31 -6 38 3 7 1 20 -3 30 -4 9 -8 29 -9 44 -1 15 -4 31 -8 34
-4 4 -7 20 -7 35 0 15 -4 30 -9 33 -4 3 -7 17 -6 31 2 14 0 25 -4 25 -4 0 -8
12 -9 28 -1 15 -6 28 -11 30 -5 2 -7 12 -4 23 3 10 1 25 -5 32 -6 6 -13 30
-17 52 -4 22 -12 45 -17 51 -5 7 -8 16 -7 20 1 5 -1 17 -4 27 -4 9 -10 25 -14
35 -3 9 -5 21 -4 25 1 4 -5 15 -14 23 -8 9 -15 26 -15 40 0 13 -4 24 -8 24 -5
0 -9 6 -9 13 0 7 -12 39 -27 71 -15 32 -25 60 -22 63 2 3 -4 14 -14 25 -10 12
-22 34 -25 50 -4 15 -20 52 -36 81 -16 28 -32 60 -35 70 -4 9 -10 17 -14 17
-4 0 -11 11 -14 25 -4 14 -11 25 -16 25 -5 0 -7 7 -4 15 4 8 1 15 -6 15 -7 0
-10 7 -7 14 4 9 -2 17 -13 21 -10 3 -22 19 -25 36 -4 17 -13 33 -21 36 -8 3
-14 11 -14 18 0 7 -7 18 -15 25 -9 7 -13 15 -10 18 2 3 -5 13 -17 23 -11 11
-18 19 -14 19 4 0 -6 18 -23 39 -17 21 -31 42 -31 47 0 4 -7 14 -15 23 -27 29
-65 79 -65 86 0 3 -13 18 -30 32 -16 13 -30 31 -30 38 0 7 -16 27 -35 44 -19
17 -36 36 -36 43 -1 7 -83 91 -183 187 -231 222 -241 231 -252 231 -4 0 -17 9
-29 20 -37 36 -95 82 -95 76 0 -4 -11 4 -24 18 -13 15 -26 26 -30 26 -9 0 -70
43 -74 53 -2 4 -8 7 -14 7 -9 0 -96 57 -108 71 -6 6 -31 16 -44 17 -5 0 -13 7
-18 16 -5 9 -16 16 -23 16 -8 0 -15 4 -15 10 0 5 -3 9 -7 8 -11 -2 -61 23
-111 55 -23 15 -56 30 -72 34 -17 3 -30 9 -30 13 0 5 -13 11 -30 15 -16 4 -30
11 -30 16 0 5 -3 8 -7 7 -5 -1 -21 4 -38 12 -58 25 -90 38 -115 45 -14 4 -29
11 -35 15 -5 5 -27 11 -47 15 -21 4 -38 11 -38 15 0 4 -17 11 -37 15 -21 4
-43 11 -49 16 -7 5 -16 9 -20 7 -5 -1 -25 4 -44 11 -19 8 -43 13 -52 12 -10
-1 -18 3 -18 10 0 7 -3 10 -6 6 -3 -3 -23 1 -45 8 -21 8 -39 12 -39 8 0 -3 -6
-1 -12 5 -7 5 -23 8 -35 6 -12 -2 -25 1 -28 6 -3 6 -19 10 -34 10 -15 0 -31 3
-34 7 -4 3 -22 8 -39 9 -18 2 -46 5 -63 8 -16 3 -57 8 -90 11 -33 4 -67 9 -75
12 -8 3 -31 7 -52 7 -36 2 -36 2 -40 -42z m2153 -1122 c32 -33 59 -63 59 -66
0 -7 59 -76 103 -122 12 -12 22 -27 22 -33 0 -5 5 -13 10 -17 17 -12 75 -90
75 -101 0 -5 3 -11 8 -13 4 -1 21 -24 38 -50 17 -26 34 -44 38 -40 4 3 4 -1 0
-11 -3 -9 -2 -17 3 -17 6 0 18 -18 29 -40 10 -22 22 -40 27 -40 4 0 7 -7 7
-15 0 -8 4 -15 9 -15 5 0 12 -11 15 -24 3 -14 12 -31 19 -38 15 -16 57 -101
57 -117 0 -6 4 -11 8 -11 5 0 15 -18 22 -40 7 -22 16 -40 20 -40 4 0 13 -20
20 -45 7 -25 17 -45 21 -45 5 0 9 -9 9 -20 0 -11 5 -20 11 -20 5 0 8 -4 5 -9
-4 -5 0 -22 8 -38 19 -35 30 -66 28 -75 -1 -5 3 -8 8 -8 6 0 10 -11 10 -25 0
-14 5 -25 11 -25 5 0 7 -5 4 -10 -4 -6 -1 -18 6 -26 6 -8 9 -17 6 -21 -4 -3
-2 -13 5 -20 12 -14 18 -40 19 -75 0 -10 4 -20 10 -23 5 -4 9 -15 9 -26 0 -10
4 -19 8 -19 5 0 8 -10 7 -22 -1 -13 1 -27 5 -33 4 -5 8 -17 8 -25 3 -28 13
-85 19 -100 4 -8 8 -24 9 -35 2 -11 8 -42 14 -70 6 -27 11 -66 11 -85 1 -19 5
-40 9 -45 5 -6 8 -28 6 -50 -1 -22 4 -56 10 -75 7 -21 9 -41 3 -51 -4 -9 -6
-19 -3 -22 3 -3 7 -29 9 -59 2 -29 5 -71 8 -93 2 -22 3 -45 0 -50 -2 -7 -108
-10 -304 -10 -329 0 -323 -1 -309 61 4 18 5 35 3 38 -5 5 -11 56 -16 146 -2
30 -6 62 -10 70 -5 14 -11 53 -20 140 -3 19 -5 36 -7 38 -1 1 -3 11 -4 21 0
11 -4 23 -8 27 -5 4 -8 22 -8 40 0 18 -4 35 -9 39 -6 3 -8 14 -6 25 2 11 0 22
-6 25 -5 4 -9 15 -9 26 0 10 -4 19 -10 19 -5 0 -7 7 -4 15 4 8 1 22 -5 29 -7
8 -11 20 -10 28 2 7 -5 28 -14 46 -10 17 -14 32 -10 32 4 0 2 5 -5 12 -7 7
-12 19 -12 28 0 8 -12 40 -27 70 -14 30 -27 60 -28 65 0 6 -5 18 -9 28 -11 24
0 47 23 47 42 0 38 78 -5 112 -13 11 -24 26 -24 34 0 8 -4 14 -9 14 -5 0 -14
13 -21 30 -7 16 -23 42 -36 57 -13 16 -24 33 -24 39 0 6 -18 28 -40 50 -22 21
-40 45 -40 53 0 7 -6 11 -13 8 -13 -5 -60 27 -55 37 2 3 -9 19 -24 35 -16 16
-28 35 -28 43 0 8 -5 19 -12 26 -7 7 -9 12 -5 12 4 0 3 9 -3 20 -6 11 -21 20
-34 20 -28 0 -103 72 -112 106 -3 13 -12 24 -20 24 -8 0 -14 10 -14 22 0 16
57 80 192 215 106 106 197 193 201 193 5 0 35 -27 68 -60z m-877 -452 c11 -10
16 -18 11 -18 -5 0 1 -10 12 -22 38 -43 37 -46 -42 -126 -70 -73 -104 -94
-106 -68 0 6 -2 18 -4 26 -2 14 11 34 28 38 4 1 7 5 7 10 0 11 -52 81 -78 106
-13 11 -28 29 -33 38 -8 15 -6 17 22 11 19 -3 34 -1 38 5 4 7 25 18 46 25 42
15 58 11 99 -25z m75 -258 c5 0 19 -22 32 -50 19 -39 28 -49 46 -48 13 2 26
11 29 21 4 11 13 17 26 15 16 -2 24 -15 33 -51 14 -54 39 -86 63 -82 9 1 25
-6 35 -17 10 -10 23 -16 28 -12 13 7 61 -35 53 -47 -3 -5 15 -9 40 -9 40 0 46
-3 66 -35 12 -20 35 -42 51 -50 26 -14 34 -26 30 -47 0 -4 10 -15 24 -24 14
-9 25 -25 25 -36 0 -15 5 -19 19 -15 18 4 36 -22 32 -46 -2 -12 82 3 90 16 4
5 12 6 18 3 6 -4 11 -1 11 6 0 20 37 -53 44 -89 4 -18 12 -33 17 -33 6 0 9 -6
8 -12 -2 -7 5 -30 14 -52 9 -21 15 -42 12 -46 -3 -5 -1 -11 4 -14 5 -3 12 -23
17 -43 8 -41 10 -49 14 -60 2 -5 4 -12 5 -18 4 -22 17 -71 22 -85 3 -8 7 -26
9 -40 1 -14 9 -55 17 -91 7 -37 12 -75 11 -85 -2 -10 0 -23 4 -28 4 -6 8 -31
9 -56 1 -25 6 -83 10 -129 6 -58 5 -87 -3 -95 -7 -8 -92 -11 -265 -11 l-254 0
-7 55 c-4 30 -10 82 -13 115 -3 33 -6 71 -7 85 -2 14 2 25 10 26 6 1 17 2 22
3 7 1 7 7 0 20 -6 13 -17 17 -30 14 -19 -5 -20 -2 -14 23 9 37 9 37 32 25 16
-8 21 -7 27 6 6 17 -17 43 -38 43 -4 0 -5 5 -2 10 3 6 1 10 -4 10 -6 0 -9 10
-7 23 3 12 5 22 6 22 1 0 3 8 5 18 3 14 -32 46 -42 39 -8 -5 -35 -1 -30 5 4 3
2 12 -5 20 -8 10 -8 17 0 25 16 16 15 28 -1 28 -19 0 -34 39 -32 82 1 27 -2
39 -14 43 -9 3 -17 13 -18 22 -6 68 -25 124 -41 122 -18 -3 -35 2 -29 8 4 3 2
12 -4 20 -6 7 -8 13 -3 13 5 0 3 4 -5 9 -20 13 -24 48 -6 55 11 4 12 11 4 35
-6 16 -17 32 -25 35 -8 3 -14 12 -14 21 0 17 -30 17 -42 0 -4 -5 -10 -1 -14
10 -4 11 -15 27 -25 36 -16 13 -33 56 -34 84 0 6 -10 14 -22 20 -13 5 -23 18
-23 27 0 10 -9 22 -21 28 -11 7 -18 14 -15 17 3 3 1 14 -5 25 -7 14 -14 16
-23 9 -8 -7 -16 -4 -26 12 -8 12 -15 24 -16 27 0 3 -4 13 -9 23 -6 14 3 29 36
63 24 25 50 42 57 39 8 -3 17 -5 21 -5z m-154 -240 c5 -8 9 -24 10 -35 0 -11
6 -19 14 -17 19 4 41 -17 41 -40 0 -10 8 -21 18 -25 18 -7 52 -38 52 -49 0 -3
14 -24 31 -45 17 -21 27 -39 23 -39 -4 0 3 -8 14 -19 12 -10 19 -21 15 -24 -3
-4 -1 -12 5 -20 6 -7 8 -17 4 -22 -8 -12 -37 -13 -48 -2 -4 4 -2 7 5 7 7 0 9
5 6 10 -4 6 -11 8 -16 5 -5 -4 -9 0 -9 7 0 8 -5 6 -11 -5 -8 -14 -7 -23 5 -36
20 -22 20 -40 0 -62 -21 -23 -11 -49 17 -49 13 0 19 -5 16 -13 -3 -8 1 -14 9
-14 8 0 14 4 14 9 0 4 7 8 15 8 8 0 15 -5 15 -11 0 -5 4 -8 9 -5 11 7 43 -29
34 -38 -4 -4 6 -19 23 -34 24 -22 85 -111 90 -132 0 -3 4 -13 8 -22 5 -10 6
-25 2 -33 -3 -8 -1 -15 5 -15 6 0 8 -11 4 -29 -4 -21 -2 -30 9 -34 9 -4 16
-11 16 -17 0 -8 -6 -8 -20 0 -17 9 -26 4 -59 -30 -25 -25 -38 -48 -36 -60 2
-10 -8 -31 -23 -47 -22 -22 -36 -28 -70 -27 -53 1 -59 7 -34 34 11 12 18 29
15 36 -3 8 0 20 6 28 7 8 11 18 9 22 -1 5 3 19 10 31 24 43 -26 103 -84 103
-40 0 -91 -26 -99 -50 -6 -17 -60 -51 -69 -43 -3 3 -1 14 5 25 6 10 9 31 7 46
-3 23 -7 27 -30 24 -29 -4 -58 17 -62 43 -1 9 -20 33 -41 55 -33 33 -60 47
-110 55 -5 1 -12 3 -15 4 -3 2 -13 4 -23 6 -10 2 -25 6 -33 9 -14 6 -87 112
-90 133 -2 14 -54 68 -65 68 -32 0 3 42 186 225 l208 208 31 -21 c17 -12 35
-29 41 -37z m-491 -512 l27 -28 -24 0 c-13 0 -27 3 -30 7 -4 3 -19 7 -35 8
-29 2 -102 -57 -102 -82 0 -17 -18 -17 -36 1 -21 22 -18 30 34 78 41 39 52 44
93 44 36 0 51 -6 73 -28z m29 -67 c4 -1 14 -1 23 -1 12 0 15 -10 13 -45 -2
-24 0 -47 4 -51 26 -26 -13 -27 -43 -1 -18 15 -20 15 -32 -6 -16 -28 -17 -39
-5 -54 7 -9 5 -13 -6 -13 -17 0 -33 22 -38 55 -2 11 -8 23 -14 27 -6 4 -1 16
13 28 12 11 22 17 22 13 0 -4 6 -1 12 5 10 10 10 15 -1 22 -22 13 5 43 28 31
9 -5 19 -9 24 -10z m917 -360 c0 -33 -5 -63 -10 -66 -6 -4 -8 -11 -5 -16 4 -5
-1 -9 -9 -9 -16 0 -22 -21 -9 -33 4 -4 7 -24 7 -45 1 -37 5 -40 40 -26 13 5
17 4 13 -3 -4 -6 -1 -15 6 -21 13 -11 15 -78 2 -90 -3 -4 -54 -7 -111 -7 -101
-1 -138 7 -92 18 18 5 19 8 8 22 -7 8 -24 14 -39 13 -15 -1 -32 1 -39 6 -8 5
-12 -1 -12 -18 0 -18 5 -26 17 -26 9 0 13 -3 9 -7 -4 -4 -36 -8 -72 -8 -56 -1
-64 2 -64 18 0 11 5 17 13 14 37 -14 70 38 44 71 -7 9 -4 18 11 32 17 16 34
20 88 19 54 -1 70 2 80 16 8 10 11 22 8 26 -3 5 0 9 5 9 6 0 11 7 11 15 0 8
10 20 22 26 46 25 62 48 61 89 0 22 3 40 8 40 5 0 9 -27 9 -59z m672 -475 c2
-33 -2 -78 -7 -101 -6 -22 -9 -58 -8 -80 1 -22 -1 -47 -5 -55 -3 -8 -6 -28 -7
-45 -1 -16 -5 -37 -8 -45 -6 -15 -16 -76 -19 -117 -1 -13 -6 -23 -10 -23 -4 0
-8 -13 -8 -29 0 -17 -4 -32 -10 -36 -5 -3 -7 -12 -3 -20 3 -9 0 -21 -6 -28 -6
-8 -9 -23 -6 -35 2 -12 0 -22 -6 -22 -5 0 -9 -9 -9 -19 0 -11 -5 -23 -11 -26
-6 -4 -8 -13 -5 -21 3 -7 1 -16 -4 -19 -6 -4 -10 -15 -10 -26 0 -10 -4 -19 -8
-19 -4 0 -8 -8 -9 -17 -1 -23 -26 -86 -36 -94 -5 -3 -8 -9 -8 -13 1 -11 -10
-40 -36 -93 -14 -29 -24 -55 -23 -59 1 -4 -2 -10 -7 -13 -14 -10 -45 -71 -36
-71 4 0 3 -4 -2 -8 -6 -4 -16 -18 -23 -32 -17 -35 -35 -64 -46 -71 -5 -4 -5
-12 -1 -19 4 -7 -1 -13 -14 -17 -11 -3 -19 -9 -16 -13 3 -5 -2 -15 -10 -23 -8
-9 -15 -19 -15 -22 0 -4 -13 -24 -30 -45 -16 -21 -30 -42 -30 -48 0 -6 -3 -12
-7 -14 -10 -4 -73 -85 -73 -92 0 -5 -32 -41 -129 -144 l-44 -47 5 33 c3 18 1
35 -3 38 -5 2 -6 11 -3 18 3 8 1 17 -5 20 -6 4 -8 13 -4 21 3 8 1 15 -5 15 -5
0 -9 21 -8 48 0 26 -3 52 -7 57 -4 6 -13 18 -20 28 -13 19 -54 30 -71 19 -11
-6 -16 -8 -35 -11 -5 0 -11 -19 -15 -41 -3 -22 -9 -40 -12 -40 -2 0 -45 41
-94 90 l-90 91 42 44 c24 25 59 66 78 91 19 26 43 54 53 63 9 8 17 19 17 24 0
5 13 26 30 47 16 20 27 40 23 43 -3 4 2 9 11 13 9 3 16 12 16 20 0 8 5 14 11
14 6 0 9 7 5 15 -3 9 3 19 15 25 11 6 17 15 14 21 -4 5 -2 9 3 9 6 0 13 12 17
27 3 15 10 30 13 33 11 8 62 119 62 135 0 8 4 15 9 15 5 0 13 15 16 33 4 17
10 37 13 42 4 6 7 15 9 20 1 6 4 21 7 35 3 14 10 26 16 28 6 2 7 8 4 13 -3 6
-1 15 4 22 5 7 8 20 7 30 -2 9 0 17 5 17 4 0 10 15 14 33 3 17 8 43 11 57 4
14 7 39 9 55 1 17 5 36 9 42 4 6 8 30 9 52 1 23 4 41 8 41 4 0 6 32 5 70 -1
39 2 70 7 70 4 0 8 22 8 48 l0 49 264 0 264 0 4 -61z m714 7 c0 -29 -3 -53 -7
-53 -4 0 -7 -41 -7 -90 0 -50 -4 -96 -9 -103 -5 -7 -8 -33 -8 -59 1 -27 -3
-48 -7 -48 -5 0 -7 -15 -5 -32 2 -18 -2 -52 -9 -75 -7 -24 -11 -43 -8 -43 3 0
2 -6 -3 -12 -4 -7 -8 -24 -9 -38 0 -14 -4 -32 -7 -40 -10 -26 -20 -75 -18 -84
1 -4 -3 -14 -9 -20 -5 -7 -8 -15 -5 -18 3 -2 -4 -28 -15 -57 -10 -29 -16 -59
-13 -67 3 -8 0 -14 -6 -14 -6 0 -11 -11 -11 -25 0 -14 -4 -25 -8 -25 -4 0 -9
-8 -10 -17 -4 -37 -8 -51 -20 -65 -6 -8 -9 -18 -5 -21 3 -4 1 -12 -5 -19 -6
-7 -11 -17 -12 -23 -1 -5 -7 -21 -12 -35 -5 -14 -9 -27 -8 -29 1 -2 -2 -7 -7
-10 -4 -3 -14 -22 -21 -41 -14 -36 -15 -39 -27 -77 -4 -13 -11 -23 -16 -23 -5
0 -8 -3 -7 -7 2 -9 -92 -205 -102 -213 -4 -3 -17 -25 -31 -50 -13 -25 -36 -61
-51 -81 -15 -20 -25 -38 -23 -41 3 -3 -6 -17 -19 -31 -13 -14 -21 -29 -18 -32
4 -4 -1 -11 -11 -16 -9 -6 -17 -15 -17 -22 0 -6 -12 -21 -26 -33 -14 -13 -24
-26 -23 -29 3 -9 -20 -41 -53 -77 -16 -16 -28 -31 -28 -34 0 -9 -82 -106 -112
-133 -16 -14 -28 -30 -28 -35 0 -5 -24 -33 -52 -62 l-53 -51 -208 209 -209
210 57 61 c114 125 123 136 118 140 -2 3 7 14 21 25 14 10 22 22 19 26 -4 4 3
13 15 22 12 8 22 19 22 24 0 6 8 19 18 30 9 11 15 23 12 25 -3 3 5 12 18 20
12 9 20 20 18 24 -3 3 9 22 25 40 16 18 26 37 23 42 -3 5 0 9 5 9 6 0 11 6 11
14 0 8 4 16 9 18 11 4 161 301 161 320 0 8 5 19 10 24 6 6 13 21 15 35 3 13 9
25 15 27 6 2 8 8 4 13 -3 5 -1 9 5 9 5 0 8 8 6 18 -1 9 1 22 5 27 14 19 41
116 35 125 -4 6 -2 10 3 10 10 0 25 52 25 83 0 9 3 17 7 17 9 0 25 86 21 113
-1 9 2 17 7 17 5 0 9 15 10 33 3 45 12 109 19 127 3 8 7 42 7 75 1 33 4 65 8
71 4 5 7 32 8 60 0 27 1 56 2 64 0 8 -1 20 -2 25 -7 31 3 32 307 31 l308 -1 1
-52z m-1771 -1572 c-5 -9 -10 -9 -21 0 -25 21 -16 -15 10 -40 20 -19 28 -21
46 -11 29 16 64 -13 56 -46 -4 -16 0 -27 14 -37 12 -8 20 -18 19 -23 -2 -5 3
-21 11 -36 11 -24 18 -27 51 -25 21 2 44 0 51 -5 10 -6 10 -8 1 -8 -7 0 -37
-24 -67 -52 -30 -29 -78 -71 -106 -93 -28 -22 -58 -46 -65 -52 -7 -7 -17 -13
-20 -13 -4 0 -24 -13 -44 -28 -20 -16 -44 -32 -53 -35 -10 -4 -18 -11 -18 -17
0 -6 -5 -8 -11 -5 -6 5 -2 13 11 22 12 8 19 21 16 29 -3 8 -1 14 5 14 7 0 8 7
4 18 -4 9 -8 23 -8 30 0 6 -5 12 -11 12 -6 0 -20 7 -30 15 -16 12 -17 17 -6
30 7 8 20 14 29 13 10 -2 16 4 16 16 0 10 9 24 19 30 73 42 87 108 34 163 -18
18 -37 33 -43 33 -7 0 -23 12 -38 28 -14 15 -40 37 -57 50 -16 13 -28 28 -24
33 3 5 1 9 -4 9 -12 0 -4 39 12 59 6 8 29 27 51 43 l39 29 69 -69 c42 -42 67
-74 62 -81z"/>
<path d="M6600 6567 c0 -19 16 -31 24 -18 3 5 -1 14 -9 21 -12 10 -15 10 -15
-3z"/>
<path d="M6769 6418 c4 -13 6 -28 4 -34 -2 -6 3 -17 12 -24 8 -7 15 -9 15 -6
0 4 14 -1 30 -11 17 -9 30 -21 30 -26 0 -4 10 -2 22 4 22 12 22 12 -8 33 -16
11 -44 36 -62 53 -38 39 -55 43 -43 11z"/>
<path d="M6843 6277 c1 -7 6 -15 12 -19 5 -4 10 -15 10 -25 0 -10 6 -19 13
-19 6 -1 19 -2 27 -3 8 0 14 -4 14 -8 -1 -5 0 -10 1 -13 1 -3 3 -21 5 -40 3
-49 3 -49 23 -45 9 2 20 4 25 4 12 2 8 34 -8 51 -8 9 -16 25 -18 36 -4 24 -22
56 -30 55 -21 -3 -27 1 -27 14 0 8 -3 15 -7 16 -5 0 -16 2 -25 4 -10 2 -16 -2
-15 -8z"/>
<path d="M6995 6052 c-6 -4 -12 -16 -13 -27 -2 -11 -9 -23 -15 -27 -7 -4 -6
-14 4 -30 8 -12 14 -34 13 -48 -1 -14 6 -32 15 -40 9 -8 17 -24 16 -35 0 -11
8 -27 17 -36 11 -10 16 -25 13 -39 -3 -13 0 -29 6 -37 7 -7 8 -13 3 -13 -9 0
17 -20 26 -20 10 0 5 64 -6 84 -6 10 -9 38 -6 61 3 34 0 48 -16 66 -12 12 -19
26 -16 31 3 4 1 8 -4 8 -9 0 -10 4 -15 62 -3 41 -8 50 -22 40z"/>
<path d="M6510 6255 c0 -13 4 -14 20 -5 11 6 20 13 20 15 0 3 -9 5 -20 5 -11
0 -20 -7 -20 -15z"/>
<path d="M6570 6235 c0 -8 2 -15 4 -15 2 0 6 7 10 15 3 8 1 15 -4 15 -6 0 -10
-7 -10 -15z"/>
<path d="M6516 6201 c-3 -5 -16 -7 -28 -3 -14 3 -19 1 -14 -6 3 -6 2 -13 -4
-17 -6 -4 -8 -10 -5 -15 9 -14 -33 -50 -50 -44 -8 4 -15 1 -15 -5 0 -6 4 -11
9 -11 12 0 25 -39 22 -65 -6 -53 -9 -60 -28 -63 -27 -4 -54 -34 -45 -49 7 -11
37 -16 78 -14 13 1 24 9 27 22 5 18 12 20 59 18 60 -3 90 7 67 22 -8 5 -30 9
-49 9 -19 0 -45 3 -57 6 -26 7 -31 34 -7 34 24 0 44 24 33 41 -13 22 -11 28
11 26 11 -1 20 -6 20 -12 0 -5 5 -2 10 7 7 11 7 25 0 42 -5 15 -6 28 0 31 5 3
5 16 -2 30 -12 26 -23 31 -32 16z"/>
<path d="M6606 6101 c-4 -5 -2 -12 3 -15 5 -4 12 -2 15 3 4 5 2 12 -3 15 -5 4
-12 2 -15 -3z"/>
<path d="M6116 5991 c-3 -5 1 -11 9 -15 15 -6 29 7 18 18 -9 9 -21 8 -27 -3z"/>
<path d="M6207 5934 c-8 -8 1 -24 14 -24 5 0 9 7 9 15 0 15 -12 20 -23 9z"/>
<path d="M6232 5881 c-10 -6 -9 -11 4 -22 9 -8 20 -12 23 -11 3 2 14 8 24 13
9 5 17 14 17 19 0 12 -50 13 -68 1z"/>
<path d="M6867 5234 c-9 -10 2 -24 18 -24 9 0 12 6 9 15 -6 16 -17 19 -27 9z"/>
<path d="M7066 3725 c-4 -11 2 -15 21 -15 21 0 24 2 13 15 -7 8 -16 15 -20 15
-4 0 -10 -7 -14 -15z"/>
<path d="M7043 3635 c0 -14 5 -25 13 -25 9 0 13 8 11 22 -5 31 -24 34 -24 3z"/>
<path d="M7810 4444 c0 -11 5 -14 16 -10 9 3 23 6 32 6 15 0 15 2 2 10 -23 15
-50 12 -50 -6z"/>
<path d="M8059 4147 c-1 -4 -2 -12 -3 -17 0 -6 -7 -14 -14 -19 -7 -4 -10 -15
-6 -24 9 -25 26 -21 22 6 -2 12 2 21 9 20 6 -1 10 4 9 12 -2 16 -15 32 -17 22z"/>
<path d="M7937 4015 c-4 -8 -2 -17 3 -20 6 -4 10 -4 10 -1 0 2 3 11 6 20 3 9
2 16 -4 16 -5 0 -12 -7 -15 -15z"/>
<path d="M7898 3971 c-18 -22 -8 -47 16 -38 16 6 23 57 8 57 -4 0 -15 -8 -24
-19z"/>
<path d="M7510 8492 c0 -5 18 -24 40 -43 22 -19 40 -39 40 -44 0 -6 48 -58
106 -115 65 -65 129 -141 166 -197 34 -51 65 -93 70 -93 4 0 8 -6 8 -13 0 -8
11 -24 25 -37 14 -13 25 -28 25 -33 0 -5 11 -22 24 -36 82 -87 96 -104 96
-110 0 -3 43 -49 94 -100 52 -52 93 -97 91 -101 -2 -3 10 -17 27 -31 18 -13
66 -55 108 -94 42 -38 95 -86 119 -105 24 -19 55 -45 69 -57 70 -58 91 -73
101 -73 6 0 11 -5 11 -12 0 -9 3 -9 11 -1 8 8 5 24 -11 59 -21 49 -41 115 -43
147 -1 9 -5 17 -9 17 -4 0 -8 9 -8 19 0 11 -4 22 -10 26 -5 3 -7 12 -3 20 3 9
0 22 -7 30 -6 8 -9 19 -5 25 3 5 -1 13 -9 16 -9 3 -13 10 -10 15 3 5 2 15 -3
22 -4 6 -8 14 -9 17 -11 37 -18 50 -26 50 -5 0 -7 4 -3 10 5 8 -11 42 -88 186
-10 19 -23 34 -28 34 -6 0 -8 4 -5 9 3 5 -5 20 -19 32 -13 13 -25 28 -25 33 0
5 -13 21 -29 37 -16 15 -27 29 -25 31 2 2 -21 29 -51 58 -30 30 -55 51 -55 47
0 -4 -15 8 -32 27 -18 18 -55 46 -83 62 -27 15 -53 33 -57 39 -4 5 -11 10 -15
11 -14 1 -68 28 -74 37 -3 5 -9 9 -12 9 -19 0 -47 12 -47 20 0 5 -4 6 -10 3
-5 -3 -29 4 -52 17 -24 12 -45 23 -48 23 -44 12 -69 20 -85 29 -11 6 -24 11
-30 12 -5 0 -23 6 -40 13 -29 11 -39 15 -100 41 -39 17 -65 22 -65 12z"/>
<path d="M2365 8441 c-22 -8 -42 -17 -45 -20 -3 -4 -14 -8 -25 -10 -11 -1 -29
-8 -40 -14 -11 -6 -22 -12 -25 -12 -9 -1 -74 -27 -120 -49 -25 -11 -47 -21
-50 -22 -12 -2 -46 -16 -60 -24 -8 -5 -42 -23 -75 -40 -33 -18 -74 -40 -92
-49 -105 -58 -343 -287 -343 -331 0 -6 -6 -13 -13 -16 -8 -3 -20 -20 -27 -39
-8 -19 -20 -35 -27 -35 -7 0 -13 -9 -13 -20 0 -11 -4 -20 -10 -20 -5 0 -9 -3
-8 -7 0 -5 -6 -24 -15 -43 -8 -19 -13 -38 -11 -42 3 -5 1 -8 -5 -8 -6 0 -13
-16 -17 -35 -3 -19 -11 -35 -16 -35 -5 0 -7 -9 -3 -19 3 -11 2 -22 -3 -25 -8
-5 -18 -37 -28 -91 -1 -5 -3 -13 -4 -17 -3 -9 -4 -13 -15 -53 -4 -16 -10 -34
-14 -40 -3 -5 -6 -14 -6 -20 -1 -19 -38 -120 -53 -142 -26 -41 11 -27 62 22
25 25 46 43 46 39 0 -4 24 15 53 42 72 67 115 104 124 106 5 1 20 13 35 27 15
14 65 60 110 101 87 78 154 154 200 227 15 24 32 43 38 43 5 0 10 6 10 13 0 7
7 22 15 32 8 11 33 45 54 75 22 30 45 60 51 67 5 7 10 15 10 19 0 3 10 19 23
34 12 15 31 40 42 56 11 16 48 61 83 101 34 40 62 75 62 78 0 3 45 50 99 105
55 55 96 101 93 103 -4 2 -25 -3 -47 -12z"/>
<path d="M5591 8290 c-8 -4 -22 -7 -32 -5 -12 2 -16 -1 -13 -10 5 -12 57 -15
68 -4 11 10 -10 28 -23 19z"/>
<path d="M5720 8202 c-5 -2 -10 -8 -10 -13 0 -6 5 -7 10 -4 6 3 10 1 10 -4 0
-6 5 -11 11 -11 10 0 39 24 39 33 0 5 -43 4 -60 -1z"/>
<path d="M5510 8152 c-8 -2 -22 -10 -30 -17 -13 -10 -32 -14 -80 -17 -8 -1
-18 -6 -22 -11 -3 -6 -20 -10 -37 -10 -25 0 -31 -4 -31 -22 0 -24 33 -44 63
-39 10 1 33 9 50 16 19 9 60 13 102 12 58 -2 73 1 88 17 17 18 29 23 53 20 17
-2 24 22 10 34 -17 15 -35 16 -55 6 -12 -7 -22 -6 -29 1 -9 9 -12 9 -12 0 0
-10 -7 -9 -27 1 -16 8 -35 12 -43 9z"/>
<path d="M8460 8041 c0 -6 7 -16 15 -23 53 -44 155 -144 155 -152 0 -5 11 -24
25 -42 14 -19 25 -36 24 -40 0 -4 3 -10 8 -13 11 -8 37 -63 35 -73 -1 -5 3 -8
8 -8 6 0 10 -9 10 -20 0 -11 5 -20 11 -20 6 0 8 -7 5 -16 -4 -9 -1 -23 5 -30
6 -8 9 -21 5 -29 -3 -9 0 -15 9 -15 9 0 12 -6 9 -15 -4 -8 -3 -23 2 -32 4 -10
8 -26 8 -35 1 -9 4 -20 9 -24 4 -4 7 -20 7 -36 0 -15 4 -28 9 -28 5 0 8 -8 7
-17 -3 -16 18 -107 32 -143 3 -8 7 -19 8 -25 10 -66 18 -96 25 -101 4 -2 6
-11 2 -19 -3 -8 0 -15 6 -15 6 0 11 -11 11 -24 0 -14 5 -37 12 -53 6 -15 12
-37 13 -48 1 -11 8 -33 15 -50 7 -16 14 -34 14 -40 1 -5 9 -25 19 -44 11 -19
14 -32 7 -29 -6 2 -11 7 -10 12 1 5 -5 13 -14 18 -9 5 -16 13 -16 19 0 15 -17
34 -145 163 -114 115 -164 160 -175 160 -3 0 -16 10 -30 23 -14 13 -33 26 -42
29 -10 3 -18 10 -18 15 0 5 -7 9 -15 9 -8 0 -15 5 -15 10 0 6 -5 10 -11 10 -6
0 -27 12 -47 28 -20 15 -41 30 -47 34 -5 4 -31 24 -58 43 -26 19 -50 35 -53
35 -10 0 -203 198 -198 203 3 3 -3 11 -14 18 -11 7 -18 19 -15 26 3 7 0 13 -6
13 -7 0 -21 21 -32 47 -15 35 -22 44 -29 33 -5 -8 -4 -22 3 -34 6 -12 11 -32
12 -46 1 -14 5 -33 9 -42 5 -10 6 -25 2 -33 -3 -8 -2 -15 3 -15 5 0 11 -14 14
-30 11 -58 31 -108 83 -214 56 -114 70 -137 77 -130 4 4 7 1 7 -7 0 -9 9 -25
20 -37 11 -12 20 -24 20 -28 0 -6 137 -141 182 -179 13 -11 49 -41 80 -67 31
-27 60 -48 65 -48 4 -1 19 -14 33 -30 13 -17 28 -30 33 -30 6 0 35 -21 65 -47
31 -27 59 -48 62 -48 13 0 290 -265 290 -278 0 -5 12 -20 28 -33 15 -13 23
-24 19 -24 -5 0 5 -18 22 -39 17 -21 31 -44 31 -50 0 -6 5 -11 12 -11 6 0 8
-3 5 -7 -7 -6 11 -33 22 -33 9 0 6 73 -3 88 -9 15 -8 509 2 530 14 32 -1 415
-18 437 -4 6 -6 20 -4 32 2 12 -1 25 -6 28 -6 3 -10 17 -10 30 0 13 -4 26 -10
30 -5 3 -7 12 -4 19 3 8 0 17 -5 21 -6 3 -9 11 -6 16 4 5 1 9 -4 9 -6 0 -11 9
-11 20 0 11 -5 20 -10 20 -6 0 -10 6 -8 13 2 12 -29 78 -42 87 -3 3 -17 25
-31 50 -13 25 -36 57 -51 72 -16 14 -28 30 -28 35 0 10 -137 143 -186 180 -25
19 -159 95 -174 99 -3 0 -18 6 -35 13 -16 7 -39 14 -51 15 -11 2 -26 6 -32 10
-7 4 -12 3 -12 -3z"/>
<path d="M1436 7973 c-4 -5 -11 -8 -14 -9 -41 -7 -72 -18 -72 -27 0 -6 -3 -7
-6 -4 -4 3 -26 -5 -50 -19 -24 -14 -44 -22 -44 -17 0 4 -5 0 -11 -9 -5 -10
-14 -18 -19 -18 -20 0 -230 -195 -230 -214 -1 -6 -14 -22 -30 -36 -17 -13 -30
-30 -30 -37 0 -8 -6 -16 -13 -19 -7 -2 -13 -14 -14 -25 -1 -11 -11 -29 -23
-39 -11 -10 -20 -22 -19 -26 2 -17 -13 -54 -23 -54 -5 0 -7 -4 -3 -9 3 -5 0
-13 -6 -16 -5 -4 -8 -13 -5 -20 3 -8 -1 -19 -9 -25 -8 -6 -11 -18 -8 -26 3 -8
1 -20 -5 -27 -5 -6 -10 -19 -11 -27 -1 -8 -4 -39 -7 -67 -3 -29 -9 -53 -13
-53 -4 0 -6 -38 -5 -85 1 -47 -3 -88 -7 -91 -11 -6 -12 -118 -2 -128 5 -4 8
-57 8 -116 0 -60 4 -112 8 -116 10 -11 9 -402 -2 -408 -14 -9 3 -66 20 -66 9
0 40 66 36 76 -1 3 6 10 16 15 9 6 17 16 17 24 0 7 4 15 8 17 4 2 21 21 37 43
17 22 42 50 58 63 15 13 27 29 27 35 0 12 69 78 166 159 82 69 94 78 101 78 3
0 13 7 22 15 9 8 36 31 61 50 25 20 68 55 95 80 28 24 74 66 103 91 28 26 52
52 52 57 0 6 21 31 48 57 26 27 63 71 82 99 19 29 45 65 58 80 12 16 22 36 22
44 0 9 6 20 13 24 13 8 41 60 42 78 0 6 8 25 18 44 9 18 14 37 11 42 -3 5 0 9
5 9 6 0 11 14 11 30 0 17 4 30 10 30 5 0 7 7 4 15 -4 8 -2 21 3 28 5 6 9 33 9
60 -1 26 2 47 5 47 12 0 17 38 6 49 -16 16 -30 13 -23 -4 3 -8 1 -15 -4 -15
-6 0 -10 -8 -10 -18 0 -11 -9 -27 -20 -37 -11 -10 -18 -21 -15 -25 2 -4 -7
-22 -20 -41 -35 -47 -166 -179 -178 -179 -6 0 -8 -3 -4 -6 6 -7 -78 -74 -93
-74 -5 0 -13 -6 -17 -13 -4 -6 -28 -26 -53 -42 -25 -16 -49 -36 -53 -42 -4 -7
-13 -13 -18 -13 -9 0 -36 -18 -97 -65 -7 -5 -27 -22 -43 -37 -16 -16 -33 -28
-37 -28 -10 0 -152 -143 -152 -153 0 -5 -14 -22 -31 -38 -17 -16 -27 -29 -23
-29 5 0 2 -6 -6 -13 -19 -16 -37 -44 -51 -79 -6 -16 -15 -28 -20 -28 -11 0
-12 24 -1 34 4 4 7 11 8 14 6 36 18 73 25 78 5 3 7 10 4 15 -4 5 -1 9 4 9 6 0
11 9 11 19 0 11 4 22 10 26 5 3 7 12 3 20 -3 9 0 21 6 29 7 8 11 18 10 22 -1
5 0 16 4 24 9 26 20 75 18 84 -1 4 3 14 10 22 6 8 9 23 6 34 -3 11 0 26 7 33
7 7 11 18 8 25 -2 7 0 20 4 30 4 9 8 24 9 32 3 29 17 95 22 110 4 8 5 21 4 28
-1 8 3 20 10 28 6 8 9 23 6 34 -3 11 0 23 6 28 7 4 13 16 14 27 3 48 56 181
85 214 8 9 13 22 11 28 -2 6 9 24 24 40 15 16 30 33 31 38 6 16 101 113 106
108 2 -3 13 4 24 15 11 11 18 23 15 26 -9 8 -28 7 -37 -1z m-471 -1293 c-3 -5
-10 -10 -16 -10 -5 0 -9 5 -9 10 0 6 7 10 16 10 8 0 12 -4 9 -10z"/>
<path d="M5318 7944 c-5 -4 -8 -18 -8 -30 0 -17 5 -22 20 -21 19 1 29 27 11
27 -5 0 -11 7 -13 16 -2 9 -6 12 -10 8z"/>
<path d="M6550 7640 c-26 -26 -16 -47 31 -62 22 -6 53 -24 69 -40 25 -23 32
-26 36 -13 4 8 3 27 -1 43 -4 15 -5 27 -4 27 2 0 -9 12 -24 27 -37 37 -81 44
-107 18z"/>
<path d="M5506 7604 c-4 -9 -5 -18 -3 -20 1 -2 9 1 17 6 11 7 12 12 4 20 -8 8
-13 7 -18 -6z"/>
<path d="M5563 7573 c-19 -7 -16 -27 7 -41 16 -10 20 -10 20 0 0 7 11 0 25
-16 25 -29 55 -30 51 -1 -5 37 -69 73 -103 58z"/>
<path d="M5456 7543 c-5 -6 18 -33 28 -33 3 0 6 6 6 14 0 15 -24 28 -34 19z"/>
<path d="M5511 7419 c8 -16 14 -18 22 -10 9 9 8 14 -3 21 -24 16 -31 11 -19
-11z"/>
<path d="M9200 7411 c0 -6 4 -13 10 -16 8 -5 71 -126 76 -145 1 -3 5 -20 9
-37 4 -18 11 -33 15 -33 3 0 6 -10 5 -22 -1 -13 2 -28 7 -35 6 -7 8 -18 6 -25
-3 -7 0 -26 7 -43 6 -16 10 -55 9 -85 -2 -30 1 -59 5 -65 8 -10 6 -74 -4 -145
-2 -19 -7 -73 -11 -120 -3 -47 -8 -92 -12 -100 -13 -32 -28 -642 -16 -669 11
-26 11 -162 1 -158 -9 3 -14 31 -17 89 -1 10 -5 20 -11 23 -5 4 -9 16 -9 29 0
12 -5 27 -11 33 -6 6 -12 17 -14 24 -9 39 -18 59 -28 59 -6 0 -8 3 -4 6 7 8
-32 84 -44 84 -5 0 -9 6 -9 13 0 8 -9 22 -20 32 -11 10 -20 22 -20 27 0 11
-243 249 -330 323 -141 119 -256 242 -308 328 -24 40 -38 55 -45 48 -7 -7 -7
-18 1 -33 6 -13 10 -35 8 -50 -2 -16 1 -28 5 -28 5 0 9 -9 9 -20 0 -11 4 -20
8 -20 5 0 8 -10 7 -22 -1 -13 2 -30 6 -38 14 -28 22 -55 20 -67 -1 -7 3 -13 8
-13 6 0 8 -6 5 -14 -3 -8 -1 -17 5 -21 6 -3 11 -17 11 -31 0 -13 4 -24 10 -24
5 0 9 -3 8 -7 -1 -5 4 -24 11 -43 8 -19 15 -41 17 -48 1 -7 9 -24 18 -37 9
-13 16 -31 16 -40 0 -8 3 -15 8 -15 4 0 14 -15 22 -32 7 -18 18 -37 22 -43 20
-25 78 -118 78 -125 0 -5 3 -10 8 -12 10 -4 62 -75 62 -85 0 -5 11 -17 25 -27
13 -10 23 -22 20 -26 -2 -4 7 -17 20 -30 13 -13 22 -26 20 -30 -3 -4 7 -16 20
-26 14 -10 25 -23 25 -27 0 -5 18 -31 40 -57 22 -26 40 -52 40 -57 0 -5 9 -15
20 -23 11 -8 20 -20 20 -27 0 -6 6 -16 13 -20 6 -4 21 -24 31 -43 11 -19 22
-37 25 -40 21 -18 86 -138 83 -152 -1 -5 2 -8 8 -8 5 0 10 -9 10 -20 0 -11 4
-20 8 -20 8 0 36 -60 33 -73 -1 -4 5 -18 14 -30 8 -12 15 -34 15 -49 0 -16 4
-28 8 -28 9 0 11 -5 16 -55 2 -16 6 -38 10 -47 3 -10 8 -25 11 -33 10 -31 25
-13 25 30 0 25 4 45 10 45 5 0 7 13 5 30 -2 16 1 32 6 35 5 4 9 21 9 40 0 19
4 36 9 39 5 3 7 15 4 26 -3 11 0 20 6 20 7 0 10 10 7 25 -3 14 0 25 5 25 5 0
9 11 9 25 0 14 5 25 12 25 6 0 9 3 6 6 -6 6 11 68 37 134 1 3 6 20 10 38 4 18
12 35 16 38 5 3 7 10 4 15 -4 5 -1 9 4 9 6 0 11 8 11 18 0 10 7 28 16 40 8 12
13 22 9 22 -3 0 4 18 15 40 11 22 17 40 13 40 -4 0 -2 5 5 12 7 7 12 25 12 40
0 15 4 28 9 28 4 0 6 11 3 25 -2 14 0 25 7 25 6 0 11 10 11 23 0 12 4 49 10
82 8 48 19 176 20 230 1 112 -15 324 -27 355 -3 8 -7 24 -9 35 -1 11 -5 29 -7
40 -34 135 -27 112 -68 225 -37 101 -120 259 -141 268 -5 2 -8 9 -8 16 0 7 -9
21 -20 31 -11 10 -20 24 -20 32 0 7 -5 13 -10 13 -6 0 -15 11 -20 25 -5 14
-14 25 -20 25 -5 0 -10 6 -10 14 0 7 -21 32 -46 55 -46 41 -64 50 -64 32z
m130 -1751 c0 -22 -4 -40 -8 -40 -5 0 -9 18 -10 40 -1 22 3 40 8 40 6 0 10
-18 10 -40z"/>
<path d="M693 7324 c-10 -14 -26 -34 -35 -45 -10 -10 -18 -21 -18 -24 0 -8
-40 -63 -67 -93 -12 -13 -22 -27 -21 -31 2 -9 -34 -71 -54 -93 -10 -10 -18
-20 -17 -23 0 -3 -10 -29 -23 -58 -14 -29 -33 -72 -42 -97 -10 -25 -24 -58
-31 -75 -8 -16 -20 -50 -26 -75 -7 -25 -14 -49 -16 -55 -2 -5 -6 -26 -9 -45
-4 -19 -10 -39 -14 -45 -4 -5 -5 -29 -4 -52 2 -24 0 -43 -4 -43 -9 0 -10 -401
0 -415 3 -6 5 -25 4 -43 -1 -18 1 -35 6 -38 4 -3 8 -20 8 -39 0 -19 5 -37 11
-40 6 -4 8 -13 5 -20 -3 -8 1 -18 8 -24 7 -6 11 -22 8 -36 -2 -15 0 -25 7 -25
7 0 10 -4 6 -10 -3 -5 -2 -17 3 -27 17 -32 52 -128 52 -141 0 -6 4 -12 10 -12
5 0 7 -6 4 -14 -3 -8 0 -17 5 -21 6 -3 9 -10 6 -15 -3 -4 2 -13 10 -20 7 -6
12 -17 9 -25 -3 -7 -1 -16 5 -19 9 -6 16 -26 36 -96 3 -9 27 -65 36 -83 6 -10
7 -22 4 -27 -4 -6 -1 -10 6 -10 7 0 9 -10 7 -25 -3 -13 -1 -26 3 -27 5 -2 9
-18 11 -35 1 -18 5 -33 9 -33 7 0 28 -111 32 -172 2 -20 6 -40 10 -44 9 -9 29
45 21 57 -3 6 -1 15 4 22 5 7 13 30 17 52 4 22 11 46 17 53 6 6 8 12 5 12 -8
0 39 117 65 160 5 8 11 23 14 33 4 9 10 17 15 17 5 0 8 3 7 8 -3 12 59 131 75
143 11 8 34 47 43 72 3 9 10 17 15 17 5 0 14 11 19 25 5 14 14 25 20 25 6 0 9
4 6 9 -3 5 1 14 9 21 8 7 15 17 15 22 0 5 12 20 26 33 15 14 23 25 19 25 -4 0
8 19 27 43 18 23 51 69 73 102 22 33 42 62 45 65 7 7 29 42 37 60 4 8 15 23
24 33 26 28 129 219 129 240 0 9 5 17 11 17 5 0 8 4 4 9 -3 5 -1 12 4 15 7 5
16 35 22 74 0 4 5 12 11 19 5 7 7 17 3 23 -3 5 -1 10 4 10 6 0 11 11 11 25 0
14 4 25 10 25 5 0 10 10 10 23 -1 32 11 87 19 87 3 0 7 15 8 33 4 58 11 105
17 116 4 5 2 12 -4 16 -5 3 -15 -7 -22 -22 -7 -15 -15 -30 -18 -33 -3 -3 -18
-23 -33 -46 -15 -22 -35 -50 -45 -60 -9 -11 -22 -29 -28 -39 -6 -10 -19 -23
-29 -29 -31 -19 -375 -345 -375 -357 0 -4 -17 -25 -37 -47 -21 -22 -48 -53
-59 -68 -38 -52 -104 -164 -96 -164 4 0 2 -4 -3 -8 -10 -7 -38 -59 -39 -74 -1
-3 -4 -10 -8 -14 -5 -4 -8 -18 -8 -30 0 -13 -5 -26 -10 -29 -6 -4 -10 -12 -9
-18 1 -7 -1 -20 -6 -30 -4 -10 -5 -21 -2 -24 4 -3 1 -15 -5 -27 -6 -11 -10
-40 -9 -63 0 -24 -3 -43 -8 -43 -11 0 -11 140 0 155 4 6 7 46 7 90 -1 45 3 91
7 104 10 32 9 230 -2 266 -5 17 -8 51 -7 78 1 26 -2 47 -7 47 -6 0 -8 23 -6
50 2 33 -1 54 -10 62 -7 5 -10 15 -6 21 8 13 6 75 -4 90 -4 7 -8 35 -8 62 -1
28 -4 57 -8 65 -7 15 -3 335 5 400 2 19 8 42 13 50 5 8 10 23 11 34 3 31 9 49
22 73 7 12 12 26 12 32 0 6 14 33 30 59 17 27 30 52 30 56 0 16 -31 3 -47 -20z"/>
<path d="M5677 7258 c6 -7 13 -25 17 -40 4 -17 20 -35 46 -49 22 -13 40 -26
40 -31 0 -4 8 -8 18 -8 16 0 53 -26 93 -65 14 -13 17 -13 22 -2 7 18 -6 38
-26 41 -9 1 -26 14 -37 29 -12 15 -26 25 -31 22 -5 -4 -9 -1 -9 5 0 6 -4 9 -9
6 -12 -8 -39 34 -36 55 2 9 -4 16 -14 16 -34 0 -41 3 -41 18 0 9 -9 15 -21 15
-16 0 -19 -3 -12 -12z"/>
<path d="M3765 7240 c-8 -13 -1 -24 14 -19 6 3 7 10 2 18 -6 10 -10 10 -16 1z"/>
<path d="M4390 6580 c0 -5 7 -10 15 -10 8 0 15 5 15 10 0 6 -7 10 -15 10 -8 0
-15 -4 -15 -10z"/>
<path d="M4326 6563 c-13 -14 -4 -22 23 -21 18 1 27 6 25 12 -5 13 -38 18 -48
9z"/>
<path d="M9764 6110 c2 -25 5 -45 6 -45 7 0 5 -232 -2 -242 -5 -6 -8 -17 -7
-25 3 -17 -12 -110 -20 -123 -3 -5 -6 -19 -7 -30 -1 -11 -4 -27 -7 -35 -3 -8
-16 -51 -30 -95 -14 -44 -37 -106 -51 -139 -14 -32 -23 -62 -20 -67 3 -5 1 -9
-4 -9 -9 0 -25 -37 -23 -52 1 -5 -4 -8 -9 -8 -5 0 -10 -7 -10 -15 0 -17 -41
-107 -53 -116 -4 -3 -7 -10 -5 -15 1 -5 -7 -29 -19 -54 -33 -71 -47 -104 -49
-115 -1 -9 -4 -18 -21 -62 -3 -10 -7 -21 -7 -25 -1 -3 -4 -10 -8 -14 -5 -4 -8
-19 -8 -33 0 -14 -6 -37 -13 -51 -7 -14 -12 -35 -11 -47 1 -13 -3 -23 -7 -23
-5 0 -9 -15 -9 -33 0 -19 -3 -37 -7 -41 -5 -4 -8 -15 -9 -24 0 -10 -4 -25 -8
-34 -5 -10 -6 -25 -3 -33 4 -8 2 -17 -3 -20 -6 -4 -10 -19 -10 -35 0 -16 -4
-31 -9 -35 -6 -3 -8 -14 -6 -25 2 -11 -1 -23 -7 -26 -8 -5 -9 7 -3 42 11 72 8
312 -5 364 -6 25 -11 54 -11 65 0 10 -4 24 -9 30 -4 5 -11 27 -15 48 -4 20
-11 37 -17 37 -5 0 -8 6 -6 13 3 14 -52 130 -64 135 -4 2 -8 12 -8 22 0 9 -7
23 -15 30 -9 7 -13 15 -10 18 3 3 -7 20 -21 39 -14 18 -21 33 -17 33 4 0 4 4
-2 8 -13 9 -34 42 -41 65 -4 9 -10 17 -15 17 -5 0 -16 18 -25 40 -9 22 -20 40
-24 40 -4 0 -13 12 -19 28 -13 31 -43 85 -52 92 -9 7 -103 193 -104 205 -1 6
-8 26 -17 45 -9 19 -14 38 -12 42 3 5 0 8 -6 8 -7 0 -10 6 -7 14 6 14 -13 66
-23 66 -3 0 -6 -72 -6 -160 0 -88 3 -160 7 -160 7 0 18 -93 20 -162 1 -21 5
-38 9 -38 4 0 7 -16 5 -35 -1 -20 2 -38 7 -41 4 -3 8 -20 8 -39 0 -19 4 -36 8
-39 5 -3 7 -19 6 -35 -1 -17 2 -31 6 -31 5 0 9 -8 9 -17 1 -33 13 -88 23 -100
5 -7 7 -17 3 -23 -4 -6 -2 -16 3 -23 13 -17 26 -67 24 -94 0 -13 3 -23 8 -23
6 0 10 -13 10 -28 0 -16 3 -32 7 -36 7 -6 10 -19 18 -61 2 -11 9 -33 16 -50
13 -31 18 -50 23 -75 8 -39 20 -76 28 -87 5 -7 7 -17 4 -22 -4 -5 -2 -12 4
-16 5 -3 10 -15 10 -26 0 -10 5 -19 11 -19 5 0 8 -4 5 -8 -3 -5 6 -37 18 -73
13 -35 22 -72 21 -81 -2 -10 1 -18 6 -18 5 0 9 -15 9 -33 0 -19 3 -37 8 -41 4
-4 7 -93 7 -197 0 -104 -3 -189 -7 -189 -5 0 -8 -22 -8 -50 0 -27 3 -50 8 -50
4 0 23 25 42 55 19 30 38 54 43 55 4 0 7 7 7 15 0 7 6 18 13 22 7 4 28 31 46
60 19 29 40 54 47 57 8 3 14 11 14 17 0 6 12 26 28 43 15 18 36 44 47 59 11
14 47 61 80 103 33 43 70 88 81 101 12 12 20 24 18 26 -2 2 7 14 21 27 14 13
25 28 25 35 0 6 9 17 20 25 11 8 20 20 20 27 0 6 7 16 16 21 9 5 15 12 15 15
-1 4 11 31 26 60 15 28 28 54 28 57 3 10 17 45 27 70 6 14 12 30 12 35 1 6 8
21 16 35 8 14 15 30 17 35 1 6 7 30 13 55 6 25 13 52 17 60 4 8 8 26 9 39 2
13 7 28 13 34 5 5 7 16 4 23 -3 8 -2 22 2 32 5 9 9 28 11 42 6 46 13 85 21
130 5 25 8 63 7 85 -1 22 2 45 6 50 12 17 -2 335 -18 397 -5 20 -7 39 -5 42 3
3 2 13 -2 23 -5 10 -9 27 -10 38 -1 11 -8 40 -15 65 -8 25 -13 51 -11 58 1 6
-2 12 -7 12 -8 0 -38 98 -34 113 1 4 -2 7 -8 7 -5 0 -10 6 -10 13 0 7 -7 22
-15 33 -13 17 -14 15 -11 -26z m-461 -1801 c-6 -23 -22 -15 -18 9 2 9 4 22 4
27 1 6 5 4 10 -4 5 -7 6 -22 4 -32z m-13 -54 c0 -8 -4 -15 -10 -15 -5 0 -10 7
-10 15 0 8 5 15 10 15 6 0 10 -7 10 -15z"/>
<path d="M202 6072 c3 -12 -13 -52 -21 -52 -3 0 -7 -8 -8 -17 -4 -36 -11 -69
-23 -98 -7 -16 -14 -43 -15 -60 -2 -16 -4 -30 -5 -30 -3 0 -9 -31 -16 -82 -3
-24 -10 -43 -14 -43 -10 0 -10 -2 -16 -277 -3 -112 -1 -203 3 -203 5 0 8 -25
7 -55 -1 -30 3 -55 8 -55 5 0 7 -18 5 -40 -2 -21 0 -41 5 -42 4 -2 11 -26 13
-53 8 -71 10 -84 18 -91 4 -4 7 -18 7 -31 0 -12 4 -23 8 -23 5 0 8 -10 7 -22
-1 -13 2 -28 7 -34 5 -7 8 -16 7 -20 -3 -14 13 -67 24 -81 5 -7 7 -13 3 -13
-4 0 1 -15 11 -32 9 -18 16 -36 15 -40 -1 -5 2 -8 7 -8 5 0 12 -12 16 -27 3
-15 10 -30 13 -33 4 -3 20 -30 36 -60 16 -30 37 -64 47 -76 11 -11 19 -25 19
-31 0 -6 7 -13 15 -17 8 -3 15 -12 15 -20 0 -8 13 -25 29 -39 17 -14 28 -27
26 -29 -3 -2 13 -22 35 -43 22 -22 40 -43 40 -48 0 -5 15 -24 32 -43 18 -18
49 -54 68 -80 19 -25 45 -57 58 -70 12 -13 22 -28 22 -33 0 -6 9 -16 20 -23
11 -7 20 -17 20 -21 0 -8 15 -28 60 -84 6 -7 10 -15 10 -19 0 -11 63 -104 71
-104 11 0 16 23 12 60 -3 19 -6 77 -9 129 -2 51 -9 100 -15 107 -8 10 -8 14 0
14 7 0 11 29 11 85 0 47 4 85 9 85 5 0 8 12 7 27 -2 15 0 35 5 43 11 22 22 53
24 70 1 8 5 24 9 35 5 11 10 27 14 35 3 8 4 19 3 24 -1 5 1 16 5 25 9 20 9 20
19 56 4 17 10 35 14 40 3 6 6 18 7 28 1 9 2 18 4 20 1 1 3 11 5 22 2 11 8 21
14 23 5 2 7 10 4 18 -3 9 -1 25 5 37 11 21 29 88 36 132 2 11 5 21 6 23 1 1 3
6 4 11 0 5 4 13 9 17 4 4 7 23 7 41 0 20 4 32 10 28 5 -3 10 4 10 17 0 40 6
73 15 89 10 15 15 41 19 102 1 21 6 42 12 45 5 4 10 25 11 47 3 53 10 111 21
162 6 27 5 46 -1 52 -7 7 -6 12 5 16 10 4 14 19 12 53 -1 26 2 52 6 57 12 16
9 306 -4 302 -6 -2 -12 -13 -14 -25 -2 -12 -7 -22 -11 -22 -4 0 -7 -10 -6 -22
1 -13 -2 -30 -6 -38 -8 -15 -21 -51 -23 -60 -3 -14 -31 -81 -52 -125 -32 -65
-46 -88 -61 -98 -7 -4 -13 -14 -13 -21 0 -8 -7 -19 -15 -26 -8 -7 -12 -16 -9
-21 3 -5 0 -9 -5 -9 -6 0 -11 -7 -11 -15 0 -8 -4 -15 -8 -15 -8 0 -36 -50 -33
-58 1 -1 -4 -9 -11 -17 -32 -36 -43 -50 -41 -55 3 -9 -51 -120 -59 -120 -4 0
-5 -7 -2 -15 4 -8 2 -15 -4 -15 -9 0 -34 -50 -37 -75 0 -5 -7 -21 -15 -35 -8
-14 -13 -29 -12 -34 2 -4 -1 -13 -6 -20 -10 -12 -26 -67 -24 -78 1 -5 -2 -8
-8 -8 -5 0 -9 -10 -9 -22 0 -13 -5 -41 -11 -63 -6 -22 -13 -56 -14 -75 -2 -19
-6 -42 -9 -50 -7 -18 -2 -229 7 -283 4 -22 3 -36 -2 -33 -9 6 -23 52 -27 91
-1 11 -3 22 -5 25 -3 5 -9 46 -14 97 -1 18 -7 38 -13 45 -6 7 -9 23 -7 36 2
12 0 22 -5 22 -4 0 -11 17 -14 38 -7 40 -14 76 -17 80 -2 1 -3 6 -4 11 0 5 -4
13 -8 17 -5 4 -8 18 -8 30 0 13 -5 26 -10 29 -6 4 -8 10 -5 15 3 5 1 11 -5 15
-6 4 -8 11 -5 16 4 5 1 9 -4 9 -6 0 -11 9 -11 19 0 11 -5 23 -10 26 -6 4 -8
10 -5 15 3 5 1 11 -5 15 -5 3 -10 15 -10 26 0 10 -5 19 -12 19 -6 0 -9 3 -5 6
3 3 -5 25 -18 47 -12 23 -24 47 -25 52 -1 6 -11 30 -22 55 -11 25 -35 81 -55
125 -19 44 -42 92 -49 107 -8 15 -14 30 -13 35 2 9 -16 59 -30 83 -5 9 -12 35
-16 58 -4 23 -10 44 -15 47 -4 2 -6 18 -5 35 1 16 -1 30 -5 30 -20 0 -29 280
-12 357 7 33 6 43 -4 47 -8 3 -13 2 -12 -2z m504 -1819 c-10 -10 -19 5 -10 18
6 11 8 11 12 0 2 -7 1 -15 -2 -18z m19 -42 c3 -5 1 -12 -5 -16 -5 -3 -10 1
-10 9 0 18 6 21 15 7z"/>
<path d="M5553 5981 c-11 -11 -12 -16 -2 -22 7 -4 18 -5 26 -2 7 3 13 0 13 -7
0 -19 24 -37 47 -35 32 2 66 44 52 62 -9 9 -15 10 -25 3 -9 -8 -15 -7 -21 2
-11 17 -73 17 -90 -1z"/>
<path d="M5395 5982 c-14 -10 -17 -32 -5 -32 11 0 26 28 18 35 -2 2 -8 1 -13
-3z"/>
<path d="M5496 5982 c-3 -6 -18 -9 -31 -6 -14 2 -25 0 -25 -6 0 -5 3 -10 8
-11 65 -7 77 -3 63 20 -6 9 -11 10 -15 3z"/>
<path d="M3433 4969 c7 -11 15 -19 18 -19 3 0 6 -35 5 -77 -1 -78 -11 -97 -40
-74 -7 6 -16 8 -19 4 -11 -10 -8 -53 3 -53 33 0 60 -17 60 -37 0 -16 1 -16 16
-1 13 13 16 38 15 139 -1 67 -3 124 -5 126 -1 2 -17 5 -34 7 -27 3 -29 1 -19
-15z"/>
<path d="M6820 4799 c0 -4 -7 -5 -17 -2 -11 4 -14 3 -9 -5 4 -7 2 -12 -5 -12
-9 0 -10 -3 -3 -10 15 -15 62 -22 80 -12 12 7 12 11 0 27 -14 19 -46 30 -46
14z"/>
<path d="M8823 4770 c3 -11 1 -20 -4 -20 -5 0 -9 -6 -9 -12 0 -15 -36 -111
-56 -150 -8 -14 -14 -38 -14 -52 0 -14 -4 -26 -8 -26 -4 0 -8 -8 -9 -17 -3
-28 -27 -137 -34 -148 -3 -5 -5 -27 -4 -47 0 -21 -3 -38 -6 -38 -7 0 -17 -64
-22 -140 -1 -25 -5 -49 -8 -55 -4 -5 -6 -39 -5 -75 1 -36 -1 -69 -5 -75 -7
-10 -17 -140 -21 -282 -2 -46 -6 -83 -10 -83 -4 0 -7 -34 -7 -76 0 -42 -3 -80
-8 -83 -4 -3 -8 -26 -7 -51 0 -25 -3 -50 -7 -55 -5 -6 -7 -24 -5 -40 1 -17 -2
-41 -7 -55 -5 -14 -10 -36 -12 -50 -2 -14 -7 -36 -10 -50 -3 -14 -8 -40 -11
-57 -4 -18 -10 -33 -14 -33 -5 0 -7 -11 -4 -24 2 -14 0 -28 -6 -31 -5 -3 -10
-19 -10 -36 0 -16 -5 -29 -11 -29 -5 0 -8 -4 -4 -9 3 -5 0 -13 -6 -16 -5 -4
-8 -13 -5 -21 3 -8 1 -14 -4 -14 -6 0 -10 -7 -10 -15 0 -9 -10 -35 -21 -58
-12 -23 -21 -44 -20 -46 2 -2 -2 -7 -9 -11 -6 -4 -12 -13 -14 -21 -1 -8 -10
-28 -19 -45 -29 -55 -2 -52 78 10 22 17 42 34 43 39 2 4 8 7 14 7 6 0 27 14
48 30 21 17 43 30 48 30 6 0 15 6 19 13 4 7 25 21 46 32 20 11 37 23 37 27 0
5 7 8 15 8 8 0 15 4 15 9 0 5 14 14 30 21 17 7 30 17 30 23 0 6 3 8 6 4 3 -3
15 3 27 14 11 10 33 25 49 31 15 7 28 16 28 20 0 5 5 8 12 8 6 0 27 12 47 27
20 16 40 27 44 25 4 -1 10 5 13 13 4 8 10 15 15 15 13 0 72 42 82 58 4 6 13
12 18 12 12 0 100 69 112 88 4 6 12 12 18 12 23 0 349 349 349 375 0 3 5 11
10 18 41 48 50 62 50 73 0 7 6 17 13 21 19 12 71 111 117 223 12 30 26 63 31
73 6 10 7 22 4 27 -4 6 -2 10 3 10 8 0 20 38 23 75 0 6 4 15 9 20 6 8 13 38
25 110 1 6 3 12 5 15 11 21 23 360 12 360 -5 0 -8 25 -7 55 2 53 -6 68 -21 43
-5 -7 -7 -25 -6 -41 1 -15 -1 -34 -5 -40 -4 -7 -8 -19 -8 -27 0 -8 -3 -19 -6
-25 -10 -16 -22 -69 -20 -82 1 -7 -3 -13 -9 -13 -6 0 -10 -6 -9 -12 2 -12 -48
-125 -61 -138 -9 -9 -30 -44 -40 -67 -5 -13 -15 -23 -21 -23 -7 0 -10 -3 -6
-6 3 -4 -6 -23 -21 -42 -74 -98 -122 -151 -322 -354 -107 -109 -191 -198 -187
-198 4 0 -7 -13 -23 -29 -17 -15 -30 -32 -30 -36 0 -4 -11 -18 -26 -31 -14
-13 -22 -24 -18 -24 4 0 -5 -13 -21 -30 -16 -16 -25 -30 -20 -30 4 0 -2 -9
-15 -20 -13 -11 -19 -20 -15 -20 5 0 -4 -13 -20 -30 -16 -16 -25 -30 -20 -30
5 0 0 -6 -11 -14 -10 -8 -19 -18 -19 -23 0 -10 -53 -88 -77 -114 -10 -11 -18
-22 -18 -25 0 -3 -7 -12 -15 -20 -22 -23 -18 -9 15 52 17 30 28 59 25 64 -4 6
1 13 9 16 9 3 13 10 11 15 -3 5 1 22 10 38 8 17 15 39 15 51 0 11 4 20 9 20 5
0 7 9 4 20 -3 11 -1 26 5 33 5 6 9 23 8 37 -1 14 2 31 8 38 5 7 8 38 7 68 -1
30 1 54 6 54 11 0 10 116 0 126 -4 4 -7 40 -7 79 0 39 -3 75 -7 79 -4 4 -9 21
-10 39 -7 84 -11 113 -18 130 -4 10 -9 28 -10 40 -1 12 -3 22 -5 22 -1 0 -4
16 -6 35 -8 71 -17 115 -23 125 -4 6 -6 21 -5 35 1 14 -2 30 -6 35 -4 6 -8 32
-8 58 -1 26 -4 53 -8 58 -4 6 -6 69 -6 140 0 81 -4 129 -10 129 -6 0 -8 -9 -5
-20z m-19 -1655 c-4 -8 -11 -12 -16 -9 -6 4 -5 10 3 15 19 12 19 11 13 -6z"/>
<path d="M1159 4708 c0 -7 -1 -71 -1 -143 0 -71 -4 -134 -8 -140 -5 -5 -9 -21
-9 -35 -2 -52 -13 -125 -22 -136 -5 -6 -7 -20 -4 -32 2 -12 0 -22 -4 -22 -9 0
-21 -58 -21 -99 0 -13 -5 -30 -11 -37 -6 -7 -9 -21 -8 -31 2 -10 -1 -29 -6
-43 -4 -14 -7 -39 -7 -57 1 -18 -2 -34 -6 -37 -11 -7 -4 -373 9 -441 6 -33 12
-64 13 -70 1 -5 4 -14 8 -20 3 -5 12 -30 19 -55 15 -53 13 -46 28 -87 7 -18
17 -33 21 -33 5 0 7 -8 6 -17 -3 -20 10 -47 37 -75 9 -10 17 -23 17 -29 0 -20
-26 8 -77 84 -26 40 -51 74 -55 75 -5 2 -8 10 -8 18 0 8 -4 14 -10 14 -5 0
-10 5 -10 10 0 9 -35 65 -50 80 -3 3 -9 12 -15 21 -28 45 -52 76 -72 92 -13
10 -23 24 -23 30 0 7 -27 38 -60 70 -33 31 -60 61 -60 65 0 4 -81 89 -181 187
-100 99 -186 189 -191 200 -6 11 -24 31 -39 44 -16 13 -29 30 -29 37 0 7 -8
19 -17 26 -19 14 -23 20 -75 108 -17 30 -35 57 -40 58 -4 2 -8 10 -8 18 0 7
-9 33 -19 56 -28 60 -34 81 -32 96 1 6 -3 12 -10 12 -6 0 -9 8 -6 20 3 10 -1
27 -8 36 -6 9 -10 30 -9 46 2 17 -3 40 -11 51 -14 20 -15 1 -11 -203 5 -274 7
-310 18 -310 4 0 6 -10 4 -22 -2 -13 1 -32 7 -43 6 -11 10 -24 9 -29 -2 -4 2
-14 9 -22 6 -7 8 -18 5 -23 -4 -5 3 -26 14 -45 11 -20 19 -39 19 -42 -2 -10
24 -70 67 -156 25 -49 41 -88 37 -88 -5 0 0 -5 9 -11 10 -5 18 -17 18 -24 0
-8 5 -15 10 -15 6 0 14 -8 17 -17 15 -40 96 -136 225 -265 76 -76 141 -138
144 -138 4 0 35 -25 69 -55 35 -30 68 -55 74 -55 6 0 11 -4 11 -8 0 -7 90 -70
179 -127 9 -5 20 -16 24 -22 4 -7 14 -13 21 -13 8 0 16 -7 20 -15 3 -8 9 -14
14 -13 5 2 44 -20 88 -48 113 -72 133 -84 140 -84 3 1 14 -8 23 -19 10 -11 21
-18 25 -14 3 3 6 2 6 -4 0 -6 14 -16 30 -23 17 -7 30 -15 30 -19 0 -3 21 -17
48 -31 26 -13 51 -30 55 -37 4 -7 13 -13 18 -13 6 0 17 -7 25 -15 22 -21 43
-19 41 5 -1 11 -4 20 -8 20 -6 0 -17 30 -17 47 0 3 -4 9 -9 12 -4 3 -18 26
-29 51 -12 25 -31 68 -44 95 -13 28 -24 55 -24 60 -1 6 -7 20 -14 33 -8 13
-11 29 -9 36 3 6 -1 20 -9 30 -8 11 -11 30 -7 47 3 17 1 29 -4 29 -10 0 -22
67 -25 138 -1 17 -4 32 -8 32 -4 0 -8 19 -8 43 -2 74 -14 182 -21 192 -4 6 -7
39 -6 75 1 36 -2 70 -6 75 -5 6 -8 42 -7 79 1 37 -3 71 -8 74 -5 4 -10 36 -11
72 -3 104 -10 184 -16 200 -3 8 -8 38 -11 65 -3 28 -8 68 -11 90 -3 22 -6 56
-8 75 -1 19 -7 41 -14 48 -7 7 -10 25 -6 42 4 20 2 30 -7 30 -7 0 -10 8 -7 20
3 11 1 23 -4 26 -5 3 -9 15 -9 28 0 12 -3 26 -7 30 -4 4 -8 13 -8 19 0 11 -19
72 -32 107 -4 8 -7 17 -8 20 -2 5 -6 16 -21 55 -4 11 -8 23 -9 28 -2 4 -4 10
-5 15 -1 4 -2 10 -1 15 0 4 -3 7 -9 7 -5 0 -10 -6 -11 -12z"/>
<path d="M3478 4686 c-9 -9 -20 -11 -35 -5 -20 7 -21 5 -18 -38 2 -25 8 -49
13 -52 4 -3 16 -17 25 -30 l16 -25 17 39 c11 27 13 40 5 43 -14 5 -15 62 -1
62 6 0 10 5 10 10 0 14 -17 12 -32 -4z"/>
<path d="M3492 4478 c6 -18 28 -21 28 -4 0 9 -7 16 -16 16 -9 0 -14 -5 -12
-12z"/>
<path d="M3513 4415 c0 -8 7 -15 15 -15 7 0 12 5 10 12 -6 18 -25 21 -25 3z"/>
<path d="M3530 4346 c0 -2 7 -9 15 -16 12 -10 15 -10 15 4 0 9 -7 16 -15 16
-8 0 -15 -2 -15 -4z"/>
<path d="M3460 4300 c0 -13 5 -18 15 -14 8 4 15 10 15 14 0 4 -7 10 -15 14
-10 4 -15 -1 -15 -14z"/>
<path d="M6429 4083 c0 -10 -2 -26 -4 -36 -2 -13 2 -17 13 -15 9 2 16 11 16
21 -1 9 -2 24 -3 32 -2 21 -21 19 -22 -2z"/>
<path d="M8487 3762 c-20 -21 -37 -41 -37 -45 0 -5 -12 -19 -26 -32 -15 -14
-23 -25 -18 -25 5 0 -1 -10 -13 -22 -40 -42 -58 -65 -61 -79 -2 -8 -8 -15 -13
-17 -5 -2 -9 -9 -9 -15 0 -7 -12 -23 -25 -36 -14 -13 -24 -26 -21 -28 4 -5 -3
-15 -46 -63 -13 -14 -24 -27 -24 -30 -9 -30 -18 -50 -24 -50 -4 0 -15 -19 -26
-42 -10 -24 -21 -45 -24 -48 -6 -6 -65 -130 -66 -139 0 -3 -6 -19 -14 -36 -35
-79 -40 -94 -40 -109 0 -9 -5 -16 -11 -16 -5 0 -7 -5 -4 -10 4 -6 2 -16 -3
-23 -5 -7 -13 -25 -17 -42 -5 -16 -9 -32 -10 -35 -1 -3 -5 -17 -9 -32 -5 -16
-12 -28 -17 -28 -5 0 -6 -7 -3 -15 4 -8 2 -21 -4 -28 -6 -6 -10 -14 -11 -17 0
-6 -2 -13 -34 -110 -14 -42 -30 -87 -35 -100 -13 -31 -25 -63 -27 -72 -2 -5
-4 -11 -5 -15 -1 -5 -2 -11 -1 -15 0 -5 -4 -8 -9 -8 -6 0 -10 -7 -10 -16 0
-16 -78 -183 -91 -194 -3 -3 -11 -20 -18 -37 -8 -18 -17 -33 -21 -33 -4 0 -10
-8 -14 -17 -8 -27 -29 -56 -48 -71 -10 -7 -18 -19 -18 -27 0 -8 -8 -20 -17
-27 -10 -7 -38 -38 -63 -69 -25 -31 -54 -60 -65 -65 -11 -5 -21 -17 -23 -27
-3 -14 0 -16 20 -8 58 23 68 26 117 35 19 4 42 11 51 16 10 5 20 7 23 3 3 -3
14 -2 24 3 10 4 25 9 33 10 52 10 77 16 90 21 8 4 26 7 40 8 14 1 32 4 40 8
19 7 79 18 105 18 10 0 24 4 30 8 5 5 24 8 40 7 17 -1 37 5 47 12 10 8 18 9
22 4 7 -12 46 -3 46 10 0 6 11 7 24 4 14 -3 27 -2 30 3 3 4 29 12 58 16 53 8
64 10 73 15 3 1 8 3 13 5 4 1 14 4 22 7 8 4 39 14 68 24 28 10 52 22 52 26 0
4 3 7 8 6 10 -3 222 103 222 111 0 4 16 13 35 20 19 7 35 17 35 22 0 5 5 9 11
9 6 0 29 16 52 35 22 19 45 35 49 35 5 0 21 11 36 24 98 89 130 116 136 116 4
0 32 25 61 55 30 30 51 55 48 55 -3 0 18 26 48 58 86 93 105 116 112 135 3 9
11 17 18 17 6 0 9 7 5 15 -3 8 -1 15 3 15 27 0 200 337 192 374 -1 4 3 14 10
22 6 7 8 18 4 24 -3 5 -1 10 4 10 6 0 11 15 11 34 0 19 5 38 10 41 6 3 8 19 5
35 -3 16 -1 32 5 35 15 9 12 25 -5 25 -8 0 -15 -7 -15 -15 0 -8 -4 -15 -9 -15
-5 0 -7 -9 -4 -20 3 -11 0 -20 -6 -20 -6 0 -11 -7 -11 -15 0 -8 -3 -15 -8 -15
-4 0 -15 -18 -25 -40 -9 -23 -24 -43 -32 -46 -8 -4 -15 -12 -15 -18 0 -7 -11
-23 -25 -36 -13 -12 -23 -26 -22 -29 5 -16 -219 -221 -242 -221 -6 0 -15 -9
-21 -20 -6 -11 -16 -20 -22 -20 -6 0 -19 -6 -27 -14 -9 -8 -50 -33 -91 -57
-41 -23 -78 -46 -81 -51 -3 -5 -9 -9 -13 -8 -10 3 -120 -53 -128 -65 -4 -5 -8
-6 -8 -2 0 4 -19 -4 -42 -17 -78 -46 -133 -74 -153 -78 -11 -1 -25 -10 -32
-18 -6 -8 -15 -15 -20 -15 -9 0 -144 -66 -153 -75 -3 -3 -25 -16 -50 -29 -25
-13 -52 -29 -60 -36 -8 -7 -38 -25 -67 -41 -28 -15 -50 -31 -47 -35 2 -4 -4
-10 -15 -14 -10 -3 -31 -16 -45 -28 -14 -12 -43 -35 -63 -52 -20 -16 -58 -50
-85 -74 -26 -24 -48 -40 -48 -35 0 5 -7 0 -15 -10 -8 -11 -17 -17 -20 -14 -3
2 27 35 66 73 39 38 83 85 97 104 15 20 31 40 35 46 43 54 97 132 97 141 0 6
7 17 15 24 8 7 12 16 9 21 -3 5 0 9 5 9 6 0 11 7 11 15 0 8 5 15 12 15 6 0 8
3 5 6 -3 4 0 16 8 28 8 11 15 31 15 43 0 13 5 23 11 23 6 0 9 7 6 15 -4 8 -2
17 3 20 6 4 10 14 10 23 0 9 7 30 16 47 8 16 13 38 10 48 -2 10 1 20 9 23 7 3
11 14 8 24 -3 11 -2 28 3 37 4 10 8 30 8 45 1 14 4 30 9 34 4 4 7 26 7 49 0
23 3 45 7 49 6 6 10 34 17 132 1 22 7 47 11 55 5 7 8 28 6 46 -1 18 1 38 6 45
4 7 8 27 9 43 0 17 3 37 7 45 6 15 16 72 19 100 0 8 5 21 10 27 6 7 8 19 5 28
-4 8 -2 17 3 20 6 4 10 15 10 26 0 10 5 19 10 19 6 0 10 6 9 13 -4 20 12 70
33 105 30 49 17 57 -25 14z"/>
<path d="M1471 3741 c-10 -7 -7 -17 14 -51 14 -23 24 -48 21 -56 -3 -8 -1 -14
4 -14 6 0 10 -7 10 -15 0 -8 5 -15 11 -15 6 0 9 -7 5 -15 -3 -8 -1 -25 3 -38
25 -62 28 -71 47 -187 3 -19 8 -42 11 -50 6 -15 8 -31 17 -116 2 -22 7 -49 13
-60 5 -10 8 -32 7 -49 -1 -16 1 -34 5 -40 3 -5 6 -23 7 -40 1 -16 4 -37 7 -45
3 -8 8 -35 11 -60 7 -50 10 -68 19 -90 8 -22 18 -72 18 -92 0 -10 5 -18 11
-18 6 0 9 -3 6 -6 -8 -7 40 -138 52 -142 5 -2 7 -9 4 -16 -3 -8 13 -42 35 -77
23 -35 47 -75 53 -89 7 -14 20 -32 28 -42 8 -9 20 -23 25 -30 66 -84 88 -109
134 -155 29 -29 58 -50 63 -47 5 3 12 -3 15 -15 3 -11 9 -18 14 -15 5 3 9 0 9
-5 0 -15 -16 -14 -32 2 -7 6 -33 25 -58 42 -25 16 -49 36 -53 42 -4 7 -14 13
-21 13 -7 0 -27 15 -44 33 -37 38 -94 83 -100 79 -3 -2 -8 0 -11 5 -3 4 -26
22 -51 38 -25 16 -47 33 -50 37 -3 3 -18 10 -33 13 -15 4 -27 11 -27 15 0 5
-26 21 -57 36 -32 16 -60 32 -61 36 -2 5 -7 6 -12 3 -4 -3 -13 2 -20 10 -7 8
-18 15 -25 15 -6 0 -51 20 -98 44 -48 24 -87 41 -87 37 0 -3 -4 -1 -8 4 -7 10
-201 109 -214 110 -4 0 -17 8 -28 18 -12 10 -25 15 -30 12 -6 -4 -10 -2 -10 3
0 5 -8 13 -17 16 -27 10 -85 44 -92 53 -3 4 -22 17 -41 27 -19 11 -39 24 -45
28 -5 4 -24 19 -41 33 -18 14 -34 25 -37 25 -8 0 -195 189 -191 193 2 2 -7 14
-21 27 -14 13 -25 29 -25 36 0 7 -7 17 -16 22 -9 5 -15 11 -14 13 4 8 -23 59
-31 59 -5 0 -14 18 -20 40 -15 49 -25 51 -27 5 -1 -19 2 -35 7 -35 5 0 8 -6 8
-12 -1 -25 16 -98 24 -104 4 -2 6 -11 2 -19 -3 -8 0 -15 7 -15 6 0 10 -8 8
-18 -1 -9 7 -34 20 -54 12 -20 22 -40 20 -45 -3 -11 50 -113 68 -131 8 -7 14
-22 14 -32 0 -10 7 -20 15 -24 8 -3 15 -12 15 -21 0 -8 3 -15 8 -15 6 0 38
-49 43 -68 2 -4 13 -15 26 -25 13 -10 23 -23 23 -29 0 -35 381 -398 418 -398
5 0 13 -7 16 -16 4 -9 9 -14 13 -11 3 4 15 -4 27 -16 12 -12 23 -23 26 -24 22
-5 60 -28 60 -35 0 -5 5 -6 10 -3 5 3 10 2 10 -3 0 -4 30 -24 68 -43 37 -19
70 -38 74 -44 4 -5 8 -6 8 -2 0 5 12 2 28 -6 24 -13 80 -38 92 -42 3 -1 19 -5
35 -9 17 -4 37 -10 45 -14 8 -3 20 -7 25 -8 6 -1 13 -3 18 -4 18 -6 95 -23
112 -25 6 -1 18 -5 27 -9 10 -4 23 -6 30 -3 7 2 21 0 32 -5 18 -10 47 -15 111
-22 17 -1 37 -5 45 -9 8 -3 33 -8 55 -11 22 -3 56 -8 75 -11 19 -3 51 -7 70
-10 73 -11 106 -17 120 -22 8 -4 26 -7 40 -9 14 -1 26 -3 28 -4 3 -4 14 -6 60
-15 23 -4 42 -12 42 -17 0 -5 10 -8 23 -7 12 2 28 0 35 -5 7 -4 16 -6 19 -3 3
3 -35 45 -83 94 -49 48 -93 94 -99 103 -15 25 -114 174 -122 185 -13 17 -37
69 -35 78 1 4 -2 7 -7 7 -7 0 -15 16 -26 55 -1 6 -16 38 -33 73 -17 34 -28 62
-25 62 3 0 0 6 -6 13 -6 8 -8 17 -4 21 4 4 3 10 -3 14 -10 7 -38 85 -39 109 0
6 -4 15 -8 19 -4 4 -7 16 -7 26 0 10 -5 18 -11 18 -5 0 -7 4 -4 10 3 5 -3 27
-14 48 -11 22 -17 42 -14 46 4 3 1 6 -6 6 -8 0 -11 8 -8 20 3 11 2 20 -3 20
-4 0 -11 15 -15 33 -4 17 -9 34 -10 37 -13 34 -20 55 -25 75 -1 6 -12 28 -23
50 -12 22 -20 46 -19 53 2 6 -2 12 -8 12 -5 0 -10 7 -10 16 0 18 -30 75 -45
86 -5 4 -10 11 -11 15 -1 15 -38 83 -45 83 -5 0 -19 37 -18 48 0 2 -10 12 -22
23 -12 10 -19 19 -15 19 4 0 -6 18 -23 39 -17 21 -31 44 -31 50 0 6 -9 16 -20
23 -11 7 -20 16 -20 21 0 8 -50 75 -77 105 -7 7 -13 16 -13 20 0 4 -16 24 -36
45 -19 20 -32 37 -27 37 4 0 -3 7 -15 16 -13 9 -27 24 -30 35 -5 12 -12 15
-21 10z"/>
<path d="M7803 2730 c-10 -11 -22 -20 -27 -20 -5 0 -31 -18 -57 -40 -26 -22
-50 -40 -53 -40 -3 0 -19 -13 -34 -30 -16 -16 -33 -30 -37 -30 -15 0 -258
-227 -537 -502 -116 -115 -214 -208 -217 -208 -4 0 -18 -11 -31 -25 -13 -14
-29 -25 -36 -25 -7 0 -17 -7 -22 -16 -5 -9 -11 -16 -13 -15 -12 2 -49 -12 -49
-19 0 -4 -13 -13 -30 -20 -16 -7 -30 -16 -30 -21 0 -5 -7 -6 -15 -3 -8 4 -15
1 -15 -7 0 -7 -3 -10 -6 -6 -3 3 -25 -3 -49 -13 -24 -10 -46 -16 -49 -13 -3 4
-6 1 -6 -5 0 -6 -16 -14 -35 -18 -19 -3 -38 -10 -40 -15 -3 -4 -26 -11 -50
-15 -25 -3 -48 -10 -51 -15 -3 -5 -9 -7 -14 -4 -5 3 -11 1 -15 -5 -3 -5 -19
-10 -36 -10 -16 0 -29 -4 -29 -9 0 -5 -8 -7 -17 -5 -10 3 -27 -2 -38 -10 l-20
-15 20 -2 c11 -1 26 -1 33 0 6 1 12 -2 12 -7 0 -5 23 -8 50 -7 28 1 50 -1 50
-6 0 -5 10 -9 23 -8 12 0 42 -5 67 -11 25 -6 54 -12 65 -14 11 -2 27 -6 35 -9
8 -4 31 -9 50 -12 45 -7 62 -11 80 -18 14 -5 64 -18 85 -22 6 -1 12 -3 15 -5
3 -1 19 -3 37 -4 18 -1 35 -5 39 -9 4 -4 20 -7 36 -7 15 0 28 -4 28 -8 0 -4
10 -9 23 -9 12 -1 45 -7 72 -13 28 -6 60 -12 73 -12 12 0 22 -4 22 -7 0 -4 12
-8 28 -9 41 -3 105 -13 122 -19 8 -3 42 -6 75 -7 33 -1 65 -4 70 -8 14 -9 297
-7 310 2 6 4 30 6 55 5 25 -1 54 4 65 11 12 8 26 10 34 4 9 -5 19 -3 28 6 8 8
19 12 24 9 5 -4 15 -3 22 2 6 4 14 8 17 9 28 5 67 19 77 26 7 5 16 7 21 4 5
-3 21 3 34 14 14 11 28 17 31 13 4 -3 13 0 22 7 8 7 15 9 15 4 0 -5 4 -4 8 1
8 11 98 57 108 55 4 -1 10 2 13 7 8 11 40 30 79 48 17 9 32 19 32 23 0 4 13
13 30 20 16 7 39 24 52 37 13 14 26 25 31 25 20 0 277 255 277 275 0 4 15 25
33 48 37 47 101 167 92 175 -3 3 -35 -25 -72 -61 -79 -78 -127 -117 -141 -117
-6 0 -15 -6 -19 -12 -12 -20 -184 -109 -218 -114 -10 -1 -16 -3 -60 -20 -11
-4 -24 -6 -29 -5 -4 1 -13 -2 -20 -7 -6 -5 -29 -13 -51 -17 -44 -9 -53 -11
-60 -15 -3 -1 -13 -3 -22 -4 -10 -1 -34 -6 -53 -11 -19 -5 -45 -7 -57 -6 -13
1 -28 -1 -35 -6 -7 -4 -34 -8 -60 -8 -26 0 -50 -4 -54 -8 -4 -4 -38 -7 -75 -7
-37 0 -70 -4 -73 -8 -2 -4 -37 -7 -78 -6 -40 1 -77 -1 -83 -5 -5 -3 -41 -7
-80 -9 -62 -2 -120 -8 -260 -26 -115 -16 -177 -26 -187 -32 -6 -4 -25 -9 -42
-11 -17 -1 -56 -8 -86 -14 -86 -17 -100 -18 -105 -9 -4 7 51 24 69 21 4 -1 13
2 20 7 6 6 27 13 46 17 19 4 40 12 47 17 7 5 17 7 23 3 5 -3 10 -2 10 2 0 5
12 14 28 20 34 15 65 35 74 48 4 6 8 7 8 2 0 -10 52 24 63 40 4 7 14 13 21 13
7 0 46 36 87 79 94 101 115 127 131 162 7 16 16 29 20 29 5 0 8 5 8 11 0 6 9
24 21 40 11 16 17 29 13 29 -4 0 -1 8 7 18 8 9 27 44 43 77 15 33 34 74 42 90
8 17 14 32 14 35 0 3 25 52 55 110 30 57 55 108 55 112 0 5 5 8 11 8 5 0 8 4
4 9 -3 5 2 16 10 24 8 9 15 19 15 22 0 4 14 24 30 45 17 21 30 41 30 44 0 14
-31 5 -47 -14z"/>
<path d="M2163 2694 c0 -8 4 -14 9 -14 4 0 8 -7 8 -15 0 -9 7 -18 16 -22 8 -3
13 -11 10 -18 -3 -8 1 -16 8 -18 7 -3 21 -21 30 -41 9 -20 22 -36 28 -36 5 0
8 -7 4 -15 -3 -8 -2 -15 2 -15 5 0 19 -25 33 -55 13 -30 28 -55 33 -55 4 0 6
-7 2 -15 -3 -8 -1 -15 4 -15 9 0 26 -39 22 -52 -1 -5 2 -8 6 -8 5 0 19 -24 33
-52 13 -29 28 -56 32 -59 5 -3 8 -8 8 -10 -2 -13 13 -49 20 -49 4 0 17 -19 29
-42 34 -71 76 -134 108 -164 12 -12 22 -24 22 -28 0 -12 117 -126 129 -126 6
0 11 -4 11 -9 0 -4 20 -19 45 -32 25 -13 45 -27 45 -30 0 -4 10 -10 23 -14 27
-9 23 -8 70 -25 20 -8 37 -18 37 -23 0 -5 9 -7 20 -4 11 3 20 1 20 -4 0 -5 14
-9 30 -9 17 0 30 -4 30 -9 0 -4 11 -7 25 -6 14 2 27 -1 31 -6 3 -5 14 -9 25
-9 11 0 18 -4 15 -9 -6 -9 -19 -8 -101 9 -82 17 -108 21 -142 23 -17 1 -29 5
-26 10 2 4 -8 7 -24 8 -50 2 -78 5 -93 12 -8 3 -28 5 -45 3 -16 -1 -37 2 -46
6 -9 4 -53 8 -98 9 -44 1 -81 4 -81 8 0 4 -46 8 -102 9 -113 2 -381 23 -453
36 -11 1 -47 6 -80 11 -33 4 -64 11 -70 14 -5 4 -22 7 -37 6 -16 0 -28 3 -28
8 0 4 -4 6 -8 3 -5 -3 -20 1 -35 9 -14 7 -28 11 -31 8 -3 -3 -11 -1 -18 5 -7
6 -17 11 -23 12 -28 3 -61 14 -73 23 -7 5 -15 7 -19 4 -3 -4 -20 4 -37 16 -17
12 -33 21 -36 21 -17 -5 -172 93 -202 128 -10 12 -18 17 -18 12 0 -4 -25 16
-55 46 -30 29 -57 52 -60 49 -11 -11 68 -142 80 -131 4 4 6 1 3 -7 -2 -8 4
-24 14 -35 18 -21 21 -25 71 -86 45 -55 149 -160 159 -160 5 0 23 -16 40 -35
17 -20 33 -33 36 -31 3 3 12 -2 21 -12 24 -25 121 -89 164 -107 20 -8 37 -19
37 -23 0 -7 49 -31 77 -37 7 -2 27 -11 45 -20 18 -9 42 -18 53 -21 11 -2 21
-8 23 -13 2 -5 11 -7 21 -4 10 3 22 0 25 -6 4 -6 15 -11 24 -11 9 0 28 -6 42
-13 14 -7 35 -12 48 -11 12 1 22 -2 22 -6 0 -4 24 -10 53 -14 28 -4 68 -9 87
-12 65 -9 385 -11 396 -2 6 4 31 7 55 6 24 -1 53 1 64 5 11 4 35 8 53 9 17 1
32 5 32 8 0 4 17 7 38 7 20 1 55 7 77 13 22 7 52 12 68 12 15 0 27 4 27 9 0 5
3 8 8 7 11 -3 96 13 107 21 6 3 17 6 25 7 17 1 67 13 90 21 15 6 38 11 75 17
20 3 29 6 70 22 28 10 44 14 88 21 20 3 37 8 37 12 0 6 16 9 87 14 23 2 47 8
55 13 7 6 24 8 38 4 26 -6 90 8 90 21 0 8 -40 22 -58 19 -8 0 -20 4 -27 10 -8
7 -18 9 -24 6 -5 -4 -15 0 -23 7 -7 8 -19 12 -26 9 -7 -2 -20 0 -30 4 -25 11
-24 11 -59 19 -18 4 -33 12 -33 17 0 5 -3 7 -8 4 -12 -7 -114 30 -196 73 -41
21 -77 37 -79 35 -2 -2 -16 7 -31 21 -15 14 -34 25 -42 25 -7 0 -14 4 -14 9 0
5 -9 13 -20 16 -21 7 -203 176 -437 405 -73 72 -137 130 -142 130 -5 0 -20 12
-33 28 -13 15 -50 49 -83 77 -33 27 -64 55 -68 62 -4 7 -14 13 -22 13 -7 0
-22 11 -33 25 -11 14 -24 25 -29 25 -5 0 -20 11 -33 25 -13 14 -29 25 -36 25
-7 0 -20 10 -28 22 -9 12 -16 18 -16 13 0 -4 -10 1 -22 12 -31 27 -55 35 -55
17z"/>
<path d="M2986 2545 c4 -8 10 -15 15 -15 5 0 8 -3 8 -7 -4 -22 2 -43 10 -38 5
3 17 -5 25 -17 9 -12 16 -17 16 -10 0 7 4 11 9 8 5 -4 8 2 6 11 -2 10 -4 21
-4 26 -2 13 -51 51 -71 54 -14 2 -18 -2 -14 -12z"/>
<path d="M4455 1570 c-2 -3 -32 -6 -65 -5 -34 0 -64 -3 -66 -7 -3 -5 -23 -8
-44 -8 -21 0 -42 -5 -45 -10 -3 -6 -19 -8 -36 -5 -17 3 -29 1 -29 -5 0 -6 -8
-10 -17 -9 -20 3 -82 -10 -98 -20 -5 -3 -17 -6 -25 -7 -8 0 -22 -3 -30 -6 -8
-4 -24 -9 -35 -14 -24 -9 -20 -7 -72 -22 -23 -7 -45 -17 -48 -22 -4 -6 -10 -8
-15 -5 -5 3 -21 -1 -34 -10 -14 -9 -31 -18 -38 -19 -7 -1 -31 -11 -53 -21 -22
-10 -43 -17 -47 -17 -5 1 -8 -2 -8 -8 0 -5 -7 -10 -15 -10 -8 0 -15 -5 -15
-11 0 -5 -4 -8 -9 -4 -9 5 -122 -43 -193 -81 -14 -8 -36 -14 -47 -14 -12 0
-21 -4 -21 -10 0 -5 -3 -9 -7 -8 -5 1 -28 -5 -53 -12 -25 -7 -48 -13 -52 -12
-5 1 -8 -2 -8 -7 0 -5 -25 -12 -55 -16 -30 -3 -57 -11 -60 -16 -4 -5 -18 -7
-33 -4 -14 2 -31 0 -36 -4 -18 -15 -103 -21 -286 -21 -175 0 -272 6 -300 17
-8 4 -28 7 -45 9 -55 4 -160 28 -166 37 -4 5 -13 7 -20 5 -8 -3 -32 3 -54 12
-22 9 -48 16 -57 14 -10 -1 -20 2 -24 7 -3 5 -13 9 -22 9 -9 0 -30 7 -46 15
-15 8 -32 13 -36 10 -5 -3 -11 -1 -15 5 -7 12 -25 14 -25 3 0 -7 18 -30 82
-105 13 -15 28 -28 35 -28 6 0 22 -12 35 -28 24 -28 92 -82 103 -82 4 0 25
-14 46 -31 21 -17 39 -27 39 -22 0 4 4 3 8 -2 8 -11 212 -115 228 -115 5 -1
27 -9 49 -20 22 -11 47 -19 56 -20 9 0 19 -3 23 -7 3 -4 14 -8 24 -9 9 -1 44
-8 77 -14 33 -7 74 -14 90 -15 17 -1 30 -4 30 -5 0 -7 261 -7 270 0 6 4 26 8
45 9 39 0 97 9 120 18 8 4 22 7 30 8 8 1 23 5 32 9 9 4 21 5 26 2 6 -3 15 0
21 8 7 8 21 12 33 8 15 -4 19 -2 13 7 -5 9 -1 12 11 10 21 -2 46 5 87 27 15 8
27 12 27 7 0 -4 4 -3 8 4 4 6 16 13 27 15 11 1 22 5 25 8 3 3 21 13 40 22 74
36 125 68 161 101 10 9 22 18 27 18 24 4 52 20 52 30 0 7 3 9 7 6 3 -4 25 9
49 28 23 19 45 35 49 35 3 0 11 4 18 10 46 37 77 60 115 82 23 13 39 28 35 31
-3 4 1 7 10 7 8 0 22 6 29 13 31 28 185 107 220 111 3 1 10 4 14 9 4 4 18 7
30 7 13 0 25 3 27 8 6 9 194 9 203 -1 4 -4 17 -7 28 -7 20 -1 20 -1 2 -15 -10
-8 -22 -12 -27 -10 -4 3 -9 2 -11 -3 -1 -4 -38 -25 -80 -46 -43 -21 -78 -41
-78 -46 0 -4 -12 -11 -27 -15 -16 -3 -42 -17 -59 -30 -17 -13 -34 -21 -38 -18
-3 4 -6 1 -6 -5 0 -7 -5 -12 -11 -12 -6 0 -25 -11 -43 -25 -18 -14 -38 -25
-43 -25 -6 0 -13 -7 -17 -15 -3 -8 -10 -15 -17 -15 -6 0 -29 -14 -50 -31 -21
-17 -39 -28 -39 -24 0 3 -10 -4 -22 -15 -13 -11 -41 -34 -63 -50 -84 -63 -236
-192 -274 -234 -14 -14 -29 -26 -34 -26 -15 0 -127 -121 -127 -136 0 -8 12
-21 28 -31 15 -9 56 -42 92 -73 36 -31 72 -59 81 -63 16 -5 59 29 59 47 0 5
11 17 25 28 14 11 25 24 25 30 0 7 108 124 180 193 167 162 196 199 165 211
-7 3 -11 14 -8 24 4 15 12 17 41 13 21 -3 41 -9 46 -14 8 -7 35 11 99 66 9 8
21 15 26 15 5 0 18 11 29 25 11 13 23 21 26 17 4 -4 12 1 17 11 6 9 16 17 22
17 30 0 54 54 39 90 -9 22 -9 80 0 80 4 0 8 -5 8 -11 0 -5 4 -8 9 -4 5 3 16
-4 24 -15 7 -11 17 -17 20 -14 3 4 13 -1 22 -10 18 -18 35 -21 35 -6 0 5 7 7
15 4 8 -4 15 -1 15 7 0 7 3 9 6 6 4 -4 20 3 35 14 16 11 29 17 29 12 0 -4 20
33 45 82 48 95 65 119 65 95 0 -8 16 -46 35 -83 34 -67 68 -106 93 -107 6 0
12 -4 12 -10 0 -5 7 -7 15 -4 8 4 15 1 15 -5 0 -6 7 -11 15 -11 8 0 15 -5 15
-11 0 -5 15 1 33 15 19 15 40 26 47 26 7 0 19 8 27 18 13 15 14 13 10 -18 -3
-19 -7 -44 -10 -56 -6 -25 20 -84 38 -84 6 0 20 -9 30 -20 10 -11 23 -20 29
-20 7 0 18 -9 26 -20 8 -11 19 -20 25 -20 6 0 24 -13 40 -30 16 -16 35 -30 42
-30 7 0 13 -4 13 -9 0 -11 44 -5 70 9 28 15 40 -7 24 -45 l-14 -34 52 -48
c131 -122 378 -368 378 -376 0 -11 26 -37 38 -37 13 0 99 71 169 139 50 49 54
55 37 64 -11 5 -47 38 -82 73 -34 35 -66 64 -70 64 -4 0 -28 20 -52 45 -24 25
-48 45 -52 45 -4 0 -24 16 -44 35 -19 19 -42 35 -50 35 -8 0 -14 4 -14 8 0 5
-21 24 -47 42 -27 19 -54 40 -61 46 -6 7 -21 16 -32 19 -11 4 -17 11 -14 17 5
7 1 9 -9 5 -10 -3 -17 -3 -17 1 0 13 -223 156 -277 179 -18 7 -33 18 -33 23 0
6 -3 10 -7 9 -16 -2 -53 14 -53 23 0 5 -4 7 -9 4 -5 -3 -14 1 -21 9 -7 8 -16
12 -21 9 -5 -3 -9 0 -9 5 0 6 -3 10 -7 9 -11 -2 -83 34 -83 43 0 6 124 20 180
19 24 0 108 -14 140 -23 57 -16 191 -84 198 -99 2 -5 10 -8 17 -8 8 0 20 -8
27 -18 7 -10 31 -29 53 -42 22 -13 42 -28 43 -32 2 -4 10 -8 17 -8 8 0 21 -10
29 -22 9 -12 16 -19 16 -15 0 7 11 0 45 -31 8 -7 15 -10 15 -7 0 4 17 -6 38
-22 44 -34 69 -49 102 -65 14 -7 28 -17 32 -23 4 -5 8 -7 8 -3 0 4 17 -4 37
-18 20 -13 47 -27 60 -30 13 -4 23 -10 23 -14 0 -4 20 -13 45 -20 25 -7 45
-17 45 -22 0 -5 6 -8 13 -5 6 2 26 -3 42 -11 17 -9 32 -17 35 -17 3 -1 25 -7
50 -15 25 -7 50 -13 57 -11 6 1 14 -3 18 -8 3 -6 32 -13 65 -17 33 -4 60 -10
60 -14 0 -4 20 -6 46 -5 25 1 47 -2 50 -7 7 -11 291 -10 298 0 3 5 26 8 51 7
25 -1 45 2 45 7 0 4 11 8 24 8 14 0 27 4 30 9 3 4 17 6 31 3 15 -2 25 0 25 7
0 6 3 10 8 9 9 -2 63 13 77 21 6 3 15 6 21 7 12 2 120 51 144 65 8 5 26 15 40
21 14 7 28 17 32 23 4 5 8 6 8 2 0 -5 18 5 39 22 21 17 42 31 46 31 5 0 29 17
54 38 25 20 53 43 62 50 29 23 123 117 147 146 21 27 30 51 15 44 -40 -17
-123 -72 -123 -81 0 -6 -3 -7 -7 -4 -3 4 -12 2 -19 -3 -6 -6 -16 -10 -20 -8
-5 1 -31 -8 -58 -20 -28 -13 -55 -21 -62 -18 -7 3 -15 -2 -18 -10 -3 -9 -10
-12 -16 -9 -5 3 -16 3 -22 -2 -7 -4 -20 -8 -28 -8 -8 0 -19 -3 -25 -6 -18 -11
-89 -23 -122 -21 -18 2 -33 -1 -33 -6 0 -5 -75 -8 -167 -6 -187 3 -239 7 -249
17 -4 4 -22 7 -39 7 -17 0 -35 3 -39 8 -4 4 -11 7 -14 8 -4 0 -15 4 -25 8 -9
5 -26 6 -37 3 -11 -3 -20 -2 -20 1 0 4 -21 15 -48 26 -26 10 -60 24 -77 31
-16 7 -50 21 -75 30 -25 9 -56 22 -70 28 -14 6 -27 11 -30 12 -29 7 -50 18
-50 25 0 4 -9 6 -20 3 -12 -3 -20 0 -20 7 0 7 -7 10 -16 6 -8 -3 -12 -2 -9 4
3 6 -4 10 -15 10 -22 0 -82 29 -88 42 -2 4 -10 4 -18 1 -8 -3 -14 0 -14 6 0 8
-47 26 -85 32 -5 1 -19 8 -30 15 -11 8 -30 14 -42 14 -13 0 -23 5 -23 11 0 6
-9 8 -20 4 -11 -3 -20 -2 -20 3 0 6 -19 13 -42 17 -24 4 -49 12 -55 17 -7 6
-13 8 -13 5 0 -4 -18 0 -40 8 -22 8 -42 14 -45 15 -3 0 -6 0 -7 1 -2 1 -16 2
-33 4 -16 1 -37 5 -45 8 -19 7 -82 17 -140 21 -25 2 -47 5 -50 6 -10 6 -495 7
-505 2 -5 -4 -30 -8 -55 -10 -25 -1 -71 -5 -102 -8 -32 -3 -58 -2 -58 3 0 9
-58 12 -318 17 -101 1 -185 0 -187 -4z"/>
<path d="M4980 1298 c-7 -18 -13 -39 -13 -45 1 -7 -3 -13 -8 -13 -5 0 -9 -7
-9 -15 0 -8 -4 -15 -8 -15 -4 0 -14 -15 -20 -34 -20 -55 -37 -63 -80 -40 -20
10 -40 23 -43 28 -4 5 -13 6 -21 3 -16 -6 -17 -34 -3 -56 4 -8 9 -28 11 -45 5
-56 11 -91 19 -109 4 -9 5 -25 3 -35 -3 -10 0 -23 7 -29 14 -12 8 -76 -7 -71
-5 2 -8 6 -6 9 2 2 -28 36 -67 73 l-70 69 -20 -47 c-19 -44 -22 -47 -50 -41
-16 3 -43 7 -60 10 -16 2 -43 6 -60 9 -36 6 -49 -2 -34 -20 6 -8 8 -14 4 -14
-4 0 -2 -7 5 -15 7 -9 10 -18 7 -21 -3 -3 1 -21 9 -40 8 -19 11 -34 7 -34 -5
0 -1 -5 7 -10 20 -13 3 -40 -37 -60 -29 -14 -30 -16 -16 -37 9 -13 20 -23 25
-23 5 0 21 -11 36 -24 75 -68 120 -106 127 -106 4 0 19 -13 35 -30 15 -16 30
-27 32 -24 3 2 11 -2 17 -10 15 -18 4 -109 -11 -100 -6 4 -8 -2 -6 -12 2 -14
12 -19 38 -19 19 -1 40 3 47 8 7 5 25 7 40 6 15 -2 34 1 42 5 7 5 30 10 50 11
20 2 46 6 58 10 18 6 23 2 29 -19 3 -14 2 -32 -3 -39 -7 -9 -10 -199 -4 -239
0 -5 16 -8 35 -8 l33 0 -2 62 c-1 35 -3 63 -5 63 -1 0 -4 36 -5 79 -3 83 11
119 38 99 7 -5 28 -9 47 -8 19 0 38 -3 41 -8 3 -4 21 -9 40 -9 19 0 39 -3 44
-7 6 -3 21 -6 35 -7 14 -1 33 -5 43 -9 12 -5 17 -2 17 8 0 9 -5 19 -10 22 -6
4 -8 10 -5 15 3 5 -2 21 -11 35 -15 23 -15 27 0 50 9 14 21 25 26 25 5 0 45
32 90 71 44 39 80 67 80 63 0 -4 8 2 18 12 9 11 32 31 51 44 33 23 34 24 13
33 -12 6 -22 14 -22 19 0 4 -9 8 -19 8 -11 0 -22 4 -25 8 -6 9 25 106 35 110
4 2 5 12 2 22 -3 11 0 20 6 20 6 0 11 11 11 25 0 22 -4 25 -27 21 -16 -2 -28
-5 -28 -6 0 -1 -13 -4 -29 -6 -17 -3 -36 -9 -43 -13 -20 -10 -74 -1 -72 13 3
16 -19 66 -29 66 -4 0 -38 -31 -76 -69 -41 -41 -74 -67 -83 -64 -11 4 -11 8
-2 20 7 8 14 31 15 51 2 37 6 56 24 147 5 28 12 59 14 70 2 11 7 29 11 39 7
17 5 18 -21 12 -16 -4 -34 -14 -40 -22 -6 -7 -25 -17 -42 -20 -24 -5 -32 -2
-41 14 -6 10 -7 22 -4 26 3 3 1 6 -5 6 -7 0 -12 7 -12 15 0 9 -6 18 -14 21 -8
3 -18 19 -21 35 -4 16 -10 29 -14 29 -3 0 -12 14 -18 30 -14 39 -25 38 -43 -2z"/>
</g>
</svg>
