<svg id="SvgjsSvg1001" width="288" height="288" xmlns="http://www.w3.org/2000/svg" version="1.1" xmlns:xlink="http://www.w3.org/1999/xlink" xmlns:svgjs="http://svgjs.com/svgjs"><defs id="SvgjsDefs1002"></defs><g id="SvgjsG1008"><svg xmlns="http://www.w3.org/2000/svg" enable-background="new 0 0 1000 1000" viewBox="0 0 1000 1000" width="288" height="288"><rect width="1000" height="1000" stroke="#0a7b9e" stroke-miterlimit="10" display="none" class="colorStroke0a7b9e svgStroke"></rect><g display="none" transform="translate(1.89 -2.19)" fill="#0a7b9e" class="color000 svgShape"><g display="none" fill="#0a7b9e" class="color000 svgShape"><path fill="#0a7b9e" d="M200.6 607l1.8 1.5c-2-13.6-3-28.4.9-41.4 5.9-20.8 13.3-41.1 17.1-62.7 3-16.8 6.5-35.6 4.5-51.8-2.3 8.8-4.5 17.4-9.4 24.9-18.3 28.2-37 61.5-24.2 97.4-.3.5-.8.9-1.2.6-5.1-11.9-6.3-25.4-9.7-38-8.9-33.7-34.7-61.9-27.2-100.9-4.1 8.5-5.6 18-7.7 27.2-4.5 23.9 0 49.1 6.5 71.1C160.1 562.3 186.9 581.9 200.6 607zM193.7 432.1c6-12.4 15.9-24.2 27.6-32.9 26-19.6 54.4-45 54.8-78.2-8.8 23.9-34.9 33.8-52.2 50.1-9.2 8.6-16.3 19-20.4 29.9l-.6-.5c2.1-9.7 6.2-18.3 9.1-27.6 7.6-25.4 6.2-55.7 31-72.8-12.7 3.3-23.4 11.5-32.9 22l0 0c-20.1 22.2-18.3 55-15.7 84C195.2 415.2 194.7 422.9 193.7 432.1z" class="colorfff svgShape"></path><path fill="#0a7b9e" d="M223.9 359.8c13.9-13 29.9-22.6 41.7-38 14-18.6 26.3-39.4 44.7-55.4-24.9 9.7-51.8 19.6-67.9 45.3C232.8 326.5 231.3 344.2 223.9 359.8zM234.3 425.5c6-12.2 9.8-26.1 11.5-39.6-2.3 5.7-5.7 11-10.6 15.5-20.2 19.2-43.9 37.9-48.5 65.1-.6 3.9-1.1 7.9-2.1 11.6-.9.5-.9-.6-1.2-.9l2.6-33.5c2.4-32.8-14.8-69.2 4.1-98-.6-.1-1.1.5-1.5.6-17.2 21.9-28.7 46.1-28.7 75.5 0 36.4 21 61.9 23.6 96C188.9 482.2 218.8 456.9 234.3 425.5zM194.3 649.1c19.5 15.4 42.7 27.3 60.6 40.9-3.5-8.9-9.2-17.1-11.5-26.3-10.4-42.1-4.7-91.1-22.6-130 3.3 22.2-5.4 41.8-7.4 63-1.7 17.4 1.4 34.3 8.1 48.8 2 4.4 5.6 8.2 6.6 12.7-6.5-5.9-11.2-13.3-15.6-20.5-21-34-64.9-56-67.9-97.4l0 0c-1.5 18.4.1 37.9 6.2 54.2C159.1 616.8 175.4 634.2 194.3 649.1zM459.1 760.7c-34 0-64.5 16.5-94.2 28.8-27 11.2-62.8 9.1-86.8-7.5 11.8 14.8 27.6 24 44.1 30.2 30.4 12.1 65.8 2.9 91.8-13.7 18.6-11.9 34.6-28.8 56.8-28.8 35.8 0 73.4 36.7 105.6 69.9 5-4.1 10.3-8.3 14.3-13C557 794.5 509.4 760.7 459.1 760.7z" class="colorfff svgShape"></path><path fill="#0a7b9e" d="M398.5,764.3c5.3-1.4,11.6-0.9,16.5-2.7c-20.2-4.1-39.7-10.3-55.4-24.6
										c-22.5-20.5-42.4-42.4-66.4-58.4c18.9,25.4,24.2,62.2,58.6,75c6,2.3,13.1,2.7,18.4,6c-6.6,1.1-12.4-1.1-18.6-2.4
										c-44.4-9.5-98.5,2.7-131.7-35c12.5,24.8,38.5,44.2,63.6,52.4C321.9,787.6,362.2,773.2,398.5,764.3z" class="colorfff svgShape"></path><path fill="#0a7b9e" d="M324.1,745.7c-28.8-23.3-33.2-58.1-46.1-88.6c-8-19-21-36.1-34.9-52.7c15.2,30.5,8.6,69.8,28.4,98.5
										c6.2,9.1,14.8,17.7,22.8,24.8l-0.3,0.5c-7.2-3.3-13.7-8.5-20.4-13.9c-34.6-28.8-86.7-32.5-107.4-79.4l0,0
										c5.6,34.4,32.9,64.9,62.5,84.3C257,737.4,293,735.5,324.1,745.7z" class="colorfff svgShape"></path><g fill="#0a7b9e" class="color000 svgShape"><path fill="#0a7b9e" d="M726,321.7c11.8,15.5,27.8,25.1,41.7,38c-7.4-15.5-8.9-33.2-18.3-48.2c-16.2-25.7-43-35.6-68-45.3
										C699.6,282.3,711.8,303,726,321.7z" class="colorfff svgShape"></path><path fill="#0a7b9e" d="M779.6,372.9c2.7,9.2,6.8,18,9.1,27.6l-0.6,0.5c-4.1-10.9-11.2-21.3-20.4-29.9
										c-17.4-16.5-43.5-26.3-52.1-50.3c0.5,33.4,28.8,58.7,54.8,78.2c11.6,8.8,21.6,20.5,27.6,32.9c-1.1-9.2-1.5-16.9-0.6-25.8
										c2.7-29.1,4.4-61.8-15.5-84l0,0c-9.5-10.6-20.2-18.9-32.9-22C773.4,317.2,772,347.5,779.6,372.9z" class="colorfff svgShape"></path><path fill="#0a7b9e" d="M805.6,443.6l2.6,33.5c-0.3,0.3-0.3,1.2-1.2,0.9c-1.1-3.8-1.5-7.7-2.1-11.6
										c-4.5-27-28.4-45.9-48.5-65.1c-4.8-4.5-8.3-9.8-10.6-15.5c1.7,13.4,5.4,27.3,11.5,39.6c15.5,31.4,45.5,56.8,50.9,92.6
										c2.6-34.3,23.6-59.6,23.6-96c0-29.5-11.5-53.6-28.7-75.5c-0.5-0.3-0.9-0.8-1.5-0.6C820.4,374.6,803,411,805.6,443.6z" class="colorfff svgShape"></path><path fill="#0a7b9e" d="M811 537.3c-3.3 12.7-4.5 26.3-9.7 38-.5.3-.9-.3-1.2-.6 12.8-35.9-5.9-69-24.2-97.4-4.8-7.4-7.1-16.2-9.4-24.9-2 16.3 1.5 35 4.5 51.8 3.9 21.6 11.2 41.8 17.1 62.7 3.9 13 2.9 27.6.9 41.4l1.8-1.5c13.6-25.1 40.5-44.7 48.6-72.2 6.5-21.9 11-47.3 6.5-71.1l0 0c-2.1-9.2-3.8-18.7-7.7-27.2C845.7 475.4 819.9 503.7 811 537.3zM626.5 789.5c-29.9-12.4-60.2-28.8-94.2-28.8-50.1 0-97.9 34-131.2 65.8 4.1 4.7 9.4 9.1 14.4 13 32-33.1 69.8-69.9 105.6-69.9 22.2 0 38.2 16.9 56.8 28.8 25.8 16.5 61.3 25.8 91.8 13.7 16.3-6.2 32.2-15.4 44.1-30.2C689.4 798.5 653.5 800.7 626.5 789.5zM847.1 539.9L847.1 539.9 847.1 539.9z" class="colorfff svgShape"></path><path fill="#0a7b9e" d="M779.1,637.3c-4.5,7.2-9.1,14.8-15.5,20.5c1.1-4.4,4.7-8.3,6.6-12.7c6.8-14.7,9.8-31.4,8.2-48.8
										c-2.1-21.1-10.9-40.8-7.4-63c-18.1,39-12.2,87.9-22.7,130c-2.3,9.4-8,17.5-11.5,26.3c17.8-13.6,41.1-25.5,60.5-40.9
										c18.9-14.8,35.2-32.3,43.8-55c6.2-16.3,7.7-35.8,6.2-54.2C844.2,581.3,800.1,603.3,779.1,637.3z" class="colorfff svgShape"></path><path fill="#0a7b9e" d="M717.5 714.2c-6.6 5.4-13.1 10.6-20.4 13.9l-.3-.5c8-7.2 16.6-15.9 22.8-24.8 19.8-28.7 13.1-68.1 28.4-98.5-13.9 16.6-26.9 33.7-34.9 52.7-12.8 30.5-17.2 65.4-46.1 88.6 31.1-10.3 67.2-8.3 95.1-26.6 29.5-19.3 56.8-49.8 62.5-84.3C804.2 681.7 752.3 685.3 717.5 714.2zM824.9 634.8L824.9 634.8 824.9 634.8z" class="colorfff svgShape"></path><path fill="#0a7b9e" d="M640.1,757.4c-6.2,1.4-11.9,3.3-18.6,2.4c5.3-3.3,12.2-3.8,18.4-6c34.4-13,39.7-49.8,58.6-75
										c-24,16-43.9,37.9-66.4,58.4c-15.7,14.3-35.2,20.4-55.4,24.6c4.8,1.8,11.2,1.4,16.5,2.7c36.4,9.1,76.6,23.3,115.2,10.4
										c24.9-8.3,50.9-27.8,63.6-52.4C738.5,760.1,684.3,748,640.1,757.4z" class="colorfff svgShape"></path></g></g><path fill="#0a7b9e" d="M476.8,242.6C348.2,252.3,246.5,359.9,246.5,491c0,123.2,89.9,225.8,207.5,245.7c0-2,0-4.1,0.1-6.1
								c-49.3-8.5-93.6-32-128-65.6l32-32c26.1,25.3,59,43.5,95.7,51.4c0-1.4,0.1-2.7,0.2-4.1c0-0.7,0.1-1.5,0.1-2.2
								c-35.2-7.8-66.8-25.3-91.8-49.6l28.2-28.2c18.4,17.7,41.3,30.8,66.7,37.4c0.2-2,0.4-4,0.5-6c-23.9-6.5-45.5-18.9-62.9-35.6
								l32-32c9.9,9.3,21.6,16.6,34.5,21.3c0.1-2.1,0.2-4.2,0.4-6.3c-11.5-4.4-21.9-11-30.6-19.3l28.8-28.8c1,0.9,2.1,1.8,3.1,2.6
								c0.1-2.6,0.1-5.1,0.2-7.7c-9.4-8.7-15.3-21.1-15.3-34.9c0-4.1,0.5-8,1.5-11.8c-1.4-1.1-2.7-2.3-3.8-3.8
								c-0.3-0.4-0.6-0.9-0.9-1.4c-1.5,4.4-2.5,9.1-2.7,13.9h-40.8c0.8-23.7,10.3-45.3,25.5-61.5l11.3,11.3c0.1-2.5,0.5-5,1.2-7.4
								l-8.2-8.2c7.2-6.8,15.5-12.4,24.5-16.6v-6.6c-10.7,4.6-20.5,11.1-28.9,19l-32-32c21.9-21,50.4-35.3,82-39.4v-6.1
								c-33.3,4.1-63.2,19.1-86.2,41.1l-28.2-28.2c30.2-29.3,70.2-48.8,114.4-53.1v-6.1c-45.9,4.4-87.4,24.5-118.8,55l-31.9-32
								c39.6-38.6,92.3-63.9,150.7-68.4L476.8,242.6L476.8,242.6z M321.7,660.6c-42.1-43-68.3-101.8-69-166.6H298
								c0.8,52.2,21.9,99.7,55.9,134.7L321.7,660.6z M358.1,624.3c-32.8-33.8-53.3-79.7-54.1-130.3h40
								c0.8,39.6,16.8,75.5,42.3,102.1L358.1,624.3z M390.6,591.9c-24.5-25.5-39.9-60-40.6-97.9h45.5c0.8,25.4,11,48.5,27.3,65.8
								L390.6,591.9z M442.2,494c0.8,12.5,5.7,23.9,13.6,32.6L427,555.5c-15.2-16.2-24.8-37.8-25.5-61.5H442.2L442.2,494z
								 M422.6,422.1c-16.3,17.4-26.6,40.3-27.3,65.8H350c0.8-37.9,16.2-72.3,40.6-97.9L422.6,422.1z M358.1,357.6l28.2,28.2
								c-25.5,26.6-41.5,62.5-42.3,102.1h-40C304.8,437.4,325.4,391.5,358.1,357.6z M353.8,353.3c-34,35-55.1,82.3-55.9,134.7h-45.3
								c0.8-64.8,27-123.5,69.2-166.7L353.8,353.3z" class="colorfff svgShape"></path><polygon fill="#0a7b9e" points="281.9 591.4 281.9 594.7 283.4 594.7 283.1 591 281.1 590.2 281.1 588.8 279.9 588.8 279.9 591.4" class="colorfff svgShape"></polygon><polygon fill="#0a7b9e" points="292.4 600.6 296.2 602.4 297.4 605.9 299.2 607.3 300.9 611 300 612.9 297.1 610.3 295.2 607.4 294.1 605.2" class="colorfff svgShape"></polygon><polygon fill="#0a7b9e" points="355.9 679 357.2 682.3 355.4 683.4 354.4 681.9 351.9 681.1 351.6 678.8 349.7 675.8 352.7 676.3" class="colorfff svgShape"></polygon><path fill="#0a7b9e" d="M445.9,475.4c-4-5.5-5.4-13.3-1.9-19.2c-1.5-1.4-2.6-3.1-3.4-5c-1.4-0.1-3.9-2.2-3.9-2.2l-8.8-6.3
									c-5-4.5-12.5,1.2-12.8,2.6c0.3,3.6-5.7,0.8-5.7,0.8s-5-1.5-5.7,0.5c-0.8,2-4.1,1.5-4.1,1.5L399,449l-2.6,0.5L396,451l-3,0.5
									l7.5-0.3c2-0.3-0.8,4.4-2,4.1l-3.5,0.3l-1.2,1.2h-3.3l-1.5,2.1l-4.8-0.3c0,0-2.7,2.3-2.6,3c0.3,0.8-0.5,3-1.2,3
									c-0.8,0-2.3,2.3-1.8,3c0.5,0.8-1.5,3.3-1.5,3.3l-0.5,2.6l-1.5,0.5v7l-3,2.1v3l-4.5,4.8l0.5,4.1l-3.8,4.1l0.5,4.1l-2.3,0.8
									l-0.5,1.8l-1.1,5.3l2.6,0.3c1.2-0.5,1.1,3.3,0,3.8s-3.8,1.5-2.3,2.6s-4.1,0.8-4.1-0.8c0-1.5-3-2.9-3.8-2.3
									c-0.8,0.5-2-2.3-2-2.3c-2.7-2.9-11.3,0.3-11.3,0.3l-1.2,4.1c-2.7,0.5-4.5,5.1-4.5,5.1c-2.3,0.8-4.1,3.6-3.3,4.4
									c0.8,0.8-1.2,1.1-1.2,1.1v5.6l-1.2,1.8l0.3,6c1.5,0,1.2,2.9,1.2,2.9c-2.6,0.3-2,3.6-2,3.6l-5.3,1.8l-1.1,1.5l-6.5-0.3
									l-1.8,1.8l-1.8-1.8h-12.5l-0.5-1.2l-2.6-0.5l-0.3-2.9l-3.8,0.3l-0.8,1.5l-4.1,0.3c0.3,2.6-4.1,6.3-4.5,5.3
									c-0.5-1.1-3.3-3.8-2-4.4c1.2-0.5,4.5-1.1,4.5-1.1v-1.8l-9.4-0.3l-1.1,1.5l-3.8,0.3v4.1l-1.8,0.5c-1.2,0.8,0.3,3.6,0.3,3.6
									c1.8,1.8-0.3,4.5-0.3,4.5c-1.5,1.5,1.2,4.4,1.2,4.4c2,0.5-1.2,2-1.2,2c0.5,2.6,2,3.3,2,3.3c-1.5,2.6,1.1,3.8,1.1,3.8
									l0.3,4.4l1.8,1.1v2.9l1.1,1.8h4.1l-0.3-6.3c-3.5-4.1,3-5.1,3.3-3.6s3,2.3,3,2.3c0.5,3.8,4.8,6,6,2.3c1.2-3.8,2.3-1.5,3,0.3
									c0.8,1.8,5.6,6.2,5.6,6.2h3.8l0.5,3.6c4.2-0.3,5.6,0.3,7.2,6c1.8,5.9,6.5,7.4,6.5,7.4l3.5-0.3c0-3,3.5,0.5,3.5,2.1
									c0,1.5,6.8,7.4,6.8,7.4l6.8,1.5l6.3,5.1l4.8-0.5h2c1.2-4.4,7.2,0.3,7.9,1.8c0.5,1.5,4.5,4.1,5,2.9s3.3-0.5,3.8,3.3
									s2.3,3,2.3,3l14.4-0.3l5-4.4l12.8-0.3c6.5-0.3,2.6-9.2,1.2-9.2c-2.3-1.8,0.8-9.2,0.8-9.2l-18.3-17.1c-4.2,0-0.5-6.2-0.5-6.2
									c3.3-2.1-0.8-5.3-0.8-5.3c0.5-3-1.8-6.6-1.8-6.6c-4.5-3-3.3-8.9-3.3-8.9v-4.1c-3.8-3.6,1.5-4.1,1.5-4.1
									c1.8-3-1.2-5.3-1.2-5.3l-0.3-3.3l-4.1-0.5l-0.5-11.9l-9.1-13c-1.8-0.5-0.5-3.6-0.5-3.6c2.3-1.2-0.5-4.4-0.5-4.4l-0.3-5.6
									l5.3-0.5l1.2-2h2.6l-0.3-6.6c1.2-3.3,4.2-1.5,4.2-1.5l3.5,0.3l2-3.8l0.5-3l-2.7-0.3c-3-1.8-1.5-8.5-1.5-8.5
									c4.8-7.1,10.3-3,10.3-3l3.5-0.3c5.3,3.6,0.5,10.1,0.5,10.1c-1.1,1.5-0.5,6.3-0.5,6.3l1.2,8.1l-3.3,2.9
									c-2.7,1.5-2.7,5.1,0.3,5.9c2,0.3,1.2,5.1-1.8,1.8c-4.1,0,1.2,3.3,0.8,3.2c4.1,1.8,3.1-2.1,3.1-2.1l6-4.8
									c2.3-1.8,6.3,3.8,6.3,4.5c0,0.7,10,0.3,10,0.3c2.7,1.8,3.8,6.3,3.8,6.3c2.7-3.6,8.6-0.3,4.2,1.8c4.1,2.6,4.1,4.8,4.1,4.8
									c3.3-1.1,3.3,1.5,3.3,2.3s1.1-3.8,1.1-3.8c-3.8-2.9,5-3.8,2.6,1.2l-1.5,2.3l2.6,2l0.3,5.9c5.6-0.5,4.1-7.4,4.1-7.4l2.6-0.5
									c0-2.3,1.8-1.1,1.8-1.1c-1.8-8.6,4.1-10.1,4.1-10.1c3.3-0.8,3.5-7.7,3.5-7.7c-2.3-1.1-1.1-4.5,1.5-1.5s-1.5-6.2-1.5-6.2
									l-2-1.8l-2.7-0.3l-0.3-2.9h-4.5l-0.8,3.6l-1.7,0.8l-0.5-1.1l-0.8,2.9h-4.5l-0.3-3l2.7-0.8l1.1-1.5l0.8-4.1h3.3l4.2-1.2
									c0.3-4.4,2.6-3.3,2.6-3.3l1.5,1.2l2.3,1.8l0.3,1.5l-1.5,0.8l-0.3,2.1l0.8,2.9h2c0.8-4.1,6-4.1,7.5-1.5l1.5-3.6
									c-3.5-1.8,0-4.5,0.9-3.3c0.4,0.5,1,0.1,1.6-0.6c0.1-0.9,0.2-1.7,0.4-2.6c-0.2-0.4-0.3-0.9-0.5-1.3
									C458.5,484.2,450.4,481.5,445.9,475.4z" class="colorfff svgShape"></path><path fill="#0a7b9e" d="M386.8,500.2l-4.5-0.5l0.3,1.8h1.2c2,3.6,0.3,12.2,0.3,12.2s-3,0.3-3.5-1.2
									s-1.8,3.3-0.8,4.1c1.1,0.8,4.5,0,4.8,2.9s2.3-1.8,2.3-1.8L386.8,500.2L386.8,500.2z" class="colorfff svgShape"></path><polygon fill="#0a7b9e" points="382.3 520.9 382.3 526.9 386.2 532.4 387.7 528.7 388.3 526.5 386.5 525.7 386.8 522 388.3 521.7 388.5 519.8 384.7 522.4" class="colorfff svgShape"></polygon><polygon fill="#0a7b9e" points="388.8 538 388.8 535.4 387 535.7 386.8 537.7" class="colorfff svgShape"></polygon><polygon fill="#0a7b9e" points="386.5 550.2 386.5 548.4 384.4 548.7 384.4 550.5" class="colorfff svgShape"></polygon><path fill="#0a7b9e" d="M389.5,542.3c0.6,0,1.1-0.5,1.1-1.1s-0.5-1.1-1.1-1.1s-1.1,0.5-1.1,1.1
									S388.9,542.3,389.5,542.3z" class="colorfff svgShape"></path><circle cx="391.2" cy="546.6" r="1.1" fill="#0a7b9e" class="colorfff svgShape"></circle><circle cx="391.4" cy="517.4" r="1.1" fill="#0a7b9e" class="colorfff svgShape"></circle><path fill="#0a7b9e" d="M461.6 509.7l.5-2.6 1.5-.8.3-2.6.9-1.6c.3-3.6.7-7.2 1.1-10.9l-.2.2-.3 2-1.2 1.8-1.5 3.8-5.3.3-1.1 4.5.8 3.9L461.6 509.7zM463.4 526.6c.1-4.4.3-8.8.6-13.2l-.3.2-1.1 3-1.2 7.4C461.4 524.1 462.4 525.9 463.4 526.6z" class="colorfff svgShape"></path><polygon fill="#0a7b9e" points="544.6 568.2 546.6 566.8 545.8 565.6 543.7 566.8" class="colorfff svgShape"></polygon><path fill="#0a7b9e" d="M617.3 621.3l2.3 1.1.3 4.4c3 3 12.8.5 12.8-.3s-.5-9.4-.5-9.4l-1.2-1.2-.3-6.3c1.1-3.3-4.8-8.2-5.3-7.1s-3.8.3-3.8 1.2c0 1.1-2 6-1.1 7.8 1.1 1.8-.8 1.8-1.1 3.6C619.2 616.6 616.7 619.7 617.3 621.3L617.3 621.3zM611.7 611c-.5 2-2.3 3-3.3 2.3-1.1-.8 1.2 1.2 1.8 2.3.5 1.1 2 1.1 2.6 0 .5-1.1.3-3.3.8-4.4C613.9 610.3 612 610 611.7 611L611.7 611z" class="colorfff svgShape"></path><rect width="1.8" height="4.8" x="600" y="564.4" fill="#0a7b9e" class="colorfff svgShape"></rect><path fill="#0a7b9e" d="M626,515.3c-1.1-1.5,5-4.1,6-1.1c1.1,3,0,2.6-1.1,2.3
									C630.1,516.2,627.5,517.3,626,515.3L626,515.3z" class="colorfff svgShape"></path><polygon fill="#0a7b9e" points="631.5 481.2 631.2 482.7 633.9 483.1 634.2 481.6" class="colorfff svgShape"></polygon><polygon fill="#0a7b9e" points="624.4 485.6 624.5 486 626 485.4 625.4 484.2 625.1 483.3 624.4 483.7 622.5 484.8 620.9 483.7 620.1 485.1 622.1 486.3 622.5 486.6 622.8 486.3" class="colorfff svgShape"></polygon><polygon fill="#0a7b9e" points="647.9 459.9 648.1 457.9 649.6 458.1 649.4 460.2" class="colorfff svgShape"></polygon><polygon fill="#0a7b9e" points="647.8 467 646.4 466.2 647.2 464.7 648.5 465.5" class="colorfff svgShape"></polygon><path fill="#0a7b9e" d="M645.7 446.8l-1.1-2.3c0 0 0-2 .5-3s-1.1-2-1.8-2.3c-.8-.3-.5-2.3-.8-3.3-.3-1.1-2-1.8-2-1.8s-.5-3.8-.5-4.5c0-.8-2.3-1.8-1.5-2.6s1.2-1.8 2-2.3-.8-4.1.5-3.3c1.2.8 1.2 2.1 1.8 3 .5 1.1-.3 4.5 1.1 5.3 1.2.8-.3 3.3 1.8 3.3 2 0 .8 4.8.8 4.8s-.5 3.6.8 3.8c1.2.3.5 6.3.5 6.3L645.7 446.8 645.7 446.8zM629.3 405.5c.8 1.1 2.3 1.8 2.3 2.9s-.5 1.8 1.1 2c1.5.3 2.6-.3 3 1.1.5 1.2.5 3.3.3 4.4-.3 1.1.3 2.6 1.5 2.6s1.5.3 1.5 1.1 1.5-2.9 1.5-2.9c-1.2-1.1-2.3-3.3-2.3-3.3s-1.2-3.6-1.2-4.1-1.8-1.1-2.6-1.2c-.8-.3-2-2.6-2-2.6H629.3L629.3 405.5zM631.8 403.1c-.8-1.1-1.5-1.8-2.6-2.3s-1.8-1.1-2.7-1.1c-1.1 0-2-1.1-1.5-2.3s-.8-1.8-.8-2.9.8-1.1 2-.3c1.2.8 1.1 1.1 2 2.3 1.1 1.2 1.5 2.6 2.6 2.3 1.1-.3 1.8 2.3 2.7 1.5 1.1-.8.8 1.8.8 1.8L631.8 403.1 631.8 403.1zM602.5 432c1.4 1.4-7.5 1.1-7.5 0s.8-4.5 3-3.8c2.3.8 2.6-4.5 2.6-4.5s-2 .3-.3-.8c1.8-1.1 0-2.6-.8-3.3-.8-.8-1.5-2.1-1.5-2.1h3.5c1.5-1.1 2-5.9 2-5.9 3 1.1 4.5-1.1 4.5-1.1s.5 1.5 1.5 2.9c1.1 1.2-2.6 1.8-1.2 2.6 1.2.8 1.8 3 1.2 3.8-.5.8-3.3.3-3.3-.8s-1.1 1.2 0 2.6c1.1 1.2-1.2 3-1.8 3-.5 0-3.8.5-1.1 2.1 2.7 1.5 5.7.8 5.7.8s2.3-.3 3 1.1c.8 1.2-.3 1.5-1.5 1.5s-7.2-.5-7.2-.5S601.7 431.2 602.5 432L602.5 432zM586.3 434.2c1.2-.3 4.2-.5 4.8.3.5.8-1.8 1.8-1.8 1.8l-3 .5C585.4 435.6 585.1 434.5 586.3 434.2L586.3 434.2zM618.8 412.9c2-1.1 6.3-1.1 6-2.6s2.6-2 2.6-2l.8 3 2.3 1.5.3 2.9c0 0 .8-.5-2 .3-2.7.8-1.1 2-1.1 2l-6 .3-.8-2.6L618.8 412.9 618.8 412.9zM609 399c1.5 0-.5 5.9 3.5 5.3 4.1-.5.3 1.8 3.3 2 3 .3 2.3-2.3 3.3-4.1 1.1-1.8.5-2.9-1.2-3.3-1.8-.5-1.8-.5-2.3-2.6-.5-2-2.6-2.6-2.6-2.6l-.8-3-3.3 2-3.3 4.4C605.6 400.7 607.4 399 609 399L609 399z" class="colorfff svgShape"></path><polygon fill="#0a7b9e" points="615.6 420.6 616.3 419.1 617.7 419.7 617 421.4" class="colorfff svgShape"></polygon><rect width="1.5" height="1.8" x="613" y="418.2" fill="#0a7b9e" class="colorfff svgShape"></rect><polygon fill="#0a7b9e" points="614.2 384.2 614.5 386.5 613 386.6 612.7 384.4" class="colorfff svgShape"></polygon><rect width="1.5" height="1.2" x="610" y="407.9" fill="#0a7b9e" class="colorfff svgShape"></rect><polygon fill="#0a7b9e" points="605.9 407.9 605.8 406.4 608.3 406.3 608.5 407.8" class="colorfff svgShape"></polygon><polygon fill="#0a7b9e" points="585.2 432.5 583.9 432 584.6 430.1 586 430.7" class="colorfff svgShape"></polygon><polygon fill="#0a7b9e" points="577.4 427.9 577.2 426.4 579.8 426.1 580 427.6" class="colorfff svgShape"></polygon><path fill="#0a7b9e" d="M575.3 428.9c-.3-1.1-3.8-5.9-5-4.8s-1.5 0-3.8.8-7.1.3-7.2-.8c-.3-1.1-3.8-1.5-3.8-2.6s-2.6-2.3-2.3-.8c.1.6-.2 1.1-.5 1.4.2.1.3.3.5.5 2.2 2.2 3.6 4.9 4.5 7.7 1.4.5 2.5.6 3.7.6 1.5 0 4.8-.5 4.8-.5s3.6.6 4.2 1.2c2.7 2.9 4.5 3.6 5.3 2.3C576.5 432.9 575.4 430 575.3 428.9zM606.4 391.5l1.8-5.6c-2.6-.5-2-3.3-2-3.3-.3-2.3-3.8-4.8-5-4.1-1.2.8-.8-5.3-.8-5.3s2.3-1.5 3.3-.8c1.1.8-8.6-12.7-10.6-11.5s-6.5-1.2-6.3-3.6c.3-2.3-9.1-10-9.1-10s-3-2-3.5-.5-1.5 2.6 0 3.3c1.5.8 1.2-1.2 3 .5 1.8 1.8 5 4.1 3.8 5.6s-2.7 2.1-2.7 2.1l1.8 2.1h2.7l.5 4.4c0 0 3 1.5 3.8 3.3s.8 2.9 0 3.8c-.8 1.1-2.3 2.9-2 4.5.3 1.8 2.3 2.6 2.3 2.6l2 .3 1.5.8v3.3c2-.5 5.3 2.3 5 4.1-.3 1.8.5.8 3 2.6s1.8 2.1 3.5 3.3C604.1 394.5 605.6 393.7 606.4 391.5L606.4 391.5z" class="colorfff svgShape"></path><path fill="#0a7b9e" d="M565 356.7c-.3-1.1-.8-4.5.8-4.4 1.5.3.5 0 2.3.8s2-1.2 2-1.2h2.7l3.5 2.9-.5 2.3-2.6.3c-1.2-2-3.8-1.2-3.3.5.5 1.8-1.2 5.1-2.3 5.3-1.1.3-4.2.3-4.1-1.2C564 360.4 565 356.7 565 356.7L565 356.7zM563 350v-2c0 0-.3-2-1.5-2s-3.5-1.5-3-2.6-4.2-2.1-4.2-2.1-4.2-4.1-2.7-3.6.8-1.8.8-1.8-3 .5-3.8.3c-.8-.3-.5-2.6-.5-2.6s-3-.8-3 0 1.1.8 1.5 2.3.3 4.1 2.6 4.5 2.7 1.1 3 2.1c.3 1.1 3 1.2 3 1.2l2 1.1L563 350 563 350z" class="colorfff svgShape"></path><polygon fill="#0a7b9e" points="535.9 324 535.1 321.9 533.2 321.4 533.2 323.7" class="colorfff svgShape"></polygon><path fill="#0a7b9e" d="M535.1 313.2c-2.6-2 3.5 1.5 3.5 1.5 2 0 3.3 1.5 3.3 2.3s2.7.5 2.7.5l.3-1.8-2-2.6-1.8-1.2c0 0-2.7-.3-2.7-1.1C538.4 310.2 536.2 314 535.1 313.2L535.1 313.2zM607.8 308.1c-.5-2 5-3.8 6.3-2.3 1.2 1.5 4.8 1.8 5.3 9.4.2 2.7-4.5-2.9-4.5-2.9l-3.8-1.2C609 310.7 607.9 309.5 607.8 308.1L607.8 308.1z" class="colorfff svgShape"></path><polygon fill="#0a7b9e" points="534 311.3 532.7 310.7 533.8 308.3 535.1 309" class="colorfff svgShape"></polygon><path fill="#0a7b9e" d="M544.6 270.2c-1.2.5-3.8.3-3.8.3h-4.5c-.3-1.8-4.2-1.1-4.5 0-.2.9-1.7 1.2-1.7 1.2l-5.7.5c-.6 1.5-3.5 2.6-3.8 1.5 0-.1 0-.1-.1-.2v4c3.2.9 6.1-.1 6.1-.1l.8-1.5 12.5.3c1.1-1.1 1.5-2.6 1.5-2.6s3-1.1 4.2-.5C546.9 273.7 546 269.6 544.6 270.2zM466.9 319.6c-.1-.9 5-1.1 5.7-.3.8.8.3 2.1 2.6 2.1 2.3 0 1.2 1.5 1.1 2.3-.3.8-2.7.5-3-.3s-4.1-1.1-4.1-1.1S467.2 320.8 466.9 319.6L466.9 319.6z" class="colorfff svgShape"></path><polygon fill="#0a7b9e" points="549.6 268.1 550.2 268.7 550.7 268.2 553.2 266.1 552.2 264.9 550.2 266.6 549 265.2 548 266.4" class="colorfff svgShape"></polygon><polygon fill="#0a7b9e" points="538.4 262.2 538.7 261.9 541.6 260.1 540.7 258.9 538.4 260.4 536.8 259.3 536 260.7 538 261.9" class="colorfff svgShape"></polygon><polygon fill="#0a7b9e" points="529.4 314.2 531 316.7 532.2 315.8 530.6 313.1 530.3 312.8 530 312.8 527.4 312.5 527.3 314" class="colorfff svgShape"></polygon><path fill="#0a7b9e" d="M447.2,383.8l0.3,2.9h3.8c1.5,0-1.2-1.8-1.2-1.8S447.1,385.1,447.2,383.8L447.2,383.8z
									" class="colorfff svgShape"></path><polygon fill="#0a7b9e" points="452.1 383.9 453 382.7 454.5 383.9 453.6 385.1" class="colorfff svgShape"></polygon><polygon fill="#0a7b9e" points="406.3 336.2 407.4 335.1 408.9 336.7 407.8 337.7" class="colorfff svgShape"></polygon><path fill="#0a7b9e" d="M646.6,597.5c-0.3-1.4-1.8-1.8-2-1.8l-0.5,1.5l0,0c0.2,0,0.3,0.2,0.5,0.3l0.3,1.4
									c-0.2,0.2-0.3,0.3-0.3,0.5l1.1,1.1C646.4,599.1,646.7,598.4,646.6,597.5L646.6,597.5z" class="colorfff svgShape"></path><polygon fill="#0a7b9e" points="648.8 592.6 646.4 592.5 646.6 590.2 649 590.5" class="colorfff svgShape"></polygon><path fill="#0a7b9e" d="M707 572.8c1.1-.6 2.4-2 2.3.9-.2 2.9-1.4 2-2.3 2.9S705.5 573.7 707 572.8L707 572.8zM719.8 562v-.3c0-.5-.2-1.1-.5-1.7l-1.4.8c.2.3.2.8.3 1.1 0 .5.2.9.5 1.2.3.2.6.3 1.1.2l-.3-1.5C719.5 561.8 719.6 561.8 719.8 562L719.8 562zM716.5 563.2c.5 1.5.9 3 .9 3.2l1.4-.6c0 0-.6-1.5-.9-3L716.5 563.2 716.5 563.2zM710.9 569.2l-1.5-.2c-.2 1.2.2 2.7 1.4 2.9l.3-1.5 0 0C711 570.4 710.9 569.8 710.9 569.2L710.9 569.2zM704.4 538.9c-.2-.5-.3-.9-.8-1.1-1.1-.5-3 .3-3.9.9l.9 1.2c.9-.6 2.3-.9 2.4-.8 0 0 0 0 0-.2L704.4 538.9 704.4 538.9zM459.5 613.3L459.5 613.3 459.5 613.3c.2-2.3.4-4.5.6-6.7l-1.5.4v1.2l-2.6.3 1.5 3.8L459.5 613.3z" class="colorfff svgShape"></path></g><path fill="#0a7b9e" stroke="#0a7b9e" stroke-miterlimit="10" d="M482.7 426.6" class="colorfff svgShape colorStrokefff svgStroke"></path><g transform="translate(-260 -150)" fill="#0a7b9e" class="color000 svgShape"><path fill="#0a7b9e" d="M996.3 869.8c-21.4 5.7-44.3 7.6-65.1 14.7 35.3-30.2 33.2-77 56.8-112.6 7.5-10.1 13.7-20.7 22.4-30.2-14.3 28.7-8.1 65.9-24.5 93.8-6.3 11.1-15.4 21.8-25.4 30.5 3.3-.1 6.1-3 9-4.8 26.7-26.6 61.6-34.1 90.5-55.7 11.6-9.2 22.2-21.3 27.2-34.4C1081.7 815.2 1037.7 856.6 996.3 869.8L996.3 869.8zM1092.4 690.8c-13.1 18.6-28.9 35.9-40.9 54.8 1.3-15 3.1-33.3-2.7-47.5-10.1-30.5-19-61.5-21.8-95l.4-12.8c7.6 34.2 41.2 57.7 39.1 96.1.8 9.3-2.1 17.2-3.8 25.4l.6.6 1.5-1.7c5-18.8 7.5-38.6 15.2-56.2 11-25.3 24.8-50.8 19.2-81.3C1115.8 609.2 1110.7 657.3 1092.4 690.8L1092.4 690.8z" class="colorfff svgShape"></path><path fill="#0a7b9e" d="M1071.8,497.1c22,29.9,26.8,77.4,10.8,111.7c-6,14.5-10.2,30-12.6,46c-1.1-2.8-1.4-6.5-2.4-9.6
							c-8.8-33.5-40.5-57.4-53.5-89c-4.1-10.3-7.7-21-9.6-32.2c13.9,25.8,48.3,39.1,57.6,67.5c3.8,7.2,3.6,16.2,6,23.9
							c0.5,0,1-0.4,1-0.9c-4.1-29.2-2.9-59.8,1.1-88.7c-0.2-15.6-1.8-30.8-10.4-42.9C1065.4,486,1067.9,492.2,1071.8,497.1
							L1071.8,497.1z" class="colorfff svgShape"></path><path fill="#0a7b9e" d="M1056.3,491.4c5.8,26.2-2.7,51.6,2.7,78l-0.2,0.2c-14.2-28-44.4-41.2-65.2-63.6
							c-12-13.3-17.3-29.5-20.3-46.6c11.9,28.7,44,35,62.5,59.2c6.2,5.6,8.2,13.3,12.2,19.6l0.7-0.6c-10.6-22.7-14.2-48.1-21.6-72.3
							c-3.7-10.5-11.1-20.8-20.9-27.4C1030.3,443,1051.2,468.2,1056.3,491.4L1056.3,491.4z" class="colorfff svgShape"></path><path fill="#0a7b9e" d="M991.5 431.4c18.2 16.3 26.5 37.5 31.8 59.4l3 7c-26.5-19-50.5-44.6-67.4-71.7l-20.7-20.9C956.4 412.8 976 417.4 991.5 431.4L991.5 431.4zM573.4 408.6c-18.3 16-31 36.3-44.6 55.3-12.2 15.1-27.7 25-41.5 38 7.5-15.4 7.7-33.9 18.3-48.1C520.6 427.5 548.5 418.3 573.4 408.6L573.4 408.6z" class="colorfff svgShape"></path><path fill="#0a7b9e" d="M473.3,464.5c8.9-11.1,20.2-18.8,32.9-22c-24.7,16.9-23,47.3-30.9,72.5c-2.5,9.3-6.8,17.9-9,27.5l0.6,0.5
							c4.1-10.8,11.3-21,20.3-29.9c17.5-16.2,43.4-26.2,52-50.2c-0.4,33.2-28.1,59.4-54.6,78c-10.9,9.6-21.5,20.5-27.5,32.9
							c-0.6-8.4,1.2-16.8,0.6-25.8C454.9,519.1,452.8,486,473.3,464.5L473.3,464.5z" class="colorfff svgShape"></path><path fill="#0a7b9e" d="M423.4,563.7c-0.7-29.4,11.5-53.4,28.6-75.3c0.5-0.2,0.9-0.8,1.5-0.6c-18.9,28.8-3.3,65-4.1,97.7
							l-2.5,33.5c0.4,0.2,0.4,1.2,1.2,0.9c1.1-3.7,1.4-7.7,2.1-11.6c4.5-27,27.9-46.2,48.4-64.8c4.4-4.9,8.2-9.8,10.5-15.6
							c-1.7,13.5-5.9,27-11.5,39.5c-16,31.1-45.4,56.6-50.8,92.2C444.3,625.4,421.1,599.9,423.4,563.7L423.4,563.7z" class="colorfff svgShape"></path><path fill="#0a7b9e" d="M409.1,605.5c2.1-9.2,3.7-18.7,7.7-27.2c-7.6,38.9,18.6,66.9,27.1,100.6c3.6,12.6,4.5,26.1,9.6,38
							c0.5,0.3,0.9-0.2,1.2-0.6c-12.8-35.8,5.7-69,24.2-97.1c4.5-7.6,7.1-16,9.3-24.8c2,16.2-2.1,34.8-4.5,51.7
							c-4.5,21.4-11.2,41.7-17.1,62.5c-3.9,13-2.8,27.6-0.9,41.2l-1.9-1.5c-13.6-25-40.5-44.6-48.5-71.9
							C409,654.5,404.6,629.2,409.1,605.5L409.1,605.5z" class="colorfff svgShape"></path><path fill="#0a7b9e" d="M407.8,681.4c3,41.2,47.3,63,67.8,97.1c4.9,7,9.1,14.7,15.6,20.5c-1-4.4-5.1-8.1-6.6-12.6
							c-7.2-14.3-9.8-31.3-8.1-48.6c2-21,10.8-40.6,7.5-62.7c18,38.9,12.6,87.5,22.6,129.6c2.6,9.2,8,17.5,11.5,26.3
							c-37.1-25.2-87.6-49.3-104.1-95.5C407.1,719.5,406.3,699.7,407.8,681.4L407.8,681.4z" class="colorfff svgShape"></path><path fill="#0a7b9e" d="M430,776c20.7,46.8,72.4,50.6,107.2,79.1c6.4,5.7,13.1,10.5,20.3,13.8l0.4-0.4
							c-8-7.2-17.2-15.4-22.8-24.8c-20.3-28.2-13.2-67.8-28.4-98.2c13.8,16.5,26.4,33.7,34.8,52.5c12.4,30.6,17.2,65.2,45.9,88.4
							c-31.1-10.2-67.5-7.4-95-26.5C462.3,841.6,435.6,810.3,430,776L430,776z" class="colorfff svgShape"></path><path fill="#0a7b9e" d="M483.1,863.2c33.1,37.7,87.3,25.1,131.4,35c6.2,0.8,11.9,3.3,18.5,2.3c-5.3-3.3-12.6-3-18.3-6
							c-34.6-12.2-39.7-49.6-58.5-74.9c24,15.9,44.2,37.4,66.3,58.3c15.9,13.9,35.1,20.4,55.3,24.5c-4.8,1.8-11.2,1.3-16.4,2.7
							c-36.3,8.9-76.5,23.5-115,10.4C521.5,907.6,495.7,887.9,483.1,863.2L483.1,863.2z" class="colorfff svgShape"></path><path fill="#0a7b9e" d="M892.7,928.9l-29-11.6c-11.1-5.4-27.1-11.7-47.1-15c-23.8-3.9-43.8-2-57.1,0.3
									c-12.3-1.9-31.1-3.6-53.2,0c-35.8,5.9-50,20.6-78.5,27.6c-18.9,4.7-47.4,6.8-86.6-7.5c11.8,14.8,27.6,23.9,43.9,30.1
									c30.4,12.1,66.5,3.8,91.6-13.7c21.6-12.1,40.1-35.9,68.5-26.9c-28.9,13.4-55.3,32.2-79.2,56.4l15,12.3
									c9.2-12.4,20.1-23.6,31.8-33.6l-2.2-6.9l8.4,1.8c5.8-4.6,11.8-9,17.8-13.1l-2.1-10.7l9.8,5.7c0.2-0.1,0.4-0.2,0.6-0.4
									c2.3-1.2,4.8-2.6,7.2-3.8l7.1-13.6l6.7,13.2c2.8,1.5,5.7,3.1,8.5,4.8l9.5-5.5l-2,10.4c6.1,4.1,12,8.6,17.8,13.4l8.2-1.8
									l-2.2,6.9c11.5,10.1,22.5,21.1,33,32.4c5-4,10.2-8.4,14.3-13c-24-23.2-50.4-41.4-78.7-54.6c4.7-1.3,10.1-1.6,15.6-1.5
									c15.3-0.9,25.7,9.9,37.5,17.4c29.2,22.2,68.2,36.7,105.5,22.8c16.8-6,33-16.6,44.6-31.4
									C954.5,936.1,919.6,938.9,892.7,928.9z" class="colorfff svgShape"></path><path fill="#0a7b9e" d="M973 912.5c-41.9 15.8-84.1-3.6-124.3-10.1l-7.7-1v-.2c19.2-4.4 37.9-10.1 53.2-23.9 22.5-21.7 42.6-43.9 67.6-61-18.5 23.8-20.5 57.6-51.2 72.9-7.6 5-17.2 5.8-25 9.6 11.2.2 21.4-3.8 32.4-4.9 41.1-6.5 88.1.2 116.9-34.8C1024.2 883.5 997.4 903.9 973 912.5L973 912.5zM1049.2 794.5c-16.6 10.8-33.3 20.9-49.3 33.2v-1.5c24.4-40.5 12.5-96.2 27.5-140.7l5.6-14.9c-3.1 27.8 8.9 51.3 8.1 79.2-.8 16.8-6.3 31.8-15.2 45.2h1.5c11.9-15.7 21.3-32.4 35.2-47.3 21.7-20.9 43.7-42.3 46.5-71.3C1116.5 724.7 1089.3 767.1 1049.2 794.5L1049.2 794.5z" class="colorfff svgShape"></path></g><polyline fill="none" stroke="#000" stroke-miterlimit="10" points="502.3 1000 500 0 0 0 0 500 1000 500" display="none"></polyline><path fill="#0a7b9e" stroke="#0a7b9e" stroke-miterlimit="10" stroke-width="11" d="M497.1,859.2l1-19.4c0.1-1.2-0.9-2.2-2-2.2c-0.2,0-0.3,0-0.5,0l-19.3,3.4l2.6-7.2c0.2-0.6,0-1.2-0.4-1.6
			L457.3,815l4.8-2.2c0.7-0.3,1-1.1,0.8-1.8l-4.2-12.9l12.2,2.6c0.7,0.1,1.4-0.2,1.6-0.9l2.4-5.6l9.5,10.2c0.6,0.6,1.5,0.6,2.1,0.1
			c0.4-0.3,0.5-0.8,0.4-1.3l-4.6-23.7l7.4,4.3c0.7,0.4,1.6,0.2,2-0.5v-0.1l7.5-14.7l7.5,14.7c0.4,0.7,1.2,1,2,0.7h0.1l7.4-4.3
			l-4.6,23.7c-0.2,0.8,0.4,1.6,1.2,1.7c0.5,0.1,1-0.1,1.3-0.4l9.5-10.2l2.4,5.6c0.3,0.6,1,1,1.6,0.9l12.2-2.6l-4.2,12.9
			c-0.2,0.7,0.1,1.5,0.8,1.8l4.8,2.2L520,832.3c-0.5,0.4-0.7,1.1-0.4,1.6l2.6,7.2l-19.3-3.4c-1.2-0.2-2.3,0.6-2.5,1.7
			c0,0.2,0,0.3,0,0.5l1,19.4L497.1,859.2L497.1,859.2z" display="none" class="colorfff svgShape colorStroke0a7b9e svgStroke"></path><path fill="#0a7b9e" d="M497.1 859.2l1-19.4c.1-1.2-.9-2.2-2-2.2-.2 0-.3 0-.5 0l-19.3 3.4 2.6-7.2c.2-.6 0-1.2-.4-1.6L457.3 815l4.8-2.2c.7-.3 1-1.1.8-1.8l-4.2-12.9 12.2 2.6c.7.1 1.4-.2 1.6-.9l2.4-5.6 9.5 10.2c.6.6 1.5.6 2.1.1.4-.3.5-.8.4-1.3l-4.6-23.7 7.4 4.3c.7.4 1.6.2 2-.5v-.1l7.5-14.7 7.5 14.7c.4.7 1.2 1 2 .7h.1l7.4-4.3-4.6 23.7c-.2.8.4 1.6 1.2 1.7.5.1 1-.1 1.3-.4l9.5-10.2 2.4 5.6c.3.6 1 1 1.6.9l12.2-2.6-4.2 12.9c-.2.7.1 1.5.8 1.8l4.8 2.2L520 832.3c-.5.4-.7 1.1-.4 1.6l2.6 7.2-19.3-3.4c-1.2-.2-2.3.6-2.5 1.7 0 .2 0 .3 0 .5l1 19.4L497.1 859.2 497.1 859.2zM616.6 1075.7" class="colorfff svgShape"></path><path fill="#0a7b9e" d="M450.5,790.5l2.2,6.9c2-1.7,4.1-3.4,6.1-5.1L450.5,790.5z" display="none" class="colorfff svgShape"></path><g display="none" fill="#0a7b9e" class="color000 svgShape"><path fill="#0a7b9e" d="M474.6,768.4l2.1,10.7c2.6-1.7,5.1-3.4,7.7-5.1L474.6,768.4z" class="colorfff svgShape"></path></g><g display="none" fill="#0a7b9e" class="color000 svgShape"><path fill="#0a7b9e" d="M499.3,756.2l-7.1,13.6c2.9-1.4,5.9-2.6,8.9-3c1.6,0.8,3.3,1.6,4.9,2.5L499.3,756.2z" class="colorfff svgShape"></path></g><g display="none" fill="#0a7b9e" class="color000 svgShape"><path fill="#0a7b9e" d="M514.4,774.3c2.5,1.5,5,3.1,7.5,4.8l2-10.4L514.4,774.3z" class="colorfff svgShape"></path></g><g display="none" fill="#0a7b9e" class="color000 svgShape"><path fill="#0a7b9e" d="M539.8,792.5c2,1.7,4,3.3,6,5.1l2.2-6.9L539.8,792.5z" class="colorfff svgShape"></path></g><g display="none" fill="#0a7b9e" class="color000 svgShape"><path fill="#0a7b9e" d="M539.8,792.5l-9.9,2.2l-4.5-10.5l-5.5,6l2.1-11.2c-2.5-1.7-5-3.3-7.5-4.8l-4.6,2.7l-3.8-7.5
					c-1.6-0.9-3.2-1.7-4.9-2.5c-3,0.4-6,1.5-8.9,3l-3.5,6.7l-4.3-2.5c-2.6,1.6-5.1,3.3-7.7,5.1l2.2,11.1l-5.7-6.2l-4.5,10.3
					l-9.8-2.1c-2.1,1.7-4.1,3.4-6.1,5.1l3.8,11.6h85.5l3.7-11.4C543.8,795.9,541.8,794.2,539.8,792.5z" class="colorfff svgShape"></path></g><g fill="#0a7b9e" class="color000 svgShape"><path fill="#0a7b9e" d="M486 547.4c1-.1 1.9-.2 2.9-.2 1-1.4 2.3-2.3 3.9-2.9-2.9-.3-5.7-.9-8.4-1.7.4.7.7 1.5 1 2.3C485.6 545.7 485.8 546.5 486 547.4zM330.9 326.3c38.7-37.8 90.2-62.6 147.3-67.3v-5.9C352.1 263.1 252.5 369 252.5 497.7c0 121.7 88.9 222.9 205.2 242.1v-6c-48.9-8.3-92.8-31.5-126.9-64.7l31.5-31.5c26 25.3 58.8 43.2 95.6 50.9 0-2.1.3-4.1.3-6.2-35.2-7.6-66.8-25-91.8-49.1l27.8-27.8c17.9 17.1 40 29.9 64.7 36.5 0-.7 0-1.4 0-2.1 0-.3 0-.7.1-1 0-.9 0-1.8 0-2.7 0-.1 0-.2 0-.3-22.9-6.5-43.5-18.6-60.3-34.6l26.1-26.1c-1-2-1.6-4.1-2-6.4L394.4 597c-24.1-25.1-39.3-59-40-96.4h44.8c.6 22.8 9.2 43.7 22.9 60.2.1-2.9.4-5.7.9-8.4-10.7-14.6-17.3-32.5-17.9-51.8h17.4c.8-2.1 1.8-4.1 3-6h-20.3c.7-23.3 10.1-44.6 25.1-60.5l24.2 24.2c1.6-1.3 3.2-2.5 4.9-3.6l-24.9-25c10.2-9.7 22.7-17 36.5-21.1v-6.1c-15.5 4.4-29.4 12.4-40.8 23.2l-31.5-31.5c19.6-18.8 44.5-32.2 72.3-37.5v-6.1c-29.4 5.4-55.8 19.4-76.5 39.2L366.6 362c28-27.2 64.5-45.8 105.1-51.4 2.7-2.8 5.8-5.1 9.3-7.1-45.9 3.9-87.3 24-118.6 54.3L330.9 326.3zM326.6 330.5l31.5 31.5c-33.5 34.5-54.3 81.1-55 132.7h-44.6C259.2 430.9 285.1 373 326.6 330.5zM326.6 664.7c-41.5-42.4-67.2-100.2-68-164h44.6c.7 51.5 21.6 98.2 55 132.7L326.6 664.7zM390.2 601.2L362.4 629c-32.3-33.3-52.5-78.5-53.2-128.3h39.4C349.3 539.7 365.1 575.1 390.2 601.2zM425.9 429.8c-16.1 17.1-26.2 39.7-26.9 64.8h-44.6c.7-37.2 15.9-71.2 40-96.3L425.9 429.8zM390.2 394.2c-25.1 26.1-40.9 61.5-41.6 100.5h-39.4c.7-49.8 21-95 53.2-128.3L390.2 394.2zM520.9 253.4v5.9c55.9 5.3 106.2 29.9 144.2 67l-31.5 31.5c-30-29.1-69.2-48.7-112.8-53.7 0 .1 0 .2 0 .4v1.7c2.1 1.5 4.1 3 5.8 4.8 39.6 6 75.1 24.5 102.6 51l-27.8 28c-20.6-19.7-46.8-33.6-75.9-39.1v5.8c27.5 5.4 52.3 18.7 71.8 37.4l-31.5 31.5c-11.3-10.7-25.1-18.6-40.3-23v6.3c13.6 4.2 25.9 11.5 36 21l-24.6 24.7c1.8 1 3.5 2.1 5.1 3.4l23.7-23.7c15 15.9 24.4 37.2 25.1 60.5h-21.6c1.2 1.6 2.4 3.4 3.4 5.3.1.2.2.5.3.7h17.9c-.6 19.7-7.4 37.9-18.6 52.7.6 2.8.7 5.8.5 8.7 14.4-16.7 23.3-38 24-61.6h44.6c-.7 37.3-15.9 71.2-40 96.4l-28.9-29c-.1 1.5-.4 3-.9 4.6-.2.7-.5 1.4-.8 2.1l26.3 26.3c-16.8 16.2-37.6 28.3-60.8 34.8.1 2.1.2 4.1.3 6.2 24.6-6.6 46.6-19.4 64.4-36.5l27.8 27.8c-23.6 22.9-58.4 42-91.4 50.1l.2 5.4c34.7-8.2 70.7-27.3 95.5-51.4l30.7 30.7c-12.3 12-30.6 26-55.7 39.2-28.8 15.1-54.8 22.1-73 25 .2 1.9.1 4.5.3 6.3 120.1-22.5 207.1-125.1 207.5-241C743.7 374.6 646.9 265.4 520.9 253.4zM669.2 330.5c41.5 42.5 67.4 100.4 68.1 164.2h-44.6c-.7-51.5-21.6-98.2-55-132.7L669.2 330.5zM633.5 366.3c32.3 33.3 52.5 78.5 53.2 128.3h-39.4c-.7-38.9-16.5-74.3-41.6-100.5L633.5 366.3zM596.8 494.7c-.8-25-10.9-47.8-26.9-64.9l31.5-31.5c24.1 25.1 39.3 59 40 96.4H596.8zM605.7 601.2c25.1-26.2 40.9-61.6 41.6-100.5h39.4c-.7 49.8-21 95-53.2 128.3L605.7 601.2zM668.6 664l-30.9-30.9c33.5-34.5 54.3-81.1 55-132.7h44.6C736.6 564.3 710.1 621.5 668.6 664z" class="colorfff svgShape"></path><polygon fill="#0a7b9e" points="287.3 596.6 287.3 599.8 288.8 599.8 288.5 596.1 286.5 595.4 286.5 594 285.4 594 285.4 596.6" class="colorfff svgShape"></polygon><polygon fill="#0a7b9e" points="297.7 605.6 301.4 607.4 302.6 610.8 304.4 612.2 306 615.9 305.1 617.7 302.3 615.2 300.4 612.3 299.3 610.1" class="colorfff svgShape"></polygon><polygon fill="#0a7b9e" points="360.2 682.8 361.5 686.1 359.7 687.1 358.7 685.7 356.3 684.9 356 682.7 354.1 679.7 357 680.1" class="colorfff svgShape"></polygon><path fill="#0a7b9e" d="M443.4,473.6c2.5-5.2,5-10.2,9.5-14c0.6-0.5,1.2-1,1.9-1.5L452,458c-1,2.2-3.4-0.3-3.4-0.3c-0.4-1.5-4,0-4,0
				c0,2.8-4.8-1.2-4.8-1.2l-8.6-6.2c-4.9-4.5-12.3,1.2-12.6,2.5c0.3,3.6-5.7,0.7-5.7,0.7s-4.9-1.5-5.7,0.4c-0.8,1.9-4,1.5-4,1.5
				l-0.4,1l-2.5,0.4l-0.4,1.5l-3,0.4l7.4-0.3c1.9-0.3-0.7,4.3-1.9,4l-3.4,0.3l-1.2,1.2h-3.3L393,466l-4.8-0.3c0,0-2.7,2.2-2.5,3
				c0.3,0.7-0.4,3-1.2,3c-0.7,0-2.2,2.2-1.8,3c0.4,0.7-1.5,3.3-1.5,3.3l-0.4,2.5l-1.5,0.4v6.8l-3,2.1v3l-4.5,4.8l0.4,4l-3.7,4l0.4,4
				l-2.2,0.7l-0.4,1.8l-1,5.2l2.5,0.3c1.2-0.4,1,3.3,0,3.7s-3.7,1.5-2.2,2.5s-4,0.7-4-0.7s-3-2.8-3.7-2.2c-0.7,0.4-1.9-2.2-1.9-2.2
				c-2.7-2.8-11.2,0.3-11.2,0.3l-1.2,4c-2.7,0.4-4.5,5.1-4.5,5.1c-2.2,0.7-4,3.6-3.3,4.3s-1.2,1-1.2,1v5.5l-1.2,1.8l0.3,5.9
				c1.5,0,1.2,2.8,1.2,2.8c-2.5,0.3-1.9,3.6-1.9,3.6l-5.2,1.8l-1,1.5l-6.4-0.3l-1.8,1.8l-1.8-1.8h-12.3l-0.4-1.2l-2.5-0.4l-0.3-2.8
				l-3.7,0.3l-0.7,1.5l-4,0.3c0.3,2.5-4,6.2-4.5,5.2s-3.3-3.7-1.9-4.3c1.2-0.4,4.5-1,4.5-1v-1.8l-9.2-0.3l-1,1.5l-3.7,0.3v4
				l-1.8,0.4c-1.2,0.7,0.3,3.6,0.3,3.6c1.8,1.8-0.3,4.5-0.3,4.5c-1.5,1.5,1.2,4.3,1.2,4.3c1.9,0.4-1.2,1.9-1.2,1.9
				c0.4,2.5,1.9,3.3,1.9,3.3c-1.5,2.5,1,3.7,1,3.7l0.3,4.3l1.8,1v2.8l1,1.8h4l-0.3-6.2c-3.4-4,3-5.1,3.3-3.6s3,2.2,3,2.2
				c0.4,3.7,4.8,5.9,5.9,2.2c1.2-3.7,2.2-1.5,3,0.3c0.7,1.8,5.5,6.1,5.5,6.1h3.7l0.4,3.6c4.2-0.3,5.5,0.3,7.1,5.9
				c1.8,5.8,6.4,7.3,6.4,7.3l3.4-0.3c0-3,3.4,0.4,3.4,2.1c0,1.5,6.7,7.3,6.7,7.3l6.7,1.5l6.2,5.1l4.8-0.4h1.9
				c1.2-4.3,7.1,0.3,7.7,1.8c0.4,1.5,4.5,4,4.9,2.8c0.4-1.2,3.3-0.4,3.7,3.3s2.2,3,2.2,3l14.1-0.3l4.9-4.3l12.6-0.3
				c6.4-0.3,2.5-9.1,1.2-9.1c-2.2-1.8,0.7-9.1,0.7-9.1l-18-16.8c-4.2,0-0.4-6.1-0.4-6.1c3.3-2.1-0.7-5.2-0.7-5.2
				c0.4-3-1.8-6.5-1.8-6.5c-4.5-3-3.3-8.8-3.3-8.8v-4c-3.7-3.6,1.5-4,1.5-4c1.8-3-1.2-5.2-1.2-5.2l-0.3-3.3l-4-0.4l-0.4-11.7
				l-8.9-12.8c-1.8-0.4-0.4-3.6-0.4-3.6c2.2-1.2-0.4-4.3-0.4-4.3l-0.3-5.5l5.2-0.4l1.2-1.9h2.5l-0.3-6.5c1.2-3.3,4.2-1.5,4.2-1.5
				l3.4,0.3l1.9-3.7l0.4-3l-2.7-0.3c-3-1.8-1.5-8.3-1.5-8.3c4.8-7,10.1-3,10.1-3l3.4-0.3c5.2,3.6,0.4,10,0.4,10
				c-1,1.5-0.4,6.2-0.4,6.2l1.2,8l-3.3,2.8c-2.7,1.5-2.7,5.1,0.3,5.8c1.9,0.3,1.2,5.1-1.8,1.8c-4.2,0,1.5,3.4,0.7,3.1
				c4.1,1.8,3.1-2,3.1-2l5.9-4.8c2.2-1.8,6.2,3.7,6.2,4.5c0,0.6,8,0.4,9.5,0.3c-0.7-16.9,7.9-30.9,21.7-40.4
				c0.4-0.2,0.7-0.4,1.1-0.6C442.4,476.3,442.8,474.9,443.4,473.6z" class="colorfff svgShape"></path><path fill="#0a7b9e" d="M390.7,506.7l-4.5-0.4l0.3,1.8h1.2
				c1.9,3.6,0.3,12,0.3,12s-3,0.3-3.4-1.2s-1.8,3.3-0.7,4c1,0.7,4.5,0,4.8,2.8s2.2-1.8,2.2-1.8L390.7,506.7L390.7,506.7z" class="colorfff svgShape"></path><polygon fill="#0a7b9e" points="386.2 527.1 386.2 533.1 390.1 538.4 391.5 534.8 392.1 532.6 390.4 531.9 390.7 528.2 392.1 527.9 392.3 526.1 388.6 528.6" class="colorfff svgShape"></polygon><polygon fill="#0a7b9e" points="392.6 543.9 392.6 541.4 390.8 541.7 390.7 543.6" class="colorfff svgShape"></polygon><polygon fill="#0a7b9e" points="390.4 556 390.4 554.2 388.3 554.5 388.3 556.3" class="colorfff svgShape"></polygon><path fill="#0a7b9e" d="M393.3,548.2c0.6,0,1-0.4,1-1s-0.4-1-1-1
				s-1,0.4-1,1S392.7,548.2,393.3,548.2z" class="colorfff svgShape"></path><circle cx="395" cy="552.4" r="1" fill="#0a7b9e" class="colorfff svgShape"></circle><circle cx="395.1" cy="523.7" r="1" fill="#0a7b9e" class="colorfff svgShape"></circle><path fill="#0a7b9e" d="M617.6 626l2.2 1 .3 4.3c3 3 12.6.4 12.6-.3s-.4-9.2-.4-9.2l-1.2-1.2-.3-6.2c1-3.3-4.8-8-5.2-7s-3.7.3-3.7 1.2c0 1-1.9 5.9-1 7.7 1 1.8-.7 1.8-1 3.6C619.5 621.4 617 624.4 617.6 626L617.6 626zM612.1 615.9c-.4 1.9-2.2 3-3.3 2.2s1.2 1.2 1.8 2.2c.4 1 1.9 1 2.5 0 .4-1 .3-3.3.7-4.3C614.3 615.2 612.4 614.9 612.1 615.9L612.1 615.9z" class="colorfff svgShape"></path><rect width="1.8" height="4.8" x="600.7" y="569.9" fill="#0a7b9e" class="colorfff svgShape"></rect><path fill="#0a7b9e" d="M626.2,521.6c-1-1.5,4.9-4,5.9-1
				s0,2.5-1,2.2C630.3,522.5,627.7,523.5,626.2,521.6L626.2,521.6z" class="colorfff svgShape"></path><polygon fill="#0a7b9e" points="631.6 488 631.3 489.5 634 489.9 634.3 488.4" class="colorfff svgShape"></polygon><polygon fill="#0a7b9e" points="624.6 492.3 624.7 492.8 626.2 492.2 625.6 491 625.3 490.1 624.6 490.5 622.8 491.6 621.2 490.5 620.4 491.9 622.4 493.1 622.8 493.3 623.1 493.1" class="colorfff svgShape"></polygon><path fill="#0a7b9e" d="M634 431.2h-3.7c0 0 1.2.4-2.2-2.8-3.4-3.3-5.7.7-5.7.7l-4 .4v4l-1.9.7.3 2.5 2.7-.3c0 0 0 3 .7 1.8s7 .3 6.4 3.3c-.1 1.2 6.2 4.5 5.5 8.5 3.3.4 2.5 3.7 2.5 3.7l4.2.4 1.2-2.5 1.2.3v-1.5l-2.7-.7-.4-8-1.8-1.2.4-2.1-1.9-.7 1-3.3L634 431.2 634 431.2zM644.8 456.8l-1.9-.3-4.5.7-2.5 4.8c0 0 1.2.7 2.2 2.5s1.5 12-1.5 13.8.3.7.3.7l-.4 5.5c.7 2.5 1.9 1.2 2.7 0 .7-1.2 1.5-1.5 2.5-2.8 1-1.2 2.5-3.6 2.7-5.2.3-1.8 1.5-4.5.7-5.2-.7-.7.7-4.3.7-4.3s1-2.1 0-4c-1-2.1.3-4.3 1-5.2L644.8 456.8 644.8 456.8z" class="colorfff svgShape"></path><polygon fill="#0a7b9e" points="647.8 467 648 465.1 649.4 465.2 649.3 467.3" class="colorfff svgShape"></polygon><polygon fill="#0a7b9e" points="647.7 474 646.3 473.3 647.1 471.8 648.4 472.5" class="colorfff svgShape"></polygon><path fill="#0a7b9e" d="M645.6 454.1l-1-2.2c0 0 0-1.9.4-3 .4-1-1-1.9-1.8-2.2-.7-.3-.4-2.2-.7-3.3-.3-1-1.9-1.8-1.9-1.8s-.4-3.7-.4-4.5-2.2-1.8-1.5-2.5 1.2-1.8 1.9-2.2c.7-.4-.7-4 .4-3.3 1.2.7 1.2 2.1 1.8 3 .4 1-.3 4.5 1 5.2 1.2.7-.3 3.3 1.8 3.3 1.9 0 .7 4.8.7 4.8s-.4 3.6.7 3.7c1.2.3.4 6.2.4 6.2L645.6 454.1 645.6 454.1zM629.5 413.5c.7 1 2.2 1.8 2.2 2.8s-.4 1.8 1 1.9c1.5.3 2.5-.3 3 1 .4 1.2.4 3.3.3 4.3-.3 1 .3 2.5 1.5 2.5s1.5.3 1.5 1 1.5-2.8 1.5-2.8c-1.2-1-2.2-3.3-2.2-3.3s-1.2-3.6-1.2-4-1.8-1-2.5-1.2c-.7-.3-1.9-2.5-1.9-2.5L629.5 413.5 629.5 413.5zM631.9 411.1c-.7-1-1.5-1.8-2.5-2.2-1-.4-1.8-1-2.7-1-1 0-1.9-1-1.5-2.2s-.7-1.8-.7-2.8.7-1 1.9-.3 1 1 1.9 2.2c1 1.2 1.5 2.5 2.5 2.2s1.8 2.2 2.7 1.5c1-.7.7 1.8.7 1.8L631.9 411.1 631.9 411.1zM603 439.5c1.3 1.3-7.4 1-7.4 0s.7-4.5 3-3.7c2.2.7 2.5-4.5 2.5-4.5s-1.9.3-.3-.7c1.8-1 0-2.5-.7-3.3-.7-.7-1.5-2.1-1.5-2.1h3.4c1.5-1 1.9-5.8 1.9-5.8 3 1 4.5-1 4.5-1s.4 1.5 1.5 2.8c1 1.2-2.5 1.8-1.2 2.5 1.2.7 1.8 3 1.2 3.7-.4.7-3.3.3-3.3-.7s-1 1.2 0 2.5c1 1.2-1.2 3-1.8 3-.4 0-3.7.4-1 2.1 2.7 1.5 5.7.7 5.7.7s2.2-.3 3 1c.7 1.2-.3 1.5-1.5 1.5s-7.1-.4-7.1-.4S602.3 438.8 603 439.5L603 439.5zM587.1 441.7c1.2-.3 4.2-.4 4.8.3.4.7-1.8 1.8-1.8 1.8l-3 .4C586.2 443.1 585.9 442 587.1 441.7L587.1 441.7zM619.1 420.8c1.9-1 6.2-1 5.9-2.5s2.5-1.9 2.5-1.9l.7 3 2.2 1.5.3 2.8c0 0 .7-.4-1.9.3-2.7.7-1 1.9-1 1.9l-5.9.3-.7-2.5L619.1 420.8 619.1 420.8zM609.4 407.1c1.5 0-.4 5.8 3.4 5.2 4-.4.3 1.8 3.3 1.9 3 .3 2.2-2.2 3.3-4 1-1.8.4-2.8-1.2-3.3-1.8-.4-1.8-.4-2.2-2.5-.4-1.9-2.5-2.5-2.5-2.5l-.7-3-3.3 1.9-3.3 4.3C606.2 408.7 607.9 407.1 609.4 407.1L609.4 407.1z" class="colorfff svgShape"></path><polygon fill="#0a7b9e" points="616 428.4 616.7 426.9 618.1 427.5 617.3 429.1" class="colorfff svgShape"></polygon><rect width="1.5" height="1.8" x="613.4" y="426" fill="#0a7b9e" class="colorfff svgShape"></rect><polygon fill="#0a7b9e" points="614.6 392.5 614.9 394.7 613.4 394.9 613.1 392.7" class="colorfff svgShape"></polygon><rect width="1.5" height="1.2" x="610.5" y="415.9" fill="#0a7b9e" class="colorfff svgShape"></rect><polygon fill="#0a7b9e" points="606.5 415.9 606.3 414.4 608.8 414.2 609 415.7" class="colorfff svgShape"></polygon><polygon fill="#0a7b9e" points="586.1 440.1 584.7 439.5 585.5 437.7 586.8 438.3" class="colorfff svgShape"></polygon><polygon fill="#0a7b9e" points="578.3 435.5 578.2 434 580.7 433.7 580.9 435.2" class="colorfff svgShape"></polygon><polygon fill="#0a7b9e" points="535.5 435 530 435.2 530.2 436.7 535.5 436.5" class="colorfff svgShape"></polygon><polygon fill="#0a7b9e" points="526.4 437.1 525.8 434.9 527.3 434.6 527.8 436.8" class="colorfff svgShape"></polygon><polygon fill="#0a7b9e" points="525.4 438.8 525 437.3 525.7 437.1 526.1 438.5" class="colorfff svgShape"></polygon><path fill="#0a7b9e" d="M537.7 434.5l-.3 1.8 2.7.3c0 0 1.2 1 1.2 1.8s1.8 1.5 2.7 1.5c1 0 3.7-2.1 3.7-2.1s1.2-3.6.3-3.3c-1 .3-3 1.8-3.3.3s-3.3-.7-3.3-.7L537.7 434.5 537.7 434.5zM550.1 431.8c0 .7-.4 1.8 1 2.1 1.5.3 4.2-1 4.5.4.3 1.5.3 2.5 2.2 3.3s3.3 1 4.8 1 4.8-.4 4.8-.4 3.6.6 4.2 1.2c2.7 2.8 4.5 3.6 5.2 2.2.7-1.2-.3-4-.4-5.1-.3-1-3.7-5.8-4.9-4.8s-1.5 0-3.7.7-7 .3-7.1-.7c-.3-1-3.7-1.5-3.7-2.5s-2.5-2.2-2.2-.7-1.8 2.2-2.2 1.8C551.6 429.7 550.1 431.8 550.1 431.8L550.1 431.8zM606.9 399.7l1.8-5.5c-2.5-.4-1.9-3.3-1.9-3.3-.3-2.2-3.7-4.8-4.9-4s-.7-5.2-.7-5.2 2.2-1.5 3.3-.7-8.5-12.5-10.4-11.3-6.4-1.2-6.2-3.6c.3-2.2-8.9-9.8-8.9-9.8s-3-1.9-3.4-.4-1.5 2.5 0 3.3 1.2-1.2 3 .4c1.8 1.8 4.9 4 3.7 5.5s-2.7 2.1-2.7 2.1l1.8 2.1h2.7l.4 4.3c0 0 3 1.5 3.7 3.3s.7 2.8 0 3.7c-.7 1-2.2 2.8-1.9 4.5.3 1.8 2.2 2.5 2.2 2.5l1.9.3 1.5.7v3.3c1.9-.4 5.2 2.2 4.9 4s.4.7 3 2.5c2.5 1.8 1.8 2.1 3.4 3.3C604.7 402.6 606.2 401.9 606.9 399.7L606.9 399.7z" class="colorfff svgShape"></path><path fill="#0a7b9e" d="M566.2 365.4c-.3-1-.7-4.5.7-4.3 1.5.3.4 0 2.2.7s1.9-1.2 1.9-1.2h2.7l3.4 2.8-.4 2.2-2.5.3c-1.2-1.9-3.7-1.2-3.3.4.4 1.8-1.2 5.1-2.2 5.2-1 .3-4.2.3-4-1.2C565.1 369 566.2 365.4 566.2 365.4L566.2 365.4zM564.2 358.8v-1.9c0 0-.3-1.9-1.5-1.9s-3.4-1.5-3-2.5-4.2-2.1-4.2-2.1-4.2-4-2.7-3.6.7-1.8.7-1.8-3 .4-3.7.3c-.7-.3-.4-2.5-.4-2.5s-3-.7-3 0 1 .7 1.5 2.2.3 4 2.5 4.5c2.2.4 2.7 1 3 2.1.3 1 3 1.2 3 1.2l1.9 1L564.2 358.8 564.2 358.8z" class="colorfff svgShape"></path><polygon fill="#0a7b9e" points="537.4 333.2 536.7 331.1 534.8 330.6 534.8 332.9" class="colorfff svgShape"></polygon><path fill="#0a7b9e" d="M536.7 322.6c-2.5-1.9 3.4 1.5 3.4 1.5 1.9 0 3.3 1.5 3.3 2.2s2.7.4 2.7.4l.3-1.8-1.9-2.5-1.8-1.2c0 0-2.7-.3-2.7-1C540 319.6 537.7 323.4 536.7 322.6L536.7 322.6zM582.2 324.1c-.7 2.2-1 5.2-2.2 5.2s-.7 3.3-.7 3.3 3.3 0 4.2.3c1 .3 1 2.8 1 2.8 3.7-.3 5.2 4.8 4.8 6.1-.4 1.2 1.5 1.2 1.5 1.2s0 4-.4 5.1c-.4 1 3.3 1.8 4.2 3.3 1 1.5-.4 6.5-1.2 6.8-.7.3 1.9 1 1.8 2.2-.3 1.2.7 0 1 2.1.3 1.9.7 6.2.7 6.2l3.4.3c.4-3.3 6.8-3.4 7.9-3 4.2 1.5 7.4 8 7.4 9.5s-2.7 1.8-2.7 1.8l.4 7.3c4.2 1.2 7.7 7.3 7.1 8.3-.4 1 3 .7 3 .7.4-4.5 4.8-3 4.9-1.5.3 1.5 1 4.8 1 4.8l1.2 2.2 1.8 1.8 2.7-.3.7 1.5 3.3.4c0 0 2.7 3 3 3.7s4 .4 4.9.7c1 .3 2.5 1 2.7 2.2.3 1.2 1.8 3.3 1.8 3.3s3 .7 3.3 1.8c.3 1 1.5 3.3 1.5 3.3l2.5 2.1.3 2.2 2.7.3.7 3 4.5-.3 2.5-1.8c3.3-1.8 5.5-4 5.7-5.1.3-1 .7-4.8 3.3-4 2.5.7.7-5.5.7-5.5s-3.4-2.5-3.3-3.7c.3-1.2-3.4-3.7-3.3-4.8.3-1-3.3-3-3-4s-1.8-3.7-1.8-3.7l-3.7-3.6-.4-2.2-3-.3-5.9-7.3.3-2.1-1.8-.3v-2.8l-1.8-1-2.7-.3-5.5-5.9-.4-2.8h-2.7l.4-5.2c1.8-2.2.7-6.5.7-6.5s-3.4 1.8-5.2 1c-1.8-.7.7-2.5.7-2.5v-1.9l-1.5-1.5c0 0-4.2.4-4.5-.3-.3-.7-1-4-1-4l-.3-4.3-1.8-.7-.3-1.5-2.7.3v-3l-1.5-.4-1.5-.7-.3-3L616 329l-1.8-2.5-1.9-3-6.2-.4-1.5-1.5-2.5-.4-1.8-.7-.7 1.2-4.8.3-.3 1.5C592.3 324.4 582.5 323.4 582.2 324.1L582.2 324.1zM608.2 317.6c-.4-1.9 4.9-3.7 6.2-2.2 1.2 1.5 4.8 1.8 5.2 9.2.1 2.7-4.5-2.8-4.5-2.8l-3.7-1.2C609.4 320.1 608.4 318.9 608.2 317.6L608.2 317.6z" class="colorfff svgShape"></path><polygon fill="#0a7b9e" points="535.7 320.7 534.3 320.1 535.4 317.7 536.7 318.4" class="colorfff svgShape"></polygon><path fill="#0a7b9e" d="M522.9 296l-2.1-2.1v3.7C524.1 299.3 524.8 297.8 522.9 296zM546.1 280.2c-1.2.4-3.7.3-3.7.3h-4.5c-.3-1.8-4.2-1-4.5 0-.1.9-1.6 1.2-1.6 1.2l-5.7.4c-.5 1.5-3.4 2.6-3.7 1.5-.3-1-1.1-.5-1.6.5v2.5c.2.3.6.6 1.2.8 3.3 1 6.4 0 6.4 0l.7-1.5 12.3.3c1-1 1.5-2.5 1.5-2.5s3-1 4.2-.4C548.3 283.6 547.4 279.6 546.1 280.2z" class="colorfff svgShape"></path><polygon fill="#0a7b9e" points="551 278.1 551.6 278.7 552 278.3 554.6 276.2 553.5 275 551.6 276.7 550.4 275.3 549.3 276.5" class="colorfff svgShape"></polygon><polygon fill="#0a7b9e" points="540 272.3 540.3 272 543.1 270.3 542.2 269.1 540 270.6 538.3 269.5 537.6 270.9 539.5 272" class="colorfff svgShape"></polygon><path fill="#0a7b9e" d="M532.2 322.5l-.3-.3h-.1c-.1.6-.3 1.1-.5 1.7l1.4 2.1 1.2-.9L532.2 322.5zM450.1 392.1l.3 2.8h3.7c1.5 0-1.2-1.8-1.2-1.8S450 393.4 450.1 392.1L450.1 392.1z" class="colorfff svgShape"></path><polygon fill="#0a7b9e" points="454.9 392.2 455.8 391 457.3 392.2 456.4 393.4" class="colorfff svgShape"></polygon><polygon fill="#0a7b9e" points="409.8 345.2 410.9 344.2 412.4 345.7 411.3 346.7" class="colorfff svgShape"></polygon><path fill="#0a7b9e" d="M646.5,602.5c-0.3-1.3-1.8-1.8-1.9-1.8
				l-0.4,1.5l0,0c0.1,0,0.3,0.1,0.4,0.3l0.3,1.3c-0.1,0.1-0.3,0.3-0.3,0.4l1,1C646.3,604.1,646.6,603.4,646.5,602.5L646.5,602.5z" class="colorfff svgShape"></path><polygon fill="#0a7b9e" points="648.7 597.8 646.3 597.6 646.5 595.4 648.8 595.7" class="colorfff svgShape"></polygon><path fill="#0a7b9e" d="M706 578.3c1-.6 2.4-1.9 2.2.9-.1 2.8-1.3 1.9-2.2 2.8C705.1 582.9 704.5 579.2 706 578.3L706 578.3zM718.6 567.6v-.3c0-.4-.1-1-.4-1.6l-1.3.7c.1.3.1.7.3 1 0 .4.1.9.4 1.2.3.1.6.3 1 .1l-.3-1.5C718.3 567.4 718.4 567.4 718.6 567.6L718.6 567.6zM715.3 568.8c.4 1.5.9 3 .9 3.1l1.3-.6c0 0-.6-1.5-.9-3L715.3 568.8 715.3 568.8zM709.8 574.7l-1.5-.1c-.1 1.2.1 2.7 1.3 2.8l.3-1.5 0 0C710 575.9 709.8 575.3 709.8 574.7L709.8 574.7zM703.4 544.8c-.1-.4-.3-.9-.7-1-1-.4-3 .3-3.9.9l.9 1.2c.9-.6 2.2-.9 2.4-.7 0 0 0 0 0-.1L703.4 544.8 703.4 544.8zM600.1 641.6l1.8-.7V639l5.7-5.2v-4l-12.3-10.3c-5.5-1.9 0-14 3.7-13.8 3.7.3-.3-18.6-.3-18.6l-1.9-1 .4-6.1h-2.7l-4.5 5.8-1.2 4c-.4 5.2-15.8 4.3-16.5 3.6s-5.9-3-5.9-3-1.1-.9-2.2-1.6c-6.9 9.8-17.9 16.8-28.9 21.2 0 .2 0 .4 0 .6l2 61.8c1.7.9 3.9 2.4 4.7 4.3l7.3 7.8 7.4 2.2 1.2 4 1.9-.3 1.5-1.2 5.9-.3 3-2.8 3.3-.4 27.5-23.3-2.5-1.5v-5.5c4.5-3.3 4.8-9.1.4-9.5C595.8 645.5 597.1 642.2 600.1 641.6z" class="colorfff svgShape"></path><path fill="#0a7b9e" d="M589.4,554.9c-0.3,1.2-4.2,1.2-4.2,1.2s-1,1.8-1.8,1.8c-0.7,0,1,2.2,0.4,3.7c-0.4,1.5-2.5,1.5-2.5,1.5
				l-3.7,1l-1,1.2h-4l0-0.2c0.1,2.5-0.2,4.9-0.9,7.5c-0.4,1.4-1,2.8-1.6,4.1c-1,3.4-2.3,6.6-4.1,9.5c0.3,0.2,0.7,0.4,1,0.7
				c1.2,1.5,7.7,0.3,7.7,0.3l1.8,1.5l2.7,1l7.7,0.3l0.3-4.8l1.5-1.5l-0.3-3l1.8-1.5v-2.5l1.5-0.4l0.3-5.5l1.2-0.3v-12L589.4,554.9z" class="colorfff svgShape"></path><path fill="#0a7b9e" d="M634.9,464.6c-1,1-3.3,1.5-3.3,1.5l-0.7,2.8l-1.2,1c0,0,0.3,0.7,0,2.5s-2.5,2.8-2.5,2.8l-1,1.2
				c0,0-5.9,0.3-6.7,0c-2.2-1-0.7-4,0.7-3.7c1.5,0.3-0.3-4.3-0.3-4.3l1.9-0.3c0,0,0.3-4.5,1-4.5s-0.3-1.5-1.2-2.2
				c-1-0.7-2.2-3.3-3.3-3s-4.9,0-4.9,0l-0.7,1.5l-2.7,0.4c0,0,0.3,1.9-0.3,2.5c-1.5,1.8-7.1,5.5-4.8-0.7l0.7-1.5v-2.2l-4.5-0.3
				c0,0-2.2-0.7-2.2-1.8c0-1-0.3-2.2-0.3-2.2l-5.2-5.8l-6.2-0.7l-0.4-1.2l-3.7-0.4c-4.5-2.2-8.5-0.3-7.7,3.6
				c0.7,3.7,1.9,5.2-0.4,5.2c-2.5,0-3-1.9-3-1.9s-1.9-0.7-1.9,0.3s-0.7,3,0,4s-1,2.5-1.8,1.8c-0.7-0.7-2.7-3-2.2-3.7
				c0.4-0.7-3.4-5.5,0.4-6.2c4-0.7-0.3-3,1.2-3.6l1.9-1h1.9l1.2-1l-3.3-0.4l-1.9-0.3l-3.7-0.3c-3.7,2.5-4.5,5.5-4.5,5.5
				c-1.9,3.7-6.7-1.5-4.9-3.6c1.8-2.1-5.5-0.3-6.7,0.7s-4.9,0.4-4.9,0.4c-0.7,2.2-4.2-0.3-3.3-1.8c1-1.5,1-2.5,1-2.5l-1.2-0.3
				l-1.5,2.8c-3.4,0-4.5,1.9-3.7,3.3c0.7,1.2-1-0.3-1.5,1.5c-0.4,1.8,0.3,1.8,1.8,2.5s-0.7,0.7,0.3,1.9c1,1.2,3.8,0.1,2.3,1.7
				c6.4,3.6,11.9,8.9,15.6,14.9c2.9,4.7,4.4,9.6,5.3,14.7c6.1,4.6,11.1,9,14.7,15.9c3.5,6.6,4.5,12.6,3.9,19.9c-0.5,6.3-2,12-4.5,17
				c0.1,0.5,0.1,0.9,0.1,1.4c0.1,2.5,0.3,4.9,0.2,7.4c-0.1,1.9-0.3,3.7-0.7,5.4c1.2,3.3,1.4,7.1,1.1,10.8l3.9-1l2.5-1.2l1.2-2.5
				c0.3-2.5,3.3-2.2,3.3-2.2s5.7-4.8,5.9-7c0.3-2.2,2.2-8.5,5.7-8.5h6.4c2.5-1,1.8-4.3,1.8-4.3l3.3-0.4l0.4,1.8c0,0,4.5,0.4,4.9-0.3
				s1.5-2.5,2.7-1.8s5.2-1.8,5.2-1.8c0.3-1.8,6.4-1,6.4-1l0.7-2.2c0,0-4.2-5.8-4.9-5.8s-4.8-3.6-5.2-2.2c-4-1-3.7-6.5-3.7-6.5
				L612,511c0-2.1-3.7-6.2-4.5-5.8c-3.7-2.8-1-5.9,0-6.2s3.4-3.7,3.4-3.7l1.2-3.6l4.2-1.2l0.4-3.3l-2.2-0.3c0,0,2.5-4.5,3.7-4.5
				s9.4,0,10.1-0.4c0.7-0.4,2.2-4.5,2.2-5.2s1.9-1,2.7-1.2c0.7-0.3,2.5-2.2,3-3.3C637.5,469.9,635.9,463.6,634.9,464.6z" class="colorfff svgShape"></path></g><g fill="#0a7b9e" class="color000 svgShape"><path stroke="#0a7b9e" stroke-miterlimit="10" stroke-width="23" d="M560.4,535.7l0.8-1.9c0.7-1.6,6.4-16.3,3.1-25.1c-1.7-4.6-8.1-12.2-18.1-19l0.1-1.8c0-0.2,0.4-6.2-3.8-12.8
			c-5.3-8.2-15.1-13.6-29-16.1l0.6-118.2c3.1-0.9,5.5-2.9,6.9-5.7c1.9-3.9,1.6-9.1-0.6-13.8c-1.5-3.3-5.8-6.4-11.1-8.3v-65.9
			c-0.1-1.5-0.8-3.6-2.6-5.2l0.1-24.6c-0.1-2.2-1.4-5.8-4.9-6.8v-56.3c0-1.3-1.1-2.4-2.4-2.4s-2.4,1.1-2.4,2.4v56.6
			c-3,0.4-4.7,3.3-4.8,5.5l-0.1,25.4c-1.9,1.6-2.4,3.7-2.4,5v65.5c-3,1-5.8,2.5-8.1,4.5c-4.4,3.9-6.5,7.9-6.1,12.1
			c0.5,6.2,6.2,10,6.5,10.1l0.9,0.6l-0.9,118.9c-10.1,1.9-18.2,6.1-24.2,12.7c-5.2,5.7-5.2,12.3-5.1,14.2c-0.8,0.4-1.5,0.9-2.2,1.3
			c-10.6,6.3-18.1,15.2-19.9,23.8l-0.1,0.4c-0.7,13.9,2.5,23.1,2.6,23.5l0.3,0.7c-1.2,8.2,0.5,15.1,1.1,17.3
			c-1.6,7.2-1.1,14.2,1.6,20.7c8.2,19.7,33.2,28.4,34.3,28.7l0.7,0.2l-1.8,86.2l5.5,0.4l2.4-117.2l10.5-1.7l-3.2,120l5.6,0.5
			l3.2-121.4l5.2-0.8l0,3.4c2.3-1.3,5.2-1.5,7.8-0.7c2.9-0.1,5.9,1.1,7.8,3.3v-2l3.2,0.9l3,114.1l5.6-0.5l-2.3-84.5
			c8-1.7,25.3-8.9,33.4-23.8c4.4-8.1,5.3-17.1,2.8-26.9C560.4,549.2,561.6,543.1,560.4,535.7z M497.1,217.6c0-0.8,0.4-1.7,2.5-1.7
			c0.4,0,2.3,0,2.4,1.5v22.3c-0.7-0.1-1.5-0.2-2.4-0.2h-0.1c-0.9,0-1.7,0.1-2.4,0.2V217.6z M499.6,244.4L499.6,244.4
			c4.2,0,4.8,1.8,4.9,2.4v64.9c-3.4-0.7-6.6-0.8-9.7-0.4l-0.1-64.5C494.7,246.5,494.9,244.4,499.6,244.4z M482.9,332.5
			c-0.9-1-1.7-2.4-1.8-4c-0.2-2.3,1.3-4.8,4.3-7.5c6.3-5.6,14.9-4.5,18.3-3.8c6.2,1.3,10.7,4.3,11.7,6.5c1.5,3.2,1.7,6.7,0.6,9.1
			c-0.3,0.7-0.7,1.2-1.2,1.7c-1.9-2.6-6.5-7.3-15.5-7.3H499C490.5,327.2,485.9,328.4,482.9,332.5z M508.5,335.1l-0.6,123.1
			c-2.8-0.4-5.4-0.6-8-0.7l1.4-125.7C504.8,332.3,507.1,333.7,508.5,335.1z M495.8,331.8l-1.4,125.7c-2.3,0-4.5,0.3-6.7,0.5
			l0.9-123.5C489.9,332.1,492,331.8,495.8,331.8z M462,475c9.9-10.7,26.4-14.3,49.3-10.6c26.2,4.2,29.1,17.8,29.4,22
			c-11.6-6.5-25.4-10.1-41.1-10.6c-18.3-0.5-31.8,2.9-41.2,6.9C458.7,480.6,459.5,477.6,462,475z M444.8,532.7
			c-2.4,2.6-4.4,5.4-6.1,8.6c0-1.9,0.2-3.9,0.6-6V535c0.4-2,1.1-4.1,2.1-6.2L444.8,532.7z M444.4,523.7c3.8-5,9.5-8.8,16.8-11.5
			l3.4,7.7c-5.8,2.1-11.2,5-15.9,8.8L444.4,523.7z M471.5,589.5c-5.2-2.3-19.5-10.1-17-24l17.2,12.7L471.5,589.5z M471.8,571.4
			l-14.3-10.6c1.4-1.7,3.4-3.6,6.2-5.5l8.2,12.8L471.8,571.4z M476.8,565.9l0.2-0.1l-8.5-13.3c2.2-1.1,4.6-2,7.5-2.8l7.6,15.1
			L476.8,565.9z M489.4,563.8l-7.8-15.4c3.7-0.6,7.7-0.9,12.3-0.9l0.7,15.5L489.4,563.8z M504.4,563.4l-4.2-1.1l-0.6-14.6
			c1.9,0.1,3.9,0.3,6,0.6c1.8,0.2,3.4,0.5,5,0.7L504.4,563.4z M513.4,565.9l-3.6-1l6.3-14.8c3.2,0.7,5.9,1.6,8.2,2.5L513.4,565.9z
			 M519.2,567.6l10.3-12.5c2.4,1.4,4.2,2.8,5.6,4.1l-12.8,9.2L519.2,567.6z M523,574.8l15.3-11c2,4.5,0.8,8.2,0.7,8.4l-0.2,0.7
			c-0.1,0.5-1.5,11.2-15.5,17L523,574.8z M552.3,575.4c-6.4,11.7-20.2,18.7-28.6,20.8v-0.4l0.6-0.2c17.3-6.4,20-19.6,20.3-21.9
			c0.2-1.6,1.9-7.8-2.2-14.5c-5.3-8.7-17.5-14.2-36.1-16.5c-45.6-5.6-56.5,19.5-56.9,20.6l-0.2,0.5c-3.8,17.5,12.9,28.5,22.2,31.9
			v0.5c-4.5-1.7-23.6-9.9-30-25.3c-3.3-8-2.7-16.8,1.8-26.3c1.9-4,4.6-7.4,7.7-10.2l1.6-1.4c11.9-9.7,30.1-12.9,45.7-12.3
			c18.1,0.7,34.4,6.2,44.7,14.2l0.5,0.4c4.6,3.7,8,7.9,9.7,12.5C556.9,558,556.7,567.3,552.3,575.4z M466.6,510.6
			c7.2-1.9,15.8-2.9,25.7-3.2v7.6c-7.4,0.2-15,1.2-22.3,3.2L466.6,510.6z M497.1,515v-7.7c10.4,0,19.5,0.9,27.2,2.7l-3.1,8.4
			c-6.8-1.8-14.4-3-22.8-3.4H497.1z M543.1,528.1c-4.7-3.1-10.2-5.8-16.5-8l3.2-8.6c7.6,2.4,13.6,6,17.9,10.7L543.1,528.1z
			 M551.1,526.8c2.7,4.6,3.8,9.2,4.2,13.2c-2-2.9-4.6-5.8-7.8-8.5L551.1,526.8z M557.7,526.6c-1-2.2-2.2-4.4-3.9-6.6
			c-9.9-13.1-29.1-20.1-57-20.1h-0.3c-28.6,0-47.9,7.1-57.4,20.5c-1,1.4-1.8,2.8-2.5,4.1c-0.4-3.4-0.7-7.8-0.5-13.1
			c2.8-12.3,22.4-31.2,63.4-30.1c15.7,0.4,29.4,4.2,40.7,11.1c11.3,6.9,17.5,14.9,18.8,18.2C560.5,514.7,559.2,521.5,557.7,526.6z" display="none" class="colorStroke0a7b9e svgStroke"></path><path fill="#0a7b9e" d="M560.4,535.7l0.8-1.9c0.7-1.6,6.4-16.3,3.1-25.1c-1.7-4.6-8.1-12.2-18.1-19l0.1-1.8c0-0.2,0.4-6.2-3.8-12.8
			c-5.3-8.2-15.1-13.6-29-16.1l0.6-118.2c3.1-0.9,5.5-2.9,6.9-5.7c1.9-3.9,1.6-9.1-0.6-13.8c-1.5-3.3-5.8-6.4-11.1-8.3v-65.9
			c-0.1-1.5-0.8-3.6-2.6-5.2l0.1-24.6c-0.1-2.2-1.4-5.8-4.9-6.8v-56.3c0-1.3-1.1-2.4-2.4-2.4s-2.4,1.1-2.4,2.4v56.6
			c-3,0.4-4.7,3.3-4.8,5.5l-0.1,25.4c-1.9,1.6-2.4,3.7-2.4,5v65.5c-3,1-5.8,2.5-8.1,4.5c-4.4,3.9-6.5,7.9-6.1,12.1
			c0.5,6.2,6.2,10,6.5,10.1l0.9,0.6l-0.9,118.9c-10.1,1.9-18.2,6.1-24.2,12.7c-5.2,5.7-5.2,12.3-5.1,14.2c-0.8,0.4-1.5,0.9-2.2,1.3
			c-10.6,6.3-18.1,15.2-19.9,23.8l-0.1,0.4c-0.7,13.9,2.5,23.1,2.6,23.5l0.3,0.7c-1.2,8.2,0.5,15.1,1.1,17.3
			c-1.6,7.2-1.1,14.2,1.6,20.7c8.2,19.7,33.2,28.4,34.3,28.7l0.7,0.2l-1.6,136.7c1.7,0.2,3.5,0.4,5.2,0.5l2.4-167.9l10.5-1.7
			L484.7,740c1.9,0.1,3.7,0.2,5.6,0.3c1-55.6,2.1-116.3,3.1-171.7c2.9-0.3,9.5-0.1,14,0.6c5.4,0.8,7.1,2.2,10,3.6l2.4,130.5
			l0.6,36.1c1.9-0.3,3.9-0.6,5.8-1.1l-2.4-136.5c8-1.7,25.3-8.9,33.4-23.8c4.4-8.1,5.3-17.1,2.8-26.9
			C560.5,549.2,561.6,543.1,560.4,535.7z M497.1,217.6c0-0.8,0.4-1.7,2.5-1.7c0.4,0,2.3,0,2.4,1.5v22.3c-0.7-0.1-1.5-0.2-2.4-0.2
			h-0.1c-0.9,0-1.7,0.1-2.4,0.2V217.6z M499.6,244.4L499.6,244.4c4.2,0,4.8,1.8,4.9,2.4v64.9c-3.4-0.7-6.6-0.8-9.7-0.4l-0.1-64.5
			C494.7,246.5,494.9,244.4,499.6,244.4z M482.9,332.5c-0.9-1-1.7-2.4-1.8-4c-0.2-2.3,1.3-4.9,4.3-7.5c6.3-5.6,14.9-4.5,18.3-3.8
			c6.2,1.3,10.7,4.3,11.7,6.5c1.5,3.2,1.7,6.7,0.6,9.1c-0.3,0.7-0.7,1.2-1.2,1.7c-1.9-2.6-6.5-7.3-15.5-7.3H499
			C490.5,327.2,485.9,328.4,482.9,332.5z M508.5,335.1l-0.6,123.1c-2.8-0.4-5.4-0.6-8-0.7l1.4-125.7
			C504.8,332.3,507.1,333.7,508.5,335.1z M495.8,331.8l-1.4,125.7c-2.3,0-4.5,0.3-6.7,0.5l0.9-123.5
			C489.9,332.1,492,331.8,495.8,331.8z M462,475c9.9-10.7,26.4-14.3,49.3-10.6c26.2,4.2,29.1,17.8,29.4,22
			c-11.6-6.5-25.4-10.1-41.1-10.6c-18.3-0.5-31.8,2.9-41.2,6.9C458.7,480.6,459.5,477.6,462,475z M444.8,532.7
			c-2.4,2.6-4.4,5.4-6.1,8.6c0-1.9,0.2-3.9,0.6-6V535c0.4-2,1.1-4.1,2.1-6.2L444.8,532.7z M444.4,523.7c3.8-5,9.5-8.8,16.8-11.5
			l3.4,7.7c-5.8,2.1-11.2,5-15.9,8.8L444.4,523.7z M522.1,569.6c0,0,0-0.1,0-0.1c-1.1-1-2.4-1.9-3.9-2.7c-1-0.4-2.1-0.7-3.1-1
			c-4.3-1.2-8.5-1.5-12.8-1.9c-3.4-0.2-6.7,0-10.1,0c-0.3,0-0.6,0-0.8,0c-0.6,0-1.2,0-1.7,0h0c-6,0.4-12.3,1.5-16.8,4.6
			c0,0.1,0,0.3,0,0.4c-0.2,3.2-0.2,6.5-0.5,9.7c-0.1,1.6-0.4,5-0.5,6.6c-0.1,1.6,0,1.2-0.2,2.8c0,0.2,0,0.3,0,0.8
			c0,0.7,0.1,1.4-0.1,1.5c-0.4,0.2-1.3-0.1-2.1-0.5c-4.4-2-8.5-4.8-11.4-8.7c-2.8-3.8-4-8.9-3.8-13.5c-0.1-1.1,0.1-2.3,0.7-3.5
			c2.7-5,8.9-9.8,13.9-12.3c6.7-3.4,14.1-4.4,21.6-4.8c13.7-0.7,30.1,0.8,41.7,9c11.6,6.3,8.3,21.4,0.4,29.7
			c-0.3,0.3-0.5,0.5-0.8,0.7c0,0,0,0,0,0c-0.1,0.1-0.1,0.2-0.2,0.2c-0.1,0.1-0.3,0.2-0.4,0.3c-0.3,0.2-0.6,0.4-0.9,0.6
			c-0.5,0.4-1.1,0.8-1.8,1.2c-0.5,0.3-1,0.5-1.5,0.7c-0.7,0.3-1.3,0.6-2,0.7c-0.1,0-0.1,0.1-0.2,0.1c-0.4,0.1-1.3,0.5-1.7,0.3
			c-0.3-0.2-0.1-1-0.2-1.4c0-0.1,0-0.2,0-0.3c0-0.1,0-0.1,0-0.2c-0.1-1.1-0.1-2.2-0.1-3.3c0-0.6,0-1.1,0-1.7 M552.3,575.4
			c-6.4,11.7-20.2,18.7-28.6,20.8v-0.4l0.6-0.2c17.3-6.4,20-19.6,20.3-21.9c0.2-1.6,1.9-7.8-2.2-14.5c-5.3-8.7-17.5-14.2-36.1-16.5
			c-45.6-5.6-56.5,19.5-56.9,20.6l-0.2,0.5c-3.8,17.5,12.9,28.5,22.2,31.9v0.5c-4.5-1.7-23.6-9.9-30-25.3c-3.3-8-2.7-16.8,1.8-26.3
			c1.9-4,4.6-7.4,7.7-10.2l1.6-1.4c11.9-9.7,30.1-12.9,45.7-12.3c18.1,0.7,34.4,6.2,44.7,14.2l0.5,0.4c4.6,3.7,8,7.9,9.7,12.5
			C556.9,558,556.7,567.3,552.3,575.4z M466.6,510.6c7.2-1.9,15.8-2.9,25.7-3.2v7.6c-7.4,0.2-15,1.2-22.3,3.2L466.6,510.6z
			 M497.1,515v-7.7c10.4,0,19.5,0.9,27.2,2.7l-3.1,8.4c-6.8-1.8-14.4-3-22.8-3.4H497.1z M543.1,528.1c-4.7-3.1-10.2-5.8-16.5-8
			l3.2-8.6c7.6,2.4,13.6,6,17.9,10.7L543.1,528.1z M551.1,526.8c2.7,4.6,3.8,9.2,4.2,13.2c-2-2.9-4.6-5.8-7.8-8.5L551.1,526.8z
			 M557.7,526.6c-1-2.2-2.2-4.4-3.9-6.6c-9.9-13.1-29.1-20.1-57-20.1h-0.3c-28.6,0-47.9,7.1-57.4,20.5c-1,1.4-1.8,2.8-2.5,4.1
			c-0.4-3.4-0.7-7.9-0.5-13.1c2.8-12.3,22.4-31.2,63.4-30.1c15.7,0.4,29.4,4.2,40.7,11.1c11.3,6.9,17.5,14.9,18.8,18.2
			C560.5,514.7,559.2,521.5,557.7,526.6z" class="colorfff svgShape"></path></g><g fill="#0a7b9e" class="color000 svgShape"><path fill="#0a7b9e" d="M499.5,142.8" class="colorfff svgShape"></path></g><path fill="#0a7b9e" d="M522,569.7c-2.8-4.2-16.9-6.9-28.7-5.8c-11.6,1-12.5,0.6-20.3,4.5c-0.3,3.5-0.4,7.1-0.6,10.9
		c-0.2,3.8-0.6,7.6-0.7,11.2c-1.6-0.5-10.7-3.3-15.1-12.5c-2.5-5.3-2.3-10.2-2.1-12.5c1.4-2.5,4.3-6.6,9.2-10.2
		c4.8-3.5,9.5-5,12.3-5.6c5.6-1.3,13.2-2.5,22.2-2.2c10.1,0.3,18.5,2.3,24.4,4.2c2.3,0.6,6,1.9,9.8,4.6c3.5,2.6,5.7,5.4,6.9,7.3
		c0.4,1.6,2,9.1-2.5,16.8c-4.6,7.9-12.3,10.1-13.8,10.5" display="none" class="color0a7b9e svgShape"></path><path fill="#0a7b9e" d="M484.7 740l.2-4.3h-11.3l.3 3.4C477.5 739.4 481 739.8 484.7 740zM496.7 740.5c7.8 0 15.8.1 23.6-1.1l-.1-3.7h-30l-.1 4.6C492.4 740.4 494.6 740.5 496.7 740.5z" class="colorfff svgShape"></path><polygon fill="#0a7b9e" points="417 582.9 405.9 594 402.9 590.7 409.9 583.9" display="none" class="colorfff svgShape"></polygon><path fill="#0a7b9e" d="M519.7,703.3l0.6,39.4l5.8-0.7l-2.5-140.1c8-1.7,25.3-8.9,33.4-23.8c4.4-8.1,5.3-17.1,2.8-26.9
		c0.6-2,1.7-8.1,0.5-15.5l0.8-1.9c0.7-1.6,6.4-16.3,3.1-25.1c-1.7-4.6-8.1-12.2-18.1-19l0.1-1.8c0-0.2,0.4-6.2-3.8-12.8
		c-5.3-8.2-15.1-13.6-29-16.1l0.6-118.2c3.1-0.9,5.5-2.9,6.9-5.7c1.9-3.9,1.6-9.1-0.6-13.8c-1.5-3.3-5.8-6.4-11.1-8.3v-65.9
		c-0.1-1.5-0.8-3.6-2.6-5.2l0.1-24.6c-0.1-2.2-1.4-5.8-4.9-6.8v-56.3c0-1.3-1.1-2.4-2.4-2.4s-2.4,1.1-2.4,2.4v56.6
		c-3,0.4-4.7,3.3-4.8,5.5l-0.1,25.4c-1.9,1.6-2.4,3.7-2.4,5v65.5c-3,1-5.8,2.5-8.1,4.5c-4.4,3.9-6.5,7.9-6.1,12.1
		c0.5,6.2,6.2,10,6.5,10.1l0.9,0.6l-0.9,118.9c-10.1,1.9-18.2,6.1-24.2,12.7c-5.2,5.7-5.2,12.3-5.1,14.2c-0.8,0.4-1.5,0.9-2.2,1.3
		c-10.6,6.3-18.1,15.2-19.9,23.8l-0.1,0.4c-0.7,13.9,2.5,23.1,2.6,23.5l0.3,0.7c-1.2,8.2,0.5,15.1,1.1,17.3
		c-1.6,7.2-1.1,14.2,1.6,20.7c8.2,19.7,33.2,28.4,34.3,28.7l0.7,0.2l-1.6,140.5l5.2,0.2l2.5-171.3l10.5-1.7l-3.2,173.5h5.6
		c1.1-56.3,2.1-118.1,3.2-174.5c2.9-0.3,9.5-0.1,14,0.6c5.4,0.8,7.1,2.2,10,3.6L519.7,703.3 M497.1,217.6c0-0.8,0.4-1.7,2.5-1.7
		c0.4,0,2.3,0,2.4,1.5v22.3c-0.7-0.1-1.5-0.2-2.4-0.2h-0.1c-0.9,0-1.7,0.1-2.4,0.2V217.6z M499.6,244.4L499.6,244.4
		c4.2,0,4.8,1.8,4.9,2.4v64.9c-3.4-0.7-6.6-0.8-9.7-0.4l-0.1-64.5C494.7,246.5,494.9,244.4,499.6,244.4z M482.9,332.5
		c-0.9-1-1.7-2.4-1.8-4c-0.2-2.3,1.3-4.9,4.3-7.5c6.3-5.6,14.9-4.5,18.3-3.8c6.2,1.3,10.7,4.3,11.7,6.5c1.5,3.2,1.7,6.7,0.6,9.1
		c-0.3,0.7-0.7,1.2-1.2,1.7c-1.9-2.6-6.5-7.3-15.5-7.3H499C490.5,327.2,485.9,328.4,482.9,332.5z M508.5,335.1l-0.6,123.1
		c-2.8-0.4-5.4-0.6-8-0.7l1.4-125.7C504.8,332.3,507.1,333.7,508.5,335.1z M495.8,331.8l-1.4,125.7c-2.3,0-4.5,0.3-6.7,0.5
		l0.9-123.5C489.9,332.1,492,331.8,495.8,331.8z M462,475c9.9-10.7,26.4-14.3,49.3-10.6c26.2,4.2,29.1,17.8,29.4,22
		c-11.6-6.5-25.4-10.1-41.1-10.6c-18.3-0.5-31.8,2.9-41.2,6.9C458.7,480.6,459.5,477.6,462,475z M444.8,532.7
		c-2.4,2.6-4.4,5.4-6.1,8.6c0-1.9,0.2-3.9,0.6-6V535c0.4-2,1.1-4.1,2.1-6.2L444.8,532.7z M444.4,523.7c3.8-5,9.5-8.8,16.8-11.5
		l3.4,7.7c-5.8,2.1-11.2,5-15.9,8.8L444.4,523.7z M552.3,575.4c-6.4,11.7-20.2,18.7-28.6,20.8v-0.4l0.6-0.2
		c17.3-6.4,20-19.6,20.3-21.9c0.2-1.6,1.9-7.8-2.2-14.5c-5.3-8.7-17.5-14.2-36.1-16.5c-45.6-5.6-56.5,19.5-56.9,20.6l-0.2,0.5
		c-3.8,17.5,12.9,28.5,22.2,31.9v0.5c-4.5-1.7-23.6-9.9-30-25.3c-3.3-8-2.7-16.8,1.8-26.3c1.9-4,4.6-7.4,7.7-10.2l1.6-1.4
		c11.9-9.7,30.1-12.9,45.7-12.3c18.1,0.7,34.4,6.2,44.7,14.2l0.5,0.4c4.6,3.7,8,7.9,9.7,12.5C556.9,558,556.7,567.3,552.3,575.4z
		 M466.6,510.6c7.2-1.9,15.8-2.9,25.7-3.2v7.6c-7.4,0.2-15,1.2-22.3,3.2L466.6,510.6z M497.1,515v-7.7c10.4,0,19.5,0.9,27.2,2.7
		l-3.1,8.4c-6.8-1.8-14.4-3-22.8-3.4H497.1z M543.1,528.1c-4.7-3.1-10.2-5.8-16.5-8l3.2-8.6c7.6,2.4,13.6,6,17.9,10.7L543.1,528.1z
		 M551.1,526.8c2.7,4.6,3.8,9.2,4.2,13.2c-2-2.9-4.6-5.8-7.8-8.5L551.1,526.8z M557.7,526.6c-1-2.2-2.2-4.4-3.9-6.6
		c-9.9-13.1-29.1-20.1-57-20.1h-0.3c-28.6,0-47.9,7.1-57.4,20.5c-1,1.4-1.8,2.8-2.5,4.1c-0.4-3.4-0.7-7.9-0.5-13.1
		c2.8-12.3,22.4-31.2,63.4-30.1c15.7,0.4,29.4,4.2,40.7,11.1c11.3,6.9,17.5,14.9,18.8,18.2C560.5,514.7,559.2,521.5,557.7,526.6z" display="none" class="colorfff svgShape"></path><g display="none" fill="#0a7b9e" class="color000 svgShape"><path fill="#0a7b9e" d="M483.4 692c1.7.1 3.4.2 5 .3.3-2 .8-4 1.2-6-2.1-.1-4.2-.2-6.3-.4L483.4 692 483.4 692zM512.8 686c.1 2 .2 3.9.4 5.9 3.6-.3 7.2-.7 10.8-1.1v-6C520.3 685.3 516.5 685.7 512.8 686z" class="colorfff svgShape"></path><path fill="#0a7b9e" d="M498,252.3c-135.3,0-245.4,110.1-245.4,245.4c0,121.7,88.9,222.9,205.2,242.1v-6
			c-48.9-8.3-92.8-31.5-126.9-64.7l31.5-31.5c27.5,26.7,62.6,45.3,101.9,52.1v-6.2c-37.6-6.8-71.4-24.8-97.8-50.3l27.8-27.8
			c26.2,25.1,61.6,40.9,100.5,41.6v30.9c0.1-0.1,0.3-0.1,0.4-0.2c0.9-2.6,3-4.3,5.5-5.1v-18.8c-2.3-1.4-4-3.8-4.1-7.4
			c-0.1-19.6-2.9-39.2-0.4-58.8c0.4-3.4,2-6.4,4.7-7.9v-29.5c12.3-0.7,23.5-5.7,32.1-13.4l28.4,28.5c-12.9,12.1-29.3,20.6-47.4,23.8
			c-0.2,2-0.4,4.1-0.6,6.1c20-3.2,38.1-12.4,52.3-25.7l31.5,31.5c-22,21.2-50.8,35.4-82.8,39.1c0.1,2,0.1,4.1,0.1,6.1
			c33.5-3.7,63.6-18.6,86.6-40.7l27.8,27.8c-23.6,22.9-53.3,39.7-86.3,47.8v6.1c34.7-8.2,65.8-25.7,90.6-49.8l30.7,30.7
			c-12.3,12-30.6,26-55.7,39.2c-28.8,15.1-54.8,22.1-73,25c0.2,1.9,0.1,4.5,0.3,6.3c120.1-22.5,207.1-125.1,207.5-241
			C743.8,367.2,635.1,252.3,498,252.3z M737.4,494.7h-44.6c-0.7-51.5-21.6-98.2-55-132.7l31.5-31.5
			C710.8,373,736.7,430.9,737.4,494.7z M501,348.4v-39.6c49.8,0.7,95,21,128.3,53.2l-27.8,28C575.3,364.9,539.9,349.1,501,348.4z
			 M597.4,394.1l-31.5,31.5c-17.1-16.1-39.7-26.2-64.8-26.9v-44.6C538.3,354.8,572.2,370,597.4,394.1z M501.1,404.7
			c23.3,0.7,44.6,10.1,60.5,25.1l-28.4,28.5c-8.6-7.7-19.8-12.6-32.1-13.4V404.7z M565.8,434.2c15,15.9,24.4,37.2,25.1,60.5h-40.1
			c-0.7-12.3-5.7-23.5-13.4-32.1L565.8,434.2z M570,429.8l31.5-31.5c24.1,25.1,39.3,59,40,96.4h-44.6
			C596.1,469.7,586,446.9,570,429.8z M605.8,394.1l27.8-27.8c32.3,33.3,52.5,78.5,53.2,128.3h-39.4
			C646.7,455.7,630.9,420.3,605.8,394.1z M501,258.2L501,258.2c63.8,0.7,121.7,26.6,164.2,68.1l-31.5,31.5
			c-34.5-33.5-81.1-54.3-132.7-55V258.2z M495.2,258.2v44.6h-0.1c-51.5,0.7-98.2,21.6-132.7,55L331,326.3
			C373.5,284.8,431.4,259,495.2,258.2z M430.3,561.2c-15-15.9-24.4-37.2-25.1-60.5h40.2c0.7,12.3,5.7,23.5,13.4,32.1L430.3,561.2z
			 M462.9,537.1c8.6,7.7,19.8,12.6,32.1,13.4v40.2c-23.3-0.7-44.6-10.1-60.5-25.1L462.9,537.1z M390.3,394.2
			c-25.1,26.1-40.9,61.5-41.6,100.5h-39.4c0.7-49.8,21-95,53.2-128.3L390.3,394.2z M366.7,362c33.3-32.3,78.5-52.5,128.3-53.2v39.4
			c-39,0.7-74.3,16.5-100.5,41.6L366.7,362z M394.5,398.3l31.5,31.5c-16.1,17.1-26.2,39.7-26.9,64.8h-44.6
			C355.2,457.4,370.4,423.4,394.5,398.3z M445.3,494.7h-40.1c0.7-23.3,10.1-44.6,25.1-60.5l28.4,28.4
			C451,471.2,446.1,482.4,445.3,494.7z M434.5,429.8c15.9-15,37.2-24.4,60.5-25.1v40.2c-12.3,0.7-23.5,5.7-32.1,13.4L434.5,429.8z
			 M430.2,425.7l-31.5-31.5c25.1-24.1,59-39.3,96.4-40v44.6C470,399.5,447.3,409.6,430.2,425.7z M326.7,330.5l31.5,31.5
			c-33.5,34.5-54.3,81.1-55,132.7h-44.6C259.3,430.9,285.2,373,326.7,330.5z M326.7,664.7c-41.5-42.4-67.2-100.2-68-164h44.6
			c0.7,51.5,21.6,98.2,55,132.7L326.7,664.7z M362.5,629c-32.3-33.3-52.5-78.5-53.2-128.3h39.4c0.7,39,16.5,74.4,41.6,100.5
			L362.5,629z M354.5,500.6h44.8c0.7,25,10.9,47.7,26.9,64.8L394.5,597C370.4,571.9,355.2,538,354.5,500.6z M495.1,641.2
			c-37.3-0.7-71.1-15.9-96.3-40l31.5-31.5c17.1,16.1,39.7,26.2,64.8,26.9V641.2z M498,544.5c-25.9,0-46.8-21-46.8-46.8
			c0-25.9,21-46.8,46.8-46.8c25.8,0,46.8,21,46.8,46.8S523.9,544.5,498,544.5z M537.4,532.8c7.7-8.6,12.6-19.8,13.4-32.1H591
			c-0.7,23.3-10.1,44.6-25.1,60.5L537.4,532.8z M570,565.3c16.1-17.1,26.2-39.7,26.9-64.8h44.6c-0.7,37.3-15.9,71.2-40,96.4
			L570,565.3z M605.8,601.2c25.1-26.2,40.9-61.6,41.6-100.5h39.4c-0.7,49.8-21,95-53.2,128.3L605.8,601.2z M668.7,664l-30.9-30.9
			c33.5-34.5,54.3-81.1,55-132.7h44.6C736.7,564.3,710.2,621.5,668.7,664z" class="colorfff svgShape"></path><polygon fill="#0a7b9e" points="512.1 440.8 510.6 441 510.6 442.8 512.1 442.6" class="colorfff svgShape"></polygon><rect width="1.9" height="1.5" x="508.4" y="438.5" fill="#0a7b9e" class="colorfff svgShape"></rect><polygon fill="#0a7b9e" points="504.8 438 506.6 438.3 506.8 436.8 505 436.5" class="colorfff svgShape"></polygon><polygon fill="#0a7b9e" points="503.3 437.4 501.7 437.3 501.9 435.8 503.6 435.9" class="colorfff svgShape"></polygon><rect width="1.9" height="1.5" x="489.1" y="435.5" fill="#0a7b9e" class="colorfff svgShape"></rect><polygon fill="#0a7b9e" points="484.8 438.5 486.5 438.8 486.7 437.3 485 437" class="colorfff svgShape"></polygon><polygon fill="#0a7b9e" points="485 440.8 483 440.3 483.4 438.8 485.3 439.4" class="colorfff svgShape"></polygon><polygon fill="#0a7b9e" points="481.5 442.6 481.2 441.1 482.7 440.8 483 442.3" class="colorfff svgShape"></polygon><polygon fill="#0a7b9e" points="287.4 596.6 287.4 599.8 288.9 599.8 288.6 596.1 286.6 595.4 286.6 594 285.5 594 285.5 596.6" class="colorfff svgShape"></polygon><polygon fill="#0a7b9e" points="297.8 605.6 301.5 607.4 302.7 610.8 304.5 612.2 306.1 615.9 305.2 617.7 302.4 615.2 300.5 612.3 299.4 610.1" class="colorfff svgShape"></polygon><polygon fill="#0a7b9e" points="360.3 682.8 361.6 686.1 359.8 687.1 358.8 685.7 356.4 684.9 356.1 682.7 354.2 679.7 357.1 680.1" class="colorfff svgShape"></polygon><path fill="#0a7b9e" d="M490.4,457.1h-2.7l-0.4-5.5l1.5-1v-2.8
				h-8.7l-0.3-2.8l1.2-0.7l-1.9-0.7l-1.5,1.9l-0.4,2.2l-2.5,0.4v1.2h-1.8v3.3l-7,5.8l-13.8-0.4c-1,2.2-3.4-0.3-3.4-0.3
				c-0.4-1.5-4,0-4,0c0,2.8-4.8-1.2-4.8-1.2l-8.6-6.2c-4.9-4.5-12.3,1.2-12.6,2.5c0.3,3.6-5.7,0.7-5.7,0.7s-4.9-1.5-5.7,0.4
				s-4,1.5-4,1.5l-0.4,1l-2.5,0.4l-0.4,1.5l-3,0.4l7.4-0.3c1.9-0.3-0.7,4.3-1.9,4l-3.4,0.3l-1.2,1.2h-3.3l-1.5,2.1l-4.8-0.3
				c0,0-2.7,2.2-2.5,3c0.3,0.7-0.4,3-1.2,3c-0.7,0-2.2,2.2-1.8,3c0.4,0.7-1.5,3.3-1.5,3.3l-0.4,2.5l-1.5,0.4v6.8l-3,2.1v3l-4.5,4.8
				l0.4,4l-3.7,4l0.4,4l-2.2,0.7l-0.4,1.8l-1,5.2l2.5,0.3c1.2-0.4,1,3.3,0,3.7s-3.7,1.5-2.2,2.5s-4,0.7-4-0.7s-3-2.8-3.7-2.2
				c-0.7,0.4-1.9-2.2-1.9-2.2c-2.7-2.8-11.2,0.3-11.2,0.3l-1.2,4c-2.7,0.4-4.5,5.1-4.5,5.1c-2.2,0.7-4,3.6-3.3,4.3s-1.2,1-1.2,1v5.5
				l-1.2,1.8l0.3,5.9c1.5,0,1.2,2.8,1.2,2.8c-2.5,0.3-1.9,3.6-1.9,3.6l-5.2,1.8l-1,1.5l-6.4-0.3l-1.8,1.8l-1.8-1.8h-12.3l-0.4-1.2
				l-2.5-0.4l-0.3-2.8l-3.7,0.3l-0.7,1.5l-4,0.3c0.3,2.5-4,6.2-4.5,5.2s-3.3-3.7-1.9-4.3c1.2-0.4,4.5-1,4.5-1v-1.8l-9.2-0.3l-1,1.5
				l-3.7,0.3v4l-1.8,0.4c-1.2,0.7,0.3,3.6,0.3,3.6c1.8,1.8-0.3,4.5-0.3,4.5c-1.5,1.5,1.2,4.3,1.2,4.3c1.9,0.4-1.2,1.9-1.2,1.9
				c0.4,2.5,1.9,3.3,1.9,3.3c-1.5,2.5,1,3.7,1,3.7l0.3,4.3l1.8,1v2.8l1,1.8h4l-0.3-6.2c-3.4-4,3-5.1,3.3-3.6s3,2.2,3,2.2
				c0.4,3.7,4.8,5.9,5.9,2.2c1.2-3.7,2.2-1.5,3,0.3c0.7,1.8,5.5,6.1,5.5,6.1h3.7l0.4,3.6c4.2-0.3,5.5,0.3,7.1,5.9
				c1.8,5.8,6.4,7.3,6.4,7.3l3.4-0.3c0-3,3.4,0.4,3.4,2.1c0,1.5,6.7,7.3,6.7,7.3l6.7,1.5l6.2,5.1l4.8-0.4h1.9
				c1.2-4.3,7.1,0.3,7.7,1.8c0.4,1.5,4.5,4,4.9,2.8s3.3-0.4,3.7,3.3c0.4,3.7,2.2,3,2.2,3l14.1-0.3l4.9-4.3l12.6-0.3
				c6.4-0.3,2.5-9.1,1.2-9.1c-2.2-1.8,0.7-9.1,0.7-9.1l-18-16.8c-4.2,0-0.4-6.1-0.4-6.1c3.3-2.1-0.7-5.2-0.7-5.2
				c0.4-3-1.8-6.5-1.8-6.5c-4.5-3-3.3-8.8-3.3-8.8v-4c-3.7-3.6,1.5-4,1.5-4c1.8-3-1.2-5.2-1.2-5.2l-0.3-3.3l-4-0.4l-0.4-11.7
				L371,525c-1.8-0.4-0.4-3.6-0.4-3.6c2.2-1.2-0.4-4.3-0.4-4.3l-0.3-5.5l5.2-0.4l1.2-1.9h2.5l-0.3-6.5c1.2-3.3,4.2-1.5,4.2-1.5
				l3.4,0.3l1.9-3.7l0.4-3l-2.7-0.3c-3-1.8-1.5-8.3-1.5-8.3c4.8-7,10.1-3,10.1-3l3.4-0.3c5.2,3.6,0.4,10,0.4,10
				c-1,1.5-0.4,6.2-0.4,6.2l1.2,8l-3.3,2.8c-2.7,1.5-2.7,5.1,0.3,5.8c1.9,0.3,1.2,5.1-1.8,1.8c-4.5,0,2.5,4,0.4,3
				c4.5,2.2,3.4-1.9,3.4-1.9l5.9-4.8c2.2-1.8,6.2,3.7,6.2,4.5c0,0.7,9.8,0.3,9.8,0.3c2.7,1.8,3.7,6.2,3.7,6.2
				c2.7-3.6,8.5-0.3,4.2,1.8c4,2.5,4,4.8,4,4.8c3.3-1,3.3,1.5,3.3,2.2s1-3.7,1-3.7c-3.7-2.8,4.9-3.7,2.5,1.2l-1.5,2.2l2.5,1.9
				l0.3,5.8c5.5-0.4,4-7.3,4-7.3l2.5-0.4c0-2.2,1.8-1,1.8-1c-1.8-8.5,4-10,4-10c3.3-0.7,3.4-7.6,3.4-7.6c-2.2-1-1-4.5,1.5-1.5
				s-1.5-6.1-1.5-6.1l-1.9-1.8l-2.7-0.3l-0.3-2.8h-4.5l-0.7,3.6l-1.6,0.7l-0.4-1l-0.7,2.8h-4.5l-0.3-3l2.7-0.7l1-1.5l0.7-4h3.3
				l4.2-1.2c0.3-4.3,2.5-3.3,2.5-3.3l1.5,1.2l2.2,1.8l0.3,1.5l-1.5,0.7l-0.3,2.1l0.7,2.8h1.9c0.7-4,5.9-4,7.4-1.5l1.5-3.6
				c-3.4-1.8,0-4.5,0.9-3.3c1,1.2,3.3-3.3,3.3-3.3s1.8,2.2,0-0.7c-1.8-3,1.2-4.5,1.2-4.5c-0.4-3,3.3-2.5,3.3-2.5l0.3-4l-3.4-0.3
				c-0.7,3.6-3.7,0.4-2.2-0.3s3-2.2,3-2.2v-2.5l1.5-0.4l0.3-2.5h3.7l3.3-1.5l0.7-1.2l3.4-0.3l4.9-4.5l-0.4-1.9c-3,0,0-2.2,0-2.2
				L490.4,457.1L490.4,457.1z" class="colorfff svgShape"></path><path fill="#0a7b9e" d="M390.8,506.7l-4.5-0.4l0.3,1.8h1.2
				c1.9,3.6,0.3,12,0.3,12s-3,0.3-3.4-1.2s-1.8,3.3-0.7,4c1,0.7,4.5,0,4.8,2.8s2.2-1.8,2.2-1.8L390.8,506.7L390.8,506.7z" class="colorfff svgShape"></path><polygon fill="#0a7b9e" points="386.3 527.1 386.3 533.1 390.2 538.4 391.6 534.8 392.2 532.6 390.5 531.9 390.8 528.2 392.2 527.9 392.4 526.1 388.7 528.6" class="colorfff svgShape"></polygon><polygon fill="#0a7b9e" points="392.7 543.9 392.7 541.4 390.9 541.7 390.8 543.6" class="colorfff svgShape"></polygon><polygon fill="#0a7b9e" points="390.5 556 390.5 554.2 388.4 554.5 388.4 556.3" class="colorfff svgShape"></polygon><path fill="#0a7b9e" d="M393.4,548.2c0.6,0,1-0.4,1-1s-0.4-1-1-1
				s-1,0.4-1,1S392.8,548.2,393.4,548.2z" class="colorfff svgShape"></path><circle cx="395.1" cy="552.4" r="1" fill="#0a7b9e" class="colorfff svgShape"></circle><circle cx="395.2" cy="523.7" r="1" fill="#0a7b9e" class="colorfff svgShape"></circle><polygon fill="#0a7b9e" points="474.5 489.6 476 489.6 476.3 491.3 475.2 492.2 474.8 493.5 472.9 493.9 468.4 498.3 468.1 500.2 466.9 502 465.4 505.7 460.2 506 459.2 510.5 459.9 514.3 464.4 516.1 464.8 513.6 466.3 512.8 466.6 510.3 467.6 508.5 469.1 506.7 469.6 504.8 472.1 503.3 475.1 502.7 476.3 501.2 476.7 498.3 477 496 478.1 494.4 481 493.2 481 488.4 479.5 488.4 479.2 486.7 476.6 486.4 476 487.7 474.8 487.7" class="colorfff svgShape"></polygon><path fill="#0a7b9e" d="M486.1 503.8v-3.6l-.4-3.3-3.7-1.8-2.7 2.5-.4 3.6v2.2l-2.5.4-.4 6.8-1.9.7.3 2.5-2.7.7-2.7.7-.4 3.3-1.9 1.2-1 3-1.2 7.3c0 0 2.2 4.3 3.4 2.2 1.2-1.9 3.3-2.2 3.3-2.2l.7-1.8 6.7.3c.4-2.8 3.7-1.8 3.7-.4 0 1.2 2.5.3 2.5.3l1.8-2.8h2.7l.3-3 1.2-.7v-4.5c4-1.2 3.4-5.1 3.4-5.1l1-1.2-.4-1.8c-1.9-.7-1-2.5.3-2.1 1.2.4-1.8-2.2-1.8-2.2-1.5 1.2-2.7-1.5-2.7-1.5h-4.5V503.8zM490.1 534.1c-.3 3-4 4-4 4l-2.7-.7-1.5-1.2-.3-3.6 2.2-.3.4 1.5L490.1 534.1 490.1 534.1zM503.5 518c.6 2.2.4-3.6 1.5-3.3 1 .3.3-3.6.3-3.6l-4.5 3.3C502.9 514.8 503.2 517 503.5 518zM516.6 504.9c1 2.2.7 5.5 4.5 8 1.2.9-.7 2.5-1.9 1.8s-4.8-6.2-4.8-6.2v-3.3C515.1 503.3 516.1 504.1 516.6 504.9L516.6 504.9z" class="colorfff svgShape"></path><polygon fill="#0a7b9e" points="516.6 581.2 517.3 582 518.1 583.3 519.7 580.5 518.4 580.1" class="colorfff svgShape"></polygon><polygon fill="#0a7b9e" points="546.2 573.7 548.1 572.3 547.4 571.1 545.3 572.3" class="colorfff svgShape"></polygon><path fill="#0a7b9e" d="M617.7 626l2.2 1 .3 4.3c3 3 12.6.4 12.6-.3s-.4-9.2-.4-9.2l-1.2-1.2-.3-6.2c1-3.3-4.8-8-5.2-7s-3.7.3-3.7 1.2c0 1-1.9 5.9-1 7.7 1 1.8-.7 1.8-1 3.6C619.6 621.4 617.1 624.4 617.7 626L617.7 626zM612.2 615.9c-.4 1.9-2.2 3-3.3 2.2s1.2 1.2 1.8 2.2c.4 1 1.9 1 2.5 0 .4-1 .3-3.3.7-4.3C614.4 615.2 612.5 614.9 612.2 615.9L612.2 615.9z" class="colorfff svgShape"></path><rect width="1.8" height="4.8" x="600.8" y="569.9" fill="#0a7b9e" class="colorfff svgShape"></rect><path fill="#0a7b9e" d="M626.3,521.6c-1-1.5,4.9-4,5.9-1
				s0,2.5-1,2.2C630.4,522.5,627.8,523.5,626.3,521.6L626.3,521.6z" class="colorfff svgShape"></path><polygon fill="#0a7b9e" points="631.7 488 631.4 489.5 634.1 489.9 634.4 488.4" class="colorfff svgShape"></polygon><polygon fill="#0a7b9e" points="624.7 492.3 624.8 492.8 626.3 492.2 625.7 491 625.4 490.1 624.7 490.5 622.9 491.6 621.3 490.5 620.5 491.9 622.5 493.1 622.9 493.3 623.2 493.1" class="colorfff svgShape"></polygon><path fill="#0a7b9e" d="M634.1 431.2h-3.7c0 0 1.2.4-2.2-2.8-3.4-3.3-5.7.7-5.7.7l-4 .4v4l-1.9.7.3 2.5 2.7-.3c0 0 0 3 .7 1.8s7 .3 6.4 3.3c-.1 1.2 6.2 4.5 5.5 8.5 3.3.4 2.5 3.7 2.5 3.7l4.2.4 1.2-2.5 1.2.3v-1.5l-2.7-.7-.4-8-1.8-1.2.4-2.1-1.9-.7 1-3.3L634.1 431.2 634.1 431.2zM644.9 456.8l-1.9-.3-4.5.7L636 462c0 0 1.2.7 2.2 2.5s1.5 12-1.5 13.8.3.7.3.7l-.4 5.5c.7 2.5 1.9 1.2 2.7 0 .7-1.2 1.5-1.5 2.5-2.8 1-1.2 2.5-3.6 2.7-5.2.3-1.8 1.5-4.5.7-5.2-.7-.7.7-4.3.7-4.3s1-2.1 0-4c-1-2.1.3-4.3 1-5.2L644.9 456.8 644.9 456.8z" class="colorfff svgShape"></path><polygon fill="#0a7b9e" points="647.9 467 648.1 465.1 649.5 465.2 649.4 467.3" class="colorfff svgShape"></polygon><polygon fill="#0a7b9e" points="647.8 474 646.4 473.3 647.2 471.8 648.5 472.5" class="colorfff svgShape"></polygon><path fill="#0a7b9e" d="M645.7 454.1l-1-2.2c0 0 0-1.9.4-3 .4-1-1-1.9-1.8-2.2-.7-.3-.4-2.2-.7-3.3-.3-1-1.9-1.8-1.9-1.8s-.4-3.7-.4-4.5-2.2-1.8-1.5-2.5 1.2-1.8 1.9-2.2c.7-.4-.7-4 .4-3.3 1.2.7 1.2 2.1 1.8 3 .4 1-.3 4.5 1 5.2 1.2.7-.3 3.3 1.8 3.3 1.9 0 .7 4.8.7 4.8s-.4 3.6.7 3.7c1.2.3.4 6.2.4 6.2L645.7 454.1 645.7 454.1zM629.6 413.5c.7 1 2.2 1.8 2.2 2.8s-.4 1.8 1 1.9c1.5.3 2.5-.3 3 1 .4 1.2.4 3.3.3 4.3-.3 1 .3 2.5 1.5 2.5s1.5.3 1.5 1 1.5-2.8 1.5-2.8c-1.2-1-2.2-3.3-2.2-3.3s-1.2-3.6-1.2-4-1.8-1-2.5-1.2c-.7-.3-1.9-2.5-1.9-2.5L629.6 413.5 629.6 413.5zM632 411.1c-.7-1-1.5-1.8-2.5-2.2-1-.4-1.8-1-2.7-1-1 0-1.9-1-1.5-2.2s-.7-1.8-.7-2.8.7-1 1.9-.3 1 1 1.9 2.2c1 1.2 1.5 2.5 2.5 2.2s1.8 2.2 2.7 1.5c1-.7.7 1.8.7 1.8L632 411.1 632 411.1zM603.1 439.5c1.3 1.3-7.4 1-7.4 0s.7-4.5 3-3.7c2.2.7 2.5-4.5 2.5-4.5s-1.9.3-.3-.7c1.8-1 0-2.5-.7-3.3-.7-.7-1.5-2.1-1.5-2.1h3.4c1.5-1 1.9-5.8 1.9-5.8 3 1 4.5-1 4.5-1s.4 1.5 1.5 2.8c1 1.2-2.5 1.8-1.2 2.5 1.2.7 1.8 3 1.2 3.7-.4.7-3.3.3-3.3-.7s-1 1.2 0 2.5c1 1.2-1.2 3-1.8 3-.4 0-3.7.4-1 2.1 2.7 1.5 5.7.7 5.7.7s2.2-.3 3 1c.7 1.2-.3 1.5-1.5 1.5s-7.1-.4-7.1-.4S602.4 438.8 603.1 439.5L603.1 439.5zM587.2 441.7c1.2-.3 4.2-.4 4.8.3.4.7-1.8 1.8-1.8 1.8l-3 .4C586.3 443.1 586 442 587.2 441.7L587.2 441.7zM619.2 420.8c1.9-1 6.2-1 5.9-2.5s2.5-1.9 2.5-1.9l.7 3 2.2 1.5.3 2.8c0 0 .7-.4-1.9.3-2.7.7-1 1.9-1 1.9l-5.9.3-.7-2.5L619.2 420.8 619.2 420.8zM609.5 407.1c1.5 0-.4 5.8 3.4 5.2 4-.4.3 1.8 3.3 1.9 3 .3 2.2-2.2 3.3-4 1-1.8.4-2.8-1.2-3.3-1.8-.4-1.8-.4-2.2-2.5-.4-1.9-2.5-2.5-2.5-2.5l-.7-3-3.3 1.9-3.3 4.3C606.3 408.7 608 407.1 609.5 407.1L609.5 407.1z" class="colorfff svgShape"></path><polygon fill="#0a7b9e" points="616.1 428.4 616.8 426.9 618.2 427.5 617.4 429.1" class="colorfff svgShape"></polygon><rect width="1.5" height="1.8" x="613.5" y="426" fill="#0a7b9e" class="colorfff svgShape"></rect><polygon fill="#0a7b9e" points="614.7 392.5 615 394.7 613.5 394.9 613.2 392.7" class="colorfff svgShape"></polygon><rect width="1.5" height="1.2" x="610.6" y="415.9" fill="#0a7b9e" class="colorfff svgShape"></rect><polygon fill="#0a7b9e" points="606.6 415.9 606.4 414.4 608.9 414.2 609.1 415.7" class="colorfff svgShape"></polygon><polygon fill="#0a7b9e" points="586.2 440.1 584.8 439.5 585.6 437.7 586.9 438.3" class="colorfff svgShape"></polygon><polygon fill="#0a7b9e" points="578.4 435.5 578.3 434 580.8 433.7 581 435.2" class="colorfff svgShape"></polygon><polygon fill="#0a7b9e" points="535.6 435 530.1 435.2 530.3 436.7 535.6 436.5" class="colorfff svgShape"></polygon><polygon fill="#0a7b9e" points="526.5 437.1 525.9 434.9 527.4 434.6 527.9 436.8" class="colorfff svgShape"></polygon><polygon fill="#0a7b9e" points="525.5 438.8 525.1 437.3 525.8 437.1 526.2 438.5" class="colorfff svgShape"></polygon><path fill="#0a7b9e" d="M537.8 434.5l-.3 1.8 2.7.3c0 0 1.2 1 1.2 1.8s1.8 1.5 2.7 1.5c1 0 3.7-2.1 3.7-2.1s1.2-3.6.3-3.3c-1 .3-3 1.8-3.3.3s-3.3-.7-3.3-.7L537.8 434.5 537.8 434.5zM550.2 431.8c0 .7-.4 1.8 1 2.1 1.5.3 4.2-1 4.5.4.3 1.5.3 2.5 2.2 3.3s3.3 1 4.8 1 4.8-.4 4.8-.4 3.6.6 4.2 1.2c2.7 2.8 4.5 3.6 5.2 2.2.7-1.2-.3-4-.4-5.1-.3-1-3.7-5.8-4.9-4.8s-1.5 0-3.7.7-7 .3-7.1-.7c-.3-1-3.7-1.5-3.7-2.5s-2.5-2.2-2.2-.7-1.8 2.2-2.2 1.8C551.7 429.7 550.2 431.8 550.2 431.8L550.2 431.8zM607 399.7l1.8-5.5c-2.5-.4-1.9-3.3-1.9-3.3-.3-2.2-3.7-4.8-4.9-4s-.7-5.2-.7-5.2 2.2-1.5 3.3-.7-8.5-12.5-10.4-11.3-6.4-1.2-6.2-3.6c.3-2.2-8.9-9.8-8.9-9.8s-3-1.9-3.4-.4-1.5 2.5 0 3.3 1.2-1.2 3 .4c1.8 1.8 4.9 4 3.7 5.5s-2.7 2.1-2.7 2.1l1.8 2.1h2.7l.4 4.3c0 0 3 1.5 3.7 3.3s.7 2.8 0 3.7c-.7 1-2.2 2.8-1.9 4.5.3 1.8 2.2 2.5 2.2 2.5l1.9.3 1.5.7v3.3c1.9-.4 5.2 2.2 4.9 4s.4.7 3 2.5c2.5 1.8 1.8 2.1 3.4 3.3C604.8 402.6 606.3 401.9 607 399.7L607 399.7z" class="colorfff svgShape"></path><path fill="#0a7b9e" d="M566.3 365.4c-.3-1-.7-4.5.7-4.3 1.5.3.4 0 2.2.7s1.9-1.2 1.9-1.2h2.7l3.4 2.8-.4 2.2-2.5.3c-1.2-1.9-3.7-1.2-3.3.4.4 1.8-1.2 5.1-2.2 5.2-1 .3-4.2.3-4-1.2C565.2 369 566.3 365.4 566.3 365.4L566.3 365.4zM564.3 358.8v-1.9c0 0-.3-1.9-1.5-1.9s-3.4-1.5-3-2.5-4.2-2.1-4.2-2.1-4.2-4-2.7-3.6.7-1.8.7-1.8-3 .4-3.7.3c-.7-.3-.4-2.5-.4-2.5s-3-.7-3 0 1 .7 1.5 2.2.3 4 2.5 4.5c2.2.4 2.7 1 3 2.1.3 1 3 1.2 3 1.2l1.9 1L564.3 358.8 564.3 358.8z" class="colorfff svgShape"></path><polygon fill="#0a7b9e" points="537.5 333.2 536.8 331.1 534.9 330.6 534.9 332.9" class="colorfff svgShape"></polygon><path fill="#0a7b9e" d="M536.8 322.6c-2.5-1.9 3.4 1.5 3.4 1.5 1.9 0 3.3 1.5 3.3 2.2s2.7.4 2.7.4l.3-1.8-1.9-2.5-1.8-1.2c0 0-2.7-.3-2.7-1C540.1 319.6 537.8 323.4 536.8 322.6L536.8 322.6zM582.3 324.1c-.7 2.2-1 5.2-2.2 5.2s-.7 3.3-.7 3.3 3.3 0 4.2.3c1 .3 1 2.8 1 2.8 3.7-.3 5.2 4.8 4.8 6.1-.4 1.2 1.5 1.2 1.5 1.2s0 4-.4 5.1c-.4 1 3.3 1.8 4.2 3.3 1 1.5-.4 6.5-1.2 6.8-.7.3 1.9 1 1.8 2.2-.3 1.2.7 0 1 2.1.3 1.9.7 6.2.7 6.2l3.4.3c.4-3.3 6.8-3.4 7.9-3 4.2 1.5 7.4 8 7.4 9.5s-2.7 1.8-2.7 1.8l.4 7.3c4.2 1.2 7.7 7.3 7.1 8.3-.4 1 3 .7 3 .7.4-4.5 4.8-3 4.9-1.5.3 1.5 1 4.8 1 4.8l1.2 2.2 1.8 1.8 2.7-.3.7 1.5 3.3.4c0 0 2.7 3 3 3.7s4 .4 4.9.7c1 .3 2.5 1 2.7 2.2.3 1.2 1.8 3.3 1.8 3.3s3 .7 3.3 1.8c.3 1 1.5 3.3 1.5 3.3l2.5 2.1.3 2.2 2.7.3.7 3 4.5-.3 2.5-1.8c3.3-1.8 5.5-4 5.7-5.1.3-1 .7-4.8 3.3-4 2.5.7.7-5.5.7-5.5s-3.4-2.5-3.3-3.7c.3-1.2-3.4-3.7-3.3-4.8.3-1-3.3-3-3-4s-1.8-3.7-1.8-3.7l-3.7-3.6-.4-2.2-3-.3-5.9-7.3.3-2.1-1.8-.3v-2.8l-1.8-1-2.7-.3-5.5-5.9-.4-2.8h-2.7l.4-5.2c1.8-2.2.7-6.5.7-6.5s-3.4 1.8-5.2 1c-1.8-.7.7-2.5.7-2.5v-1.9l-1.5-1.5c0 0-4.2.4-4.5-.3-.3-.7-1-4-1-4l-.3-4.3-1.8-.7-.3-1.5-2.7.3v-3l-1.5-.4-1.5-.7-.3-3-5.3-.4-1.8-2.5-1.9-3-6.2-.4-1.5-1.5-2.5-.4-1.8-.7-.7 1.2-4.8.3-.3 1.5C592.4 324.4 582.6 323.4 582.3 324.1L582.3 324.1zM608.3 317.6c-.4-1.9 4.9-3.7 6.2-2.2 1.2 1.5 4.8 1.8 5.2 9.2.1 2.7-4.5-2.8-4.5-2.8l-3.7-1.2C609.5 320.1 608.5 318.9 608.3 317.6L608.3 317.6z" class="colorfff svgShape"></path><polygon fill="#0a7b9e" points="535.8 320.7 534.4 320.1 535.5 317.7 536.8 318.4" class="colorfff svgShape"></polygon><path fill="#0a7b9e" d="M523 296l-3.3-3.3v-2.8l-1-1-1-3.6-3.3-1-3.3 1.2-3.4 2.2-3.7.4-1.9 2.2 7.9.7 1.5 2.5 5.7.4 3.7 3.7C524.2 299.3 524.9 297.8 523 296L523 296zM522.5 283.6c-.6-2.2-3.7 2.8-.4 3.7 3.3 1 6.4 0 6.4 0l.7-1.5 12.3.3c1-1 1.5-2.5 1.5-2.5s3-1 4.2-.4c1.2.4.3-3.6-1-3-1.2.4-3.7.3-3.7.3H538c-.3-1.8-4.2-1-4.5 0-.1.9-1.6 1.2-1.6 1.2l-5.7.4C525.7 283.6 522.8 284.7 522.5 283.6L522.5 283.6zM498 326c3.9 1.2 5.2.3 5.5-.7s.4-1.2 1.9-1.5-.3-3.3-1.8-3-3-.4-3.3-1.8c-.3-1.2-2.7-4.5-3-1.9-.3 2.5-1.8 2.5-1.5 4.3C496.4 323.1 497.1 325.7 498 326L498 326zM469.6 328.9c-.1-.9 4.9-1 5.7-.3s.3 2.1 2.5 2.1 1.2 1.5 1 2.2c-.3.7-2.7.4-3-.3s-4-1-4-1S469.9 330 469.6 328.9L469.6 328.9z" class="colorfff svgShape"></path><polygon fill="#0a7b9e" points="551.1 278.1 551.7 278.7 552.1 278.3 554.7 276.2 553.6 275 551.7 276.7 550.5 275.3 549.4 276.5" class="colorfff svgShape"></polygon><polygon fill="#0a7b9e" points="540.1 272.3 540.4 272 543.2 270.3 542.3 269.1 540.1 270.6 538.4 269.5 537.7 270.9 539.6 272" class="colorfff svgShape"></polygon><polygon fill="#0a7b9e" points="531.2 323.5 532.8 326 534 325.1 532.3 322.5 532 322.2 531.7 322.2 529.2 321.9 529.1 323.4" class="colorfff svgShape"></polygon><path fill="#0a7b9e" d="M450.2,392.1l0.3,2.8h3.7
				c1.5,0-1.2-1.8-1.2-1.8S450.1,393.4,450.2,392.1L450.2,392.1z" class="colorfff svgShape"></path><polygon fill="#0a7b9e" points="455 392.2 455.9 391 457.4 392.2 456.5 393.4" class="colorfff svgShape"></polygon><polygon fill="#0a7b9e" points="409.9 345.2 411 344.2 412.5 345.7 411.4 346.7" class="colorfff svgShape"></polygon><polygon fill="#0a7b9e" points="479.7 669.6 480.7 670.6 481.9 669.4 482.7 668.7 481.8 668.1 479.2 666.9 478.7 668.2 480.1 669" class="colorfff svgShape"></polygon><polygon fill="#0a7b9e" points="460.2 651.4 462 652.6 462.9 651.4 461.8 650.7 462.6 650.1 461.7 648.9 460.2 650.3 459.5 650.8" class="colorfff svgShape"></polygon><path fill="#0a7b9e" d="M646.6,602.5c-0.3-1.3-1.8-1.8-1.9-1.8
				l-0.4,1.5l0,0c0.1,0,0.3,0.1,0.4,0.3l0.3,1.3c-0.1,0.1-0.3,0.3-0.3,0.4l1,1C646.4,604.1,646.7,603.4,646.6,602.5L646.6,602.5z" class="colorfff svgShape"></path><polygon fill="#0a7b9e" points="648.8 597.8 646.4 597.6 646.6 595.4 648.9 595.7" class="colorfff svgShape"></polygon><path fill="#0a7b9e" d="M706.1 578.3c1-.6 2.4-1.9 2.2.9-.1 2.8-1.3 1.9-2.2 2.8C705.2 582.9 704.6 579.2 706.1 578.3L706.1 578.3zM718.7 567.6v-.3c0-.4-.1-1-.4-1.6l-1.3.7c.1.3.1.7.3 1 0 .4.1.9.4 1.2.3.1.6.3 1 .1l-.3-1.5C718.4 567.4 718.5 567.4 718.7 567.6L718.7 567.6zM715.4 568.8c.4 1.5.9 3 .9 3.1l1.3-.6c0 0-.6-1.5-.9-3L715.4 568.8 715.4 568.8zM709.9 574.7l-1.5-.1c-.1 1.2.1 2.7 1.3 2.8l.3-1.5 0 0C710.1 575.9 709.9 575.3 709.9 574.7L709.9 574.7zM703.5 544.8c-.1-.4-.3-.9-.7-1-1-.4-3 .3-3.9.9l.9 1.2c.9-.6 2.2-.9 2.4-.7 0 0 0 0 0-.1L703.5 544.8 703.5 544.8zM496.2 587.6c0-.2.1-.5.1-.7l-1.7 1-.3 1.2-4.5.4-1.9 1-.7-1.5h-1.9l-1.9 2.8c-5.2.3-10.1 3.3-9.7 4.5.4 1.2-1.9 2.5-1.9 2.5l-2.2.7-1.5 2.2-3 1-.4 5.2-1.5 1v2.2l-1.8.4v1.2L459 613l1.5 3.7 1.9 1c3.4.4 1.9 4.8 1.9 4.8l1.9.3 1 2.8 1.9 4c.7 3 3 2.2 4 2.1 1-.3 1.9 3 1.9 3l9.8.3c0 0-.4 1 1.2 1.5 1.2.3 6.8.6 10.4.6C495.8 620.6 494.1 604.1 496.2 587.6z" class="colorfff svgShape"></path><path fill="#0a7b9e" d="M635,464.6c-1,1-3.3,1.5-3.3,1.5l-0.7,2.8l-1.2,1c0,0,0.3,0.7,0,2.5s-2.5,2.8-2.5,2.8l-1,1.2
				c0,0-5.9,0.3-6.7,0c-2.2-1-0.7-4,0.7-3.7c1.5,0.3-0.3-4.3-0.3-4.3l1.9-0.3c0,0,0.3-4.5,1-4.5s-0.3-1.5-1.2-2.2
				c-1-0.7-2.2-3.3-3.3-3s-4.9,0-4.9,0l-0.7,1.5l-2.7,0.4c0,0,0.3,1.9-0.3,2.5c-1.5,1.8-7.1,5.5-4.8-0.7l0.7-1.5v-2.2l-4.5-0.3
				c0,0-2.2-0.7-2.2-1.8c0-1-0.3-2.2-0.3-2.2l-5.2-5.8l-6.2-0.7l-0.4-1.2l-3.7-0.4c-4.5-2.2-8.5-0.3-7.7,3.6
				c0.7,3.7,1.9,5.2-0.4,5.2c-2.5,0-3-1.9-3-1.9s-1.9-0.7-1.9,0.3s-0.7,3,0,4s-1,2.5-1.8,1.8c-0.7-0.7-2.7-3-2.2-3.7
				c0.4-0.7-3.4-5.5,0.4-6.2c4-0.7-0.3-3,1.2-3.6l1.9-1h1.9l1.2-1l-3.3-0.4l-1.9-0.3l-3.7-0.3c-3.7,2.5-4.5,5.5-4.5,5.5
				c-1.9,3.7-6.7-1.5-4.9-3.6c1.8-2.1-5.5-0.3-6.7,0.7s-4.9,0.4-4.9,0.4c-0.7,2.2-4.2-0.3-3.3-1.8c1-1.5,1-2.5,1-2.5l-1.2-0.3
				l-1.5,2.8c-3.4,0-4.5,1.9-3.7,3.3c0.7,1.2-1-0.3-1.5,1.5c-0.4,1.8,0.3,1.8,1.8,2.5s-0.7,0.7,0.3,1.9s4,0,2.2,1.8s-5.2,1-5.2,1
				c-0.3,2.2-4.9,1.8-5.5,1c-0.4-0.7-4.2-5.2-4.2-5.2l-4.8-0.3c-0.4-3.6,2.2-1.8,3.3-4.5c1-2.8,1.5-7.3,1.5-7.3s-4-0.3-4.2,1
				c-0.3,1.2-2.7,2.1-2.7,2.1s-1.9,0.7-1.2,1.8c0.7,1-1.5,1.5-1.5,1.5s0.4,1.6-0.3,2.2c-1.9,2.1-7,0.3-7.7-0.4l-3-1.2l-3-1.9
				l-3.4,1.5l-1,1h-3.7l-0.3,3l6.7,0.7l0.4,6.2l-2.7-0.9h-1.8l-0.7-1.5l-1.5-0.3v5.5l1.5,1.2l1.2,1.2l2.5,0.3l0.4,3l6.2,0.3l0.7,1.2
				l3.7,0.3l7.1,7.3l-0.4,2.2l-1.2,0.7c0.4,1.8-3.3,0.7-3.3,0.7v1.5l1.8,0.3l1.8,1l2.5-4.3c2.7-1.8,4,0.7,4.2,2.2
				c0.3,1.5-1.2,1.2-1.2,1.2v3.6l1.5,0.4c2.5,3-1,4.8-1,4.8l-0.7,2.5c-0.7,2.2-3.4,1.8-3.4,1.8l-1,1.5l-3,0.7l5.8,0.7
				c0.6-2.1,2.1-2.5,2.8-1.5s0.7,2.8,0.7,2.8l1.5,0.3l-0.3,2.8l1.5,0.4v8l1.8,1.9c3-1.2,3,0.7,1.5,1.8s-0.4,5.5-0.4,5.5l-1.2,1.2
				v2.1l-1.5,1v2.8c-2.5-1.2-5.5-0.7-6.2,0c-2.2-1.5-7-1-7,0.3c1.5,1.9-1.8,2.5-1.8,2.5l-1.8,1.9c1.2,2.5-1.2,2.8-1.2,2.8v4.8
				l-3,2.8l0.3,6.5c0,1.8,3.7,1.9,4.5,1c0.7-1,3.7,2.1,3.7,2.1h2.2l0.4-4.5l-1.5-0.7V538l2.5-2.8c3-1,1.9,6.5,1.9,7.3
				c0.3,2.8,1.5,2.5,2.7,1.9c2.5-1,0.4,2.8-1.5,2.5s-0.7,2.5-0.7,2.5l1.2,0.4l-2.2,1.8l-1.9,2.2l-2.5-0.7l-3-0.3l-1-1.8l-1.8-0.3
				l-0.3,3.6l-1.2,1.5l-3,3c4,0-0.4,2.8-1.5,2.8c2.2,0.7-0.3,3-5.9,1.2v1.8l-1.9,0.3l1.8,1.9l1.9,0.3l-0.7,4.3c0,3.3-8.2,1-8.9,0.3
				l-0.3,4.5l-1.5,0.3l0.3,3l-0.3,4.3l2.7-0.4v1.8l6.7,0.3l9.7-10.3l5.7-1.2c0.4-2.5,3,0.4,3,0.4c2.5-0.3,3,1.5,3,1.5l3.3,0.4
				c2.7,0.7,1,1,1.2,2.1c0.3,1.5,1.5,1,1.5,1l0.4-3.3l1.5,0.3l-1.5-1.8l-2.7-1.2l-3-1.2c-1.9-2.8,0.4-2.2,2.5-1.9h3.3
				c0,0,3.7,5.1,3.7,6.2c0,1.2,1.8,1.5,1.8,1.5l2.2-0.3l0.7,1.8h2.2l0.7,1.5h4.5l0.3-2.2l-4.2-0.7l-0.3-2.5l-3-0.7
				c-1-4.3,0.7-5.5,1.9-3.6l1.5,0.3l-0.4-3.7l1.8-0.4l-0.4-5.2l-1.5-0.4V560l6.2,0.3c-0.4-3.3,0.3-4.8,0.3-4.8h1.8l0.3,1.2l7.6,0.7
				l0.1-0.1c3,1.8,1.5,4,0.4,4.5c-1,0.4-2.7,0.4-2.7,0.4l-0.4,1l-6.4,0.4l-0.4,2.5c-3.3-0.4-4.5,3-3.7,4.8c0.7,1.8,0,3.3,0,3.3
				l2.7,1.2l3.4-1c0.4-2.5,2.7-3,4.8-4.5c1.9-1.5,5.2,2.8,4.2,4.8c-1,1.9-1,2.8-1,2.8l0.3,2.2l-2.5,1l-1.9,1l-0.3,1.2h-6.7l-1.2,1.2
				l-3.3,0.3l-1,1.5l-2.2,0.3c0,0-3.7,1.8-2.2,3.7c1.5,2.1-6.2,1.8-7.9-1c-0.4,2.5-3.3,0.3-3.3,0.3l-2.7-0.7l-0.3-3.7
				c-0.1-0.5-0.4-1-0.8-1.3c0.7,1.2,1,2.6,0.9,4.1c-2.1,16.4-0.5,32.8,0.2,49.3c0.2-0.1,0.4-0.1,0.4-0.1l3.7,4.5l2.5,5.5l4.2,1.2
				l3,0.7l1,4.3l2.2,0.3l0.7,2.8c2.7,1.9-0.7,6.2-0.7,6.2v5.5l1.9,1l-0.3,2.1l0.4,0.4c3.6,0,7.2,1.8,8.7,5.4l7.3,7.8l7.4,2.2l1.2,4
				l1.9-0.3l1.5-1.2l5.9-0.3l3-2.8l3.3-0.4l27.5-23.3l-2.5-1.5v-5.5c4.5-3.3,4.8-9.1,0.4-9.5c-3.1-0.4-1.8-3.7,1.2-4.3l1.8-0.7V639
				l5.7-5.2v-4l-12.3-10.3c-5.5-1.9,0-14,3.7-13.8c3.7,0.3-0.3-18.6-0.3-18.6l-1.9-1l0.4-6.1h-2.7l-4.5,5.8l-1.2,4
				c-0.4,5.2-15.8,4.3-16.5,3.6s-5.9-3-5.9-3s-4-3.3-4.8-2.2c-0.7,1-4.2-1.2-4.2-0.4s-3.3-1.8-3.3-1.8l-4.9-1.8l3.7-0.7l-0.7-3
				l6.4,3.3c0.7,1,4,0.7,4,0.7l1,1.2c0,0,1.9-0.3,3.3,1.2c1.2,1.5,7.7,0.3,7.7,0.3l1.8,1.5l2.7,1l7.7,0.3l0.3-4.8l1.5-1.5l-0.3-3
				l1.8-1.5v-2.5l1.5-0.4l0.3-5.5l1.2-0.3v-12l-3.7-3.6c-0.3,1.2-4.2,1.2-4.2,1.2s-1,1.8-1.8,1.8c-0.7,0,1,2.2,0.4,3.7
				c-0.4,1.5-2.5,1.5-2.5,1.5l-3.7,1l-1,1.2h-4l-0.4-3.3l4.5-1.2l2.5-1.2l1.2-2.5c0.3-2.5,3.3-2.2,3.3-2.2s5.7-4.8,5.9-7
				c0.3-2.2,2.2-8.5,5.7-8.5h6.4c2.5-1,1.8-4.3,1.8-4.3l3.3-0.4l0.4,1.8c0,0,4.5,0.4,4.9-0.3s1.5-2.5,2.7-1.8s5.2-1.8,5.2-1.8
				c0.3-1.8,6.4-1,6.4-1l0.7-2.2c0,0-4.2-5.8-4.9-5.8s-4.8-3.6-5.2-2.2c-4-1-3.7-6.5-3.7-6.5l-1.3-3.9c0-2.1-3.7-6.2-4.5-5.8
				c-3.7-2.8-1-5.9,0-6.2s3.4-3.7,3.4-3.7l1.2-3.6l4.2-1.2l0.4-3.3l-2.2-0.3c0,0,2.5-4.5,3.7-4.5s9.4,0,10.1-0.4
				c0.7-0.4,2.2-4.5,2.2-5.2s1.9-1,2.7-1.2c0.7-0.3,2.5-2.2,3-3.3C637.6,469.9,636,463.6,635,464.6z M564.9,551.8
				c-0.4,1.5-4.9,1.2-5.2-0.3s-1-1-1.5-0.3c-0.4,0.7-2.7,1.2-4,0.4c-0.2-0.1-0.3-0.2-0.3-0.3c-0.3-0.4,0.6-0.7,0-1.3
				c-0.7-0.7-1.8,0-3-0.7s0-5.1-0.3-5.9c-0.3-1,4.2-2.5,3.4-0.3c-0.7,2.2,0,3.3,0,3.3c3.3-3,5.9,0.3,5.7,1c-0.3,0.7,1.8,1.5,3,0.7
				C563.9,547.3,565.4,550.3,564.9,551.8z" class="colorfff svgShape"></path><path fill="#0a7b9e" d="M498 555.1c.3-.3.7 1.2 1.5.9.7-.1 1 1.3.3 1.3s-.7.9-.7 1.3 0 1.3-.6 1.9c-.6.6-1 .1-1.8-.1-.7-.4-1-.4-2.1-.4-.9 0-.1 1.5-.1 1.5s-3.9-.1-3.1-.7c.7-.6 1.5-.7.9-1.2-.6-.4 0-.7 0-1.5 0-.7 1.8-.4 1.3-.9-.6-.6 0-2.7.9-1.5l.6-1.3c-.6-.6-.1-.7-1.3-1.2-1-.4-.1-2.7-.1-2.7l.1-1.5c.3-1.9 4-2.1 4.3-.4.1 1.6 0 2.8 0 2.8l1 .4c0 0-.1 1.2-1 1.2s0 .6-.6 1.2L498 555.1 498 555.1zM485.8 557c.6-1.2 1.8-5.9 3.3-4.5s2.4 0 2.4 0 .7.7.3 2.2c-.3 1.5-.7 3-1.6 3.3-.9.1-1.6.7-2.8.9C486.4 559.1 485.8 557 485.8 557L485.8 557z" class="colorfff svgShape"></path></g><g display="none" fill="#0a7b9e" class="color000 svgShape"><path fill="#0a7b9e" d="M625.1,904.4l-29-11.6c-11.1-5.4-27.1-11.7-47.1-15c-23.8-3.9-43.8-2-57.1,0.3c-12.3-1.9-31.1-3.6-53.2,0
				c-35.8,5.9-50,20.6-78.5,27.6c-18.9,4.7-47.4,6.8-86.6-7.5c11.8,14.8,27.6,23.9,43.9,30.1c30.4,12.1,66.5,3.8,91.6-13.7
				c21.6-12.1,40.1-35.9,68.5-26.9c-28.9,13.4-55.3,32.2-79.2,56.4l15,12.3c17.4-23.4,40.6-42.4,64-57.2c5.1-2.7,10.5-6.1,16.1-6.8
				c28.7,14.1,54.4,38.1,77.6,63.1c5-4,10.2-8.4,14.3-13c-24-23.2-50.4-41.4-78.7-54.6c4.7-1.3,10.1-1.6,15.6-1.5
				c15.3-0.9,25.7,9.9,37.5,17.4C589,926,628,940.5,665.3,926.6c16.8-6,33-16.6,44.6-31.4C686.9,911.6,652,914.4,625.1,904.4z" class="colorfff svgShape"></path></g><g display="none" fill="#0a7b9e" class="color000 svgShape"><polygon fill="#0a7b9e" points="522.2 920.3 517.7 909.8 512.2 915.8 516.3 894.3 502.2 902.5 491.7 881.8 481.1 902.1 467 893.9 471.3 915.8 465.6 909.6 461.1 919.9 442.9 916 449 934.5 534.5 934.5 540.4 916.2" class="colorfff svgShape"></polygon></g><g display="none" fill="#0a7b9e" class="color000 svgShape"><path fill="none" stroke="#0a7b9e" stroke-miterlimit="10" stroke-width="3" d="M465.9,730.7c0,3.4-0.5,6.6-1.6,9.7c10.6,1.5,21.5,2.3,32.6,2.3c11.5,0,22.8-0.9,33.9-2.5
		c-0.1-2.3,0.2-4.5,0.6-6.6c0,0,0,0,0,0c0,0,0,0,0,0c0.1-1,0.3-2,0.6-2.9H465.9z" class="colorStroke0a7b9e svgStroke"></path><polyline fill="#0a7b9e" points="475 729.1 475 732.3 469.7 732.3 469.8 729.1" class="colorfff svgShape"></polyline><polyline fill="#0a7b9e" points="484.9 729.1 484.8 732.3 490.4 732.3 490.5 729.1" class="colorfff svgShape"></polyline><polyline fill="#0a7b9e" points="520.2 729.1 520.2 732.3 526 732.3 525.9 729.1" class="colorfff svgShape"></polyline></g></svg></g></svg>